Gloock-Regular.ufo
<glyph name="exclam" format="2">
  <advance width="232"/>
  <unicode hex="0021"/>
  <outline>
    <contour>
      <point x="30" y="71" type="curve" smooth="yes"/>
      <point x="30" y="25"/>
      <point x="69" y="-14"/>
      <point x="115" y="-14" type="curve" smooth="yes"/>
      <point x="161" y="-14"/>
      <point x="200" y="25"/>
      <point x="200" y="71" type="curve" smooth="yes"/>
      <point x="200" y="118"/>
      <point x="161" y="156"/>
      <point x="115" y="156" type="curve" smooth="yes"/>
      <point x="69" y="156"/>
      <point x="30" y="118"/>
    </contour>
    <contour>
      <point x="202" y="679" type="curve" smooth="yes"/>
      <point x="202" y="730"/>
      <point x="168" y="764"/>
      <point x="116" y="764" type="curve" smooth="yes"/>
      <point x="66" y="764"/>
      <point x="32" y="730"/>
      <point x="32" y="679" type="curve" smooth="yes"/>
      <point x="32" y="597"/>
      <point x="111" y="520"/>
      <point x="111" y="271" type="curve" name=".hr01"/>
      <point x="121" y="271" type="line"/>
      <point x="121" y="520"/>
      <point x="202" y="597"/>
    </contour>
  </outline>
</glyph>
<glyph name="dollar" format="2">
  <advance width="492"/>
  <unicode hex="0024"/>
  <outline>
    <contour>
      <point x="274" y="290" type="line"/>
      <point x="342" y="230"/>
      <point x="373" y="184"/>
      <point x="373" y="131" type="curve" smooth="yes"/>
      <point x="373" y="67"/>
      <point x="335" y="21"/>
      <point x="274" y="8" type="curve"/>
    </contour>
    <contour>
      <point x="264" y="501" type="line"/>
      <point x="197" y="556"/>
      <point x="166" y="597"/>
      <point x="166" y="661" type="curve" smooth="yes"/>
      <point x="166" y="712"/>
      <point x="205" y="747"/>
      <point x="264" y="749" type="curve"/>
    </contour>
    <contour>
      <point x="274" y="-60" type="line"/>
      <point x="274" y="-11" type="line"/>
      <point x="401" y="4" name=".hr01"/>
      <point x="483" y="92"/>
      <point x="483" y="217" type="curve" smooth="yes"/>
      <point x="483" y="305"/>
      <point x="434" y="368"/>
      <point x="314" y="461" type="curve"/>
      <point x="275" y="493" type="line"/>
      <point x="274" y="493" type="line"/>
      <point x="274" y="749" type="line"/>
      <point x="359" y="747"/>
      <point x="403" y="680"/>
      <point x="424" y="526" type="curve"/>
      <point x="434" y="526" type="line"/>
      <point x="424" y="750" type="line" name=".hr02"/>
      <point x="350" y="750"/>
      <point x="329" y="763"/>
      <point x="274" y="764" type="curve" name=".hr03"/>
      <point x="274" y="810" type="line"/>
      <point x="264" y="810" type="line"/>
      <point x="264" y="764" type="line"/>
      <point x="132" y="763"/>
      <point x="44" y="693"/>
      <point x="44" y="588" type="curve" smooth="yes"/>
      <point x="44" y="500"/>
      <point x="81" y="447"/>
      <point x="171" y="375" type="curve" smooth="yes"/>
      <point x="210" y="344" type="line" smooth="yes"/>
      <point x="230" y="328"/>
      <point x="248" y="313"/>
      <point x="264" y="299" type="curve"/>
      <point x="264" y="6" type="line"/>
      <point x="255" y="5"/>
      <point x="246" y="4"/>
      <point x="237" y="4" type="curve" smooth="yes"/>
      <point x="123" y="4"/>
      <point x="66" y="84"/>
      <point x="44" y="270" type="curve"/>
      <point x="33" y="270" type="line"/>
      <point x="66" y="0" type="line" name=".hr04"/>
      <point x="162" y="0"/>
      <point x="175" y="-14" name=".hr05"/>
      <point x="237" y="-14" type="curve"/>
      <point x="246" y="-13"/>
      <point x="255" y="-13"/>
      <point x="264" y="-12" type="curve" name=".hr06"/>
      <point x="264" y="-60" type="line"/>
    </contour>
  </outline>
</glyph>
<glyph name="percent" format="2">
  <advance width="802"/>
  <unicode hex="0025"/>
  <outline>
    <contour>
      <point x="41" y="590" type="curve" smooth="yes"/>
      <point x="41" y="485"/>
      <point x="113" y="416"/>
      <point x="223" y="416" type="curve" smooth="yes"/>
      <point x="332" y="416"/>
      <point x="403" y="485"/>
      <point x="403" y="590" type="curve" smooth="yes"/>
      <point x="403" y="695"/>
      <point x="332" y="764"/>
      <point x="223" y="764" type="curve" smooth="yes"/>
      <point x="113" y="764"/>
      <point x="41" y="695"/>
    </contour>
    <contour>
      <point x="147" y="590" type="curve" smooth="yes"/>
      <point x="147" y="687"/>
      <point x="179" y="752"/>
      <point x="223" y="752" type="curve" smooth="yes"/>
      <point x="266" y="752"/>
      <point x="297" y="687"/>
      <point x="297" y="590" type="curve" smooth="yes"/>
      <point x="297" y="494"/>
      <point x="266" y="428"/>
      <point x="222" y="428" type="curve" smooth="yes"/>
      <point x="178" y="428"/>
      <point x="147" y="494"/>
    </contour>
    <contour>
      <point x="398" y="160" type="curve" smooth="yes"/>
      <point x="398" y="55"/>
      <point x="470" y="-14" name=".hr01"/>
      <point x="579" y="-14" type="curve" smooth="yes"/>
      <point x="689" y="-14"/>
      <point x="760" y="55"/>
      <point x="760" y="160" type="curve" smooth="yes"/>
      <point x="760" y="265"/>
      <point x="689" y="334"/>
      <point x="579" y="334" type="curve" smooth="yes"/>
      <point x="470" y="334"/>
      <point x="398" y="265"/>
    </contour>
    <contour>
      <point x="504" y="161" type="curve" smooth="yes"/>
      <point x="504" y="257"/>
      <point x="536" y="323"/>
      <point x="579" y="323" type="curve" smooth="yes"/>
      <point x="623" y="323"/>
      <point x="654" y="257"/>
      <point x="654" y="161" type="curve" smooth="yes"/>
      <point x="654" y="64"/>
      <point x="623" y="-2"/>
      <point x="579" y="-2" type="curve" smooth="yes"/>
      <point x="535" y="-2"/>
      <point x="504" y="64"/>
    </contour>
    <contour>
      <point x="131" y="0" type="line"/>
      <point x="146" y="0" type="line"/>
      <point x="670" y="750" type="line"/>
      <point x="655" y="750" type="line"/>
    </contour>
  </outline>
</glyph>
<glyph name="parenright" format="2">
  <advance width="349"/>
  <unicode hex="0029"/>
  <outline>
    <contour>
      <point x="20" y="-148" type="curve"/>
      <point x="26" y="-155" type="line"/>
      <point x="157" y="-72"/>
      <point x="318" y="95"/>
      <point x="318" y="350" type="curve" smooth="yes"/>
      <point x="318" y="605"/>
      <point x="157" y="771"/>
      <point x="26" y="854" type="curve"/>
      <point x="20" y="847" type="line"/>
      <point x="97" y="733"/>
      <point x="153" y="577"/>
      <point x="153" y="350" type="curve" smooth="yes"/>
      <point x="153" y="122"/>
      <point x="97" y="-34"/>
    </contour>
  </outline>
</glyph>
<glyph name="plus" format="2">
  <advance width="421"/>
  <unicode hex="002B"/>
  <outline>
    <contour>
      <point x="216" y="344" type="line"/>
      <point x="216" y="504" type="line"/>
      <point x="206" y="504" type="line"/>
      <point x="206" y="344" type="line"/>
      <point x="46" y="344" type="line"/>
      <point x="46" y="334" type="line"/>
      <point x="206" y="334" type="line"/>
      <point x="206" y="174" type="line"/>
      <point x="216" y="174" type="line"/>
      <point x="216" y="334" type="line"/>
      <point x="376" y="334" type="line"/>
      <point x="376" y="344" type="line"/>
    </contour>
  </outline>
</glyph>
<glyph name="hyphen" format="2">
  <advance width="308"/>
  <unicode hex="002D"/>
  <outline>
    <contour>
      <point x="29" y="275" type="line"/>
      <point x="279" y="275" type="line"/>
      <point x="279" y="325" type="line"/>
      <point x="29" y="325" type="line"/>
    </contour>
  </outline>
</glyph>
<glyph name="slash" format="2">
  <advance width="253"/>
  <unicode hex="002F"/>
  <outline>
    <contour>
      <point x="11" y="-200" type="line"/>
      <point x="24" y="-200" type="line"/>
      <point x="243" y="750" type="line"/>
      <point x="230" y="750" type="line"/>
    </contour>
  </outline>
</glyph>
<glyph name="zero" format="2">
  <advance width="657"/>
  <unicode hex="0030"/>
  <outline>
    <contour>
      <point x="35" y="375" type="curve" smooth="yes"/>
      <point x="35" y="142"/>
      <point x="148" y="-14"/>
      <point x="329" y="-14" type="curve" smooth="yes"/>
      <point x="509" y="-14"/>
      <point x="622" y="142"/>
      <point x="622" y="375" type="curve" smooth="yes"/>
      <point x="622" y="608"/>
      <point x="509" y="764"/>
      <point x="329" y="764" type="curve" smooth="yes"/>
      <point x="148" y="764"/>
      <point x="35" y="608"/>
    </contour>
    <contour>
      <point x="198" y="376" type="curve" smooth="yes"/>
      <point x="198" y="601"/>
      <point x="250" y="751"/>
      <point x="329" y="751" type="curve" smooth="yes"/>
      <point x="407" y="751"/>
      <point x="459" y="601"/>
      <point x="459" y="376" type="curve" smooth="yes"/>
      <point x="459" y="151"/>
      <point x="407" y="1"/>
      <point x="329" y="1" type="curve" smooth="yes"/>
      <point x="250" y="1"/>
      <point x="198" y="150"/>
    </contour>
  </outline>
</glyph>
<glyph name="one" format="2">
  <advance width="326"/>
  <unicode hex="0031"/>
  <outline>
    <contour>
      <point x="318" y="10" type="line"/>
      <point x="270" y="10"/>
      <point x="238" y="42"/>
      <point x="238" y="90" type="curve" smooth="yes"/>
      <point x="238" y="770" type="line"/>
      <point x="228" y="770" type="line"/>
      <point x="199" y="688"/>
      <point x="113" y="624"/>
      <point x="13" y="616" type="curve" smooth="yes"/>
      <point x="-12" y="614" type="line"/>
      <point x="-12" y="602" type="line"/>
      <point x="86" y="597"/>
      <point x="84" y="572"/>
      <point x="84" y="468" type="curve" smooth="yes"/>
      <point x="84" y="90" type="line" smooth="yes"/>
      <point x="84" y="42"/>
      <point x="52" y="10"/>
      <point x="4" y="10" type="curve"/>
      <point x="3" y="10" type="line"/>
      <point x="3" y="0" type="line"/>
      <point x="319" y="0" type="line"/>
      <point x="319" y="10" type="line"/>
    </contour>
  </outline>
</glyph>
<glyph name="two" format="2">
  <advance width="504"/>
  <unicode hex="0032"/>
  <outline>
    <contour>
      <point x="434" y="0" type="line"/>
      <point x="471" y="224" type="line"/>
      <point x="461" y="224" type="line"/>
      <point x="450" y="142"/>
      <point x="436" y="132"/>
      <point x="339" y="132" type="curve" smooth="yes"/>
      <point x="94" y="132" type="line"/>
      <point x="289" y="314"/>
      <point x="463" y="450"/>
      <point x="463" y="594" type="curve" smooth="yes"/>
      <point x="463" y="687"/>
      <point x="380" y="764"/>
      <point x="242" y="764" type="curve" smooth="yes"/>
      <point x="182" y="764"/>
      <point x="120" y="749"/>
      <point x="66" y="749" type="curve"/>
      <point x="34" y="541" type="line"/>
      <point x="44" y="541" type="line"/>
      <point x="63" y="657"/>
      <point x="147" y="751"/>
      <point x="219" y="751" type="curve" smooth="yes"/>
      <point x="273" y="751"/>
      <point x="308" y="697"/>
      <point x="308" y="621" type="curve" smooth="yes"/>
      <point x="308" y="477"/>
      <point x="163" y="264"/>
      <point x="-7" y="10" type="curve"/>
      <point x="-7" y="0" type="line"/>
    </contour>
  </outline>
</glyph>
<glyph name="three" format="2">
  <advance width="534"/>
  <unicode hex="0033"/>
  <outline>
    <contour>
      <point x="491" y="243" type="curve" smooth="yes"/>
      <point x="491" y="394"/>
      <point x="398" y="488"/>
      <point x="271" y="478" type="curve"/>
      <point x="366" y="513"/>
      <point x="432" y="578" name=".hr01"/>
      <point x="432" y="640" type="curve" smooth="yes"/>
      <point x="432" y="714"/>
      <point x="354" y="764"/>
      <point x="241" y="764" type="curve" smooth="yes"/>
      <point x="176" y="764"/>
      <point x="138" y="750"/>
      <point x="72" y="750" type="curve"/>
      <point x="40" y="541" type="line"/>
      <point x="50" y="541" type="line"/>
      <point x="68" y="670"/>
      <point x="140" y="750"/>
      <point x="224" y="750" type="curve" smooth="yes"/>
      <point x="263" y="750"/>
      <point x="283" y="723"/>
      <point x="283" y="659" type="curve" smooth="yes"/>
      <point x="283" y="564"/>
      <point x="239" y="489"/>
      <point x="139" y="414" type="curve"/>
      <point x="139" y="404" type="line"/>
      <point x="169" y="420"/>
      <point x="197" y="427"/>
      <point x="222" y="427" type="curve" smooth="yes"/>
      <point x="297" y="427"/>
      <point x="347" y="358" name=".hr02"/>
      <point x="347" y="236" type="curve" smooth="yes"/>
      <point x="347" y="95"/>
      <point x="279" y="1"/>
      <point x="199" y="1" type="curve" smooth="yes"/>
      <point x="119" y="1"/>
      <point x="48" y="89"/>
      <point x="31" y="224" type="curve"/>
      <point x="21" y="224" type="line"/>
      <point x="53" y="0" type="line" name=".hr03"/>
      <point x="116" y="0"/>
      <point x="152" y="-14" name=".hr04"/>
      <point x="215" y="-14" type="curve" smooth="yes"/>
      <point x="376" y="-14"/>
      <point x="491" y="89"/>
    </contour>
  </outline>
</glyph>
<glyph name="five" format="2">
  <advance width="547"/>
  <unicode hex="0035"/>
  <outline>
    <contour>
      <point x="60" y="0" type="line" name=".hr02"/>
      <point x="118" y="0"/>
      <point x="162" y="-14" name=".hr01"/>
      <point x="225" y="-14" type="curve" smooth="yes"/>
      <point x="393" y="-14"/>
      <point x="505" y="87"/>
      <point x="505" y="240" type="curve" smooth="yes"/>
      <point x="505" y="385"/>
      <point x="404" y="481"/>
      <point x="250" y="481" type="curve" smooth="yes"/>
      <point x="170" y="481"/>
      <point x="105" y="455"/>
      <point x="73" y="455" type="curve"/>
      <point x="91" y="600" type="line"/>
      <point x="123" y="586"/>
      <point x="156" y="580"/>
      <point x="189" y="580" type="curve" smooth="yes"/>
      <point x="294" y="580"/>
      <point x="401" y="645"/>
      <point x="476" y="760" type="curve"/>
      <point x="476" y="771" type="line"/>
      <point x="427" y="723"/>
      <point x="365" y="699"/>
      <point x="300" y="699" type="curve" smooth="yes"/>
      <point x="233" y="699"/>
      <point x="163" y="724"/>
      <point x="99" y="772" type="curve"/>
      <point x="50" y="373" type="line"/>
      <point x="58" y="373" type="line"/>
      <point x="93" y="428"/>
      <point x="154" y="465"/>
      <point x="210" y="465" type="curve" smooth="yes"/>
      <point x="298" y="465"/>
      <point x="358" y="373"/>
      <point x="358" y="237" type="curve" smooth="yes"/>
      <point x="358" y="98"/>
      <point x="296" y="1"/>
      <point x="207" y="1" type="curve" smooth="yes"/>
      <point x="123" y="1"/>
      <point x="55" y="90"/>
      <point x="38" y="224" type="curve"/>
      <point x="28" y="224" type="line"/>
    </contour>
  </outline>
</glyph>
<glyph name="six" format="2">
  <advance width="622"/>
  <unicode hex="0036"/>
  <outline>
    <contour>
      <point x="442" y="221" type="curve" smooth="yes"/>
      <point x="442" y="100"/>
      <point x="389" y="0"/>
      <point x="324" y="0" type="curve" smooth="yes"/>
      <point x="249" y="0"/>
      <point x="201" y="132"/>
      <point x="201" y="334" type="curve"/>
      <point x="201" y="334"/>
      <point x="201" y="361"/>
      <point x="202" y="387" type="curve"/>
      <point x="228" y="417"/>
      <point x="270" y="437"/>
      <point x="307" y="437" type="curve" smooth="yes"/>
      <point x="385" y="437"/>
      <point x="442" y="346"/>
    </contour>
    <contour>
      <point x="586" y="246" type="curve" smooth="yes"/>
      <point x="586" y="388"/>
      <point x="503" y="481"/>
      <point x="378" y="481" type="curve" smooth="yes"/>
      <point x="307" y="481"/>
      <point x="238" y="452"/>
      <point x="202" y="407" type="curve"/>
      <point x="207" y="614"/>
      <point x="279" y="750"/>
      <point x="374" y="750" type="curve" smooth="yes"/>
      <point x="456" y="750"/>
      <point x="530" y="665"/>
      <point x="544" y="541" type="curve"/>
      <point x="554" y="541" type="line"/>
      <point x="528" y="750" type="line"/>
      <point x="466" y="750"/>
      <point x="395" y="764"/>
      <point x="341" y="764" type="curve" smooth="yes" name=".hr01"/>
      <point x="161" y="764"/>
      <point x="39" y="604"/>
      <point x="39" y="367" type="curve" smooth="yes"/>
      <point x="39" y="136"/>
      <point x="155" y="-14"/>
      <point x="336" y="-14" type="curve" smooth="yes"/>
      <point x="486" y="-14"/>
      <point x="586" y="90"/>
    </contour>
  </outline>
</glyph>
<glyph name="eight" format="2">
  <advance width="620"/>
  <unicode hex="0038"/>
  <outline>
    <contour>
      <point x="193" y="246" type="curve" smooth="yes"/>
      <point x="193" y="385"/>
      <point x="240" y="477"/>
      <point x="310" y="477" type="curve" smooth="yes"/>
      <point x="380" y="477"/>
      <point x="427" y="385"/>
      <point x="427" y="246" type="curve" smooth="yes"/>
      <point x="427" y="100"/>
      <point x="380" y="2"/>
      <point x="310" y="2" type="curve" smooth="yes"/>
      <point x="240" y="2"/>
      <point x="193" y="100"/>
    </contour>
    <contour>
      <point x="235" y="625" type="curve" smooth="yes"/>
      <point x="235" y="702" name=".hr01"/>
      <point x="265" y="754"/>
      <point x="310" y="754" type="curve" smooth="yes"/>
      <point x="355" y="754"/>
      <point x="385" y="702"/>
      <point x="385" y="624" type="curve" smooth="yes"/>
      <point x="385" y="544"/>
      <point x="355" y="490"/>
      <point x="310" y="490" type="curve" smooth="yes"/>
      <point x="265" y="490"/>
      <point x="235" y="544"/>
    </contour>
    <contour>
      <point x="35" y="236" type="curve" smooth="yes"/>
      <point x="35" y="86"/>
      <point x="145" y="-14" name=".hr02"/>
      <point x="310" y="-14" type="curve" smooth="yes"/>
      <point x="475" y="-14"/>
      <point x="585" y="86"/>
      <point x="585" y="235" type="curve" smooth="yes"/>
      <point x="585" y="371"/>
      <point x="495" y="466"/>
      <point x="357" y="483" type="curve"/>
      <point x="472" y="494"/>
      <point x="546" y="548"/>
      <point x="546" y="623" type="curve" smooth="yes"/>
      <point x="546" y="708" name=".hr03"/>
      <point x="452" y="764"/>
      <point x="310" y="764" type="curve" smooth="yes"/>
      <point x="168" y="764"/>
      <point x="74" y="708"/>
      <point x="74" y="624" type="curve" smooth="yes"/>
      <point x="74" y="548"/>
      <point x="148" y="494"/>
      <point x="263" y="483" type="curve"/>
      <point x="125" y="466"/>
      <point x="35" y="371"/>
    </contour>
  </outline>
</glyph>
<glyph name="colon" format="2">
  <advance width="230"/>
  <unicode hex="003A"/>
  <outline>
    <contour>
      <point x="30" y="71" type="curve" smooth="yes"/>
      <point x="30" y="25"/>
      <point x="69" y="-14"/>
      <point x="115" y="-14" type="curve" smooth="yes"/>
      <point x="161" y="-14"/>
      <point x="200" y="25"/>
      <point x="200" y="71" type="curve" smooth="yes"/>
      <point x="200" y="118"/>
      <point x="161" y="156"/>
      <point x="115" y="156" type="curve" smooth="yes"/>
      <point x="69" y="156"/>
      <point x="30" y="118"/>
    </contour>
    <contour>
      <point x="30" y="427" type="curve" smooth="yes"/>
      <point x="30" y="381"/>
      <point x="69" y="342"/>
      <point x="115" y="342" type="curve" smooth="yes"/>
      <point x="161" y="342"/>
      <point x="200" y="381"/>
      <point x="200" y="427" type="curve" smooth="yes"/>
      <point x="200" y="474"/>
      <point x="161" y="512"/>
      <point x="115" y="512" type="curve" smooth="yes"/>
      <point x="69" y="512"/>
      <point x="30" y="474"/>
    </contour>
  </outline>
</glyph>
<glyph name="semicolon" format="2">
  <advance width="230"/>
  <unicode hex="003B"/>
  <outline>
    <contour>
      <point x="30" y="427" type="curve" smooth="yes"/>
      <point x="30" y="381"/>
      <point x="69" y="342"/>
      <point x="115" y="342" type="curve" smooth="yes"/>
      <point x="161" y="342"/>
      <point x="200" y="381"/>
      <point x="200" y="427" type="curve" smooth="yes"/>
      <point x="200" y="474"/>
      <point x="161" y="512"/>
      <point x="115" y="512" type="curve" smooth="yes"/>
      <point x="69" y="512"/>
      <point x="30" y="474"/>
    </contour>
    <contour>
      <point x="35" y="80" type="curve" smooth="yes"/>
      <point x="35" y="0"/>
      <point x="133" y="28"/>
      <point x="133" y="-30" type="curve" smooth="yes" name=".hr01"/>
      <point x="133" y="-74"/>
      <point x="96" y="-100"/>
      <point x="53" y="-151" type="curve"/>
      <point x="62" y="-155" type="line"/>
      <point x="131" y="-79"/>
      <point x="195" y="-30"/>
      <point x="195" y="65" type="curve" smooth="yes"/>
      <point x="195" y="120"/>
      <point x="162" y="156"/>
      <point x="113" y="156" type="curve" smooth="yes"/>
      <point x="66" y="156"/>
      <point x="35" y="126"/>
    </contour>
  </outline>
</glyph>
<glyph name="question" format="2">
  <advance width="446"/>
  <unicode hex="003F"/>
  <outline>
    <contour>
      <point x="98" y="71" type="curve" smooth="yes"/>
      <point x="98" y="25"/>
      <point x="137" y="-14"/>
      <point x="183" y="-14" type="curve" smooth="yes"/>
      <point x="229" y="-14"/>
      <point x="268" y="25"/>
      <point x="268" y="71" type="curve" smooth="yes"/>
      <point x="268" y="118"/>
      <point x="229" y="156"/>
      <point x="183" y="156" type="curve" smooth="yes"/>
      <point x="137" y="156"/>
      <point x="98" y="118"/>
    </contour>
    <contour>
      <point x="187" y="271" type="line"/>
      <point x="187" y="381" name=".hr01"/>
      <point x="222" y="433"/>
      <point x="273" y="476" type="curve" smooth="yes"/>
      <point x="309" y="506"/>
      <point x="416" y="563"/>
      <point x="416" y="643" type="curve" smooth="yes"/>
      <point x="416" y="716"/>
      <point x="343" y="764"/>
      <point x="212" y="764" type="curve" smooth="yes"/>
      <point x="156" y="764"/>
      <point x="121" y="750"/>
      <point x="63" y="750" type="curve"/>
      <point x="30" y="498" type="line"/>
      <point x="40" y="498" type="line"/>
      <point x="63" y="653"/>
      <point x="112" y="750"/>
      <point x="191" y="750" type="curve" smooth="yes"/>
      <point x="242" y="750"/>
      <point x="258" y="726"/>
      <point x="258" y="670" type="curve" smooth="yes"/>
      <point x="258" y="627"/>
      <point x="246" y="561"/>
      <point x="222" y="512" type="curve" smooth="yes"/>
      <point x="201" y="469"/>
      <point x="177" y="414"/>
      <point x="177" y="271" type="curve"/>
    </contour>
  </outline>
</glyph>
<glyph name="B" format="2">
  <advance width="657"/>
  <unicode hex="0042"/>
  <outline>
    <contour>
      <point x="311" y="13" type="curve" smooth="yes"/>
      <point x="259" y="13"/>
      <point x="235" y="35"/>
      <point x="235" y="84" type="curve" smooth="yes"/>
      <point x="235" y="422" type="line"/>
      <point x="297" y="422" type="line" smooth="yes"/>
      <point x="402" y="422"/>
      <point x="472" y="341"/>
      <point x="472" y="220" type="curve" smooth="yes"/>
      <point x="472" y="94"/>
      <point x="409" y="13"/>
    </contour>
    <contour>
      <point x="235" y="437" type="line"/>
      <point x="235" y="737" type="line"/>
      <point x="297" y="737" type="line" smooth="yes"/>
      <point x="365" y="737"/>
      <point x="411" y="677"/>
      <point x="411" y="586" type="curve" smooth="yes" name=".hr01"/>
      <point x="411" y="496"/>
      <point x="365" y="437"/>
      <point x="297" y="437" type="curve" smooth="yes"/>
    </contour>
    <contour>
      <point x="311" y="0" type="line" smooth="yes"/>
      <point x="503" y="0"/>
      <point x="632" y="93"/>
      <point x="632" y="232" type="curve" smooth="yes" name=".hr02"/>
      <point x="632" y="344"/>
      <point x="533" y="423"/>
      <point x="384" y="430" type="curve"/>
      <point x="491" y="444"/>
      <point x="563" y="505"/>
      <point x="563" y="582" type="curve" smooth="yes" name=".hr03"/>
      <point x="563" y="683"/>
      <point x="457" y="750"/>
      <point x="297" y="750" type="curve" smooth="yes"/>
      <point x="0" y="750" type="line"/>
      <point x="0" y="740" type="line"/>
      <point x="1" y="740" type="line" name=".hr04"/>
      <point x="47" y="740"/>
      <point x="78" y="711"/>
      <point x="81" y="666" type="curve"/>
      <point x="81" y="84" type="line" smooth="yes"/>
      <point x="81" y="40"/>
      <point x="48" y="10"/>
      <point x="1" y="10" type="curve"/>
      <point x="0" y="10" type="line"/>
      <point x="0" y="0" type="line"/>
    </contour>
  </outline>
</glyph>
<glyph name="E" format="2">
  <advance width="606"/>
  <unicode hex="0045"/>
  <outline>
    <contour>
      <point x="314" y="13" type="line" smooth="yes"/>
      <point x="267" y="13"/>
      <point x="244" y="37"/>
      <point x="244" y="84" type="curve" smooth="yes"/>
      <point x="244" y="435" type="line"/>
      <point x="323" y="435" type="line" smooth="yes"/>
      <point x="395" y="435"/>
      <point x="443" y="385"/>
      <point x="444" y="313" type="curve"/>
      <point x="454" y="313" type="line"/>
      <point x="454" y="559" type="line"/>
      <point x="444" y="559" type="line"/>
      <point x="444" y="493"/>
      <point x="400" y="448"/>
      <point x="334" y="448" type="curve" smooth="yes"/>
      <point x="244" y="448" type="line"/>
      <point x="244" y="737" type="line"/>
      <point x="328" y="737" type="line" smooth="yes"/>
      <point x="466" y="737"/>
      <point x="545" y="674"/>
      <point x="565" y="549" type="curve"/>
      <point x="575" y="549" type="line"/>
      <point x="545" y="750" type="line"/>
      <point x="9" y="750" type="line"/>
      <point x="10" y="740" type="line" name=".hr01"/>
      <point x="58" y="740"/>
      <point x="90" y="708"/>
      <point x="90" y="660" type="curve" smooth="yes"/>
      <point x="90" y="84" type="line" smooth="yes"/>
      <point x="90" y="36"/>
      <point x="58" y="10"/>
      <point x="10" y="10" type="curve"/>
      <point x="9" y="10" type="line"/>
      <point x="8" y="0" type="line"/>
      <point x="563" y="0" type="line"/>
      <point x="593" y="220" type="line"/>
      <point x="583" y="220" type="line"/>
      <point x="562" y="78"/>
      <point x="484" y="13" name=".hr02"/>
      <point x="356" y="13" type="curve" smooth="yes"/>
    </contour>
  </outline>
</glyph>
<glyph name="F" format="2">
  <advance width="569"/>
  <unicode hex="0046"/>
  <outline>
    <contour>
      <point x="319" y="10" type="line"/>
      <point x="274" y="10"/>
      <point x="239" y="38"/>
      <point x="239" y="82" type="curve" smooth="yes"/>
      <point x="239" y="423" type="line"/>
      <point x="307" y="423" type="line" smooth="yes"/>
      <point x="379" y="423"/>
      <point x="427" y="371"/>
      <point x="427" y="299" type="curve"/>
      <point x="437" y="299" type="line"/>
      <point x="437" y="549" type="line"/>
      <point x="427" y="549" type="line"/>
      <point x="427" y="483"/>
      <point x="383" y="436"/>
      <point x="317" y="436" type="curve" smooth="yes"/>
      <point x="239" y="436" type="line"/>
      <point x="239" y="737" type="line"/>
      <point x="322" y="737" type="line" smooth="yes"/>
      <point x="460" y="737"/>
      <point x="540" y="673"/>
      <point x="560" y="548" type="curve"/>
      <point x="569" y="548" type="line"/>
      <point x="539" y="750" type="line"/>
      <point x="4" y="750" type="line"/>
      <point x="5" y="740" type="line" name=".hr01"/>
      <point x="53" y="740"/>
      <point x="85" y="708"/>
      <point x="85" y="660" type="curve" smooth="yes"/>
      <point x="85" y="90" type="line" smooth="yes"/>
      <point x="85" y="42"/>
      <point x="53" y="10"/>
      <point x="5" y="10" type="curve" smooth="yes"/>
      <point x="2" y="10" type="line"/>
      <point x="0" y="0" type="line"/>
      <point x="320" y="0" type="line"/>
    </contour>
  </outline>
</glyph>
<glyph name="I" format="2">
  <advance width="317"/>
  <unicode hex="0049"/>
  <outline>
    <contour>
      <point x="316" y="10" type="line"/>
      <point x="268" y="10"/>
      <point x="236" y="42"/>
      <point x="236" y="90" type="curve" smooth="yes"/>
      <point x="236" y="660" type="line" smooth="yes"/>
      <point x="236" y="708"/>
      <point x="268" y="740"/>
      <point x="316" y="740" type="curve"/>
      <point x="317" y="740" type="line"/>
      <point x="317" y="750" type="line"/>
      <point x="0" y="750" type="line"/>
      <point x="0" y="740" type="line"/>
      <point x="1" y="740" type="line"/>
      <point x="49" y="740"/>
      <point x="81" y="708"/>
      <point x="81" y="660" type="curve" smooth="yes"/>
      <point x="81" y="90" type="line" smooth="yes"/>
      <point x="81" y="42"/>
      <point x="49" y="10"/>
      <point x="1" y="10" type="curve"/>
      <point x="0" y="10" type="line"/>
      <point x="0" y="0" type="line"/>
      <point x="317" y="0" type="line"/>
      <point x="317" y="10" type="line"/>
    </contour>
  </outline>
</glyph>
<glyph name="J" format="2">
  <advance width="314"/>
  <unicode hex="004A"/>
  <outline>
    <contour>
      <point x="233" y="660" type="line" smooth="yes"/>
      <point x="233" y="708"/>
      <point x="265" y="740"/>
      <point x="313" y="740" type="curve"/>
      <point x="314" y="740" type="line"/>
      <point x="314" y="750" type="line"/>
      <point x="0" y="750" type="line"/>
      <point x="0" y="740" type="line"/>
      <point x="2" y="740" type="line" smooth="yes"/>
      <point x="50" y="740"/>
      <point x="82" y="708"/>
      <point x="82" y="660" type="curve" smooth="yes"/>
      <point x="82" y="62" type="line" smooth="yes"/>
      <point x="82" y="-77"/>
      <point x="45" y="-173"/>
      <point x="-10" y="-178" type="curve"/>
      <point x="-9" y="-187" type="line"/>
      <point x="136" y="-174"/>
      <point x="233" y="-74"/>
      <point x="233" y="62" type="curve" smooth="yes"/>
    </contour>
  </outline>
</glyph>
<glyph name="L" format="2">
  <advance width="569"/>
  <unicode hex="004C"/>
  <outline>
    <contour>
      <point x="305" y="13" type="line" smooth="yes"/>
      <point x="253" y="13"/>
      <point x="235" y="38"/>
      <point x="235" y="80" type="curve" smooth="yes"/>
      <point x="235" y="660" type="line" smooth="yes"/>
      <point x="235" y="708"/>
      <point x="267" y="740"/>
      <point x="315" y="740" type="curve" smooth="yes"/>
      <point x="319" y="740" type="line"/>
      <point x="319" y="750" type="line"/>
      <point x="0" y="750" type="line"/>
      <point x="0" y="740" type="line"/>
      <point x="1" y="740" type="line"/>
      <point x="49" y="740"/>
      <point x="81" y="708"/>
      <point x="81" y="660" type="curve" smooth="yes"/>
      <point x="81" y="84" type="line" smooth="yes"/>
      <point x="81" y="36"/>
      <point x="49" y="10" name=".hr01"/>
      <point x="1" y="10" type="curve"/>
      <point x="0" y="10" type="line"/>
      <point x="0" y="0" type="line"/>
      <point x="533" y="0" type="line"/>
      <point x="563" y="223" type="line"/>
      <point x="553" y="223" type="line"/>
      <point x="532" y="91"/>
      <point x="444" y="13" name=".hr02"/>
      <point x="326" y="13" type="curve" smooth="yes"/>
    </contour>
  </outline>
</glyph>
<glyph name="M" format="2">
  <advance width="950"/>
  <unicode hex="004D"/>
  <outline>
    <contour>
      <point x="911" y="750" type="line"/>
      <point x="724" y="750" type="line"/>
      <point x="480" y="185" type="line"/>
      <point x="236" y="750" type="line"/>
      <point x="-4" y="750" type="line"/>
      <point x="-4" y="740" type="line"/>
      <point x="56" y="740"/>
      <point x="92" y="708"/>
      <point x="117" y="656" type="curve"/>
      <point x="67" y="103" type="line" smooth="yes"/>
      <point x="62" y="51"/>
      <point x="23" y="13"/>
      <point x="-27" y="10" type="curve"/>
      <point x="-27" y="0" type="line"/>
      <point x="173" y="0" type="line"/>
      <point x="173" y="10" type="line"/>
      <point x="123" y="13"/>
      <point x="79" y="49"/>
      <point x="84" y="102" type="curve" smooth="yes"/>
      <point x="131" y="628" type="line"/>
      <point x="411" y="-14" type="line"/>
      <point x="689" y="627" type="line"/>
      <point x="738" y="75" type="line" smooth="yes"/>
      <point x="742" y="34"/>
      <point x="700" y="9"/>
      <point x="665" y="9" type="curve"/>
      <point x="665" y="0" type="line"/>
      <point x="975" y="0" type="line"/>
      <point x="975" y="9" type="line"/>
      <point x="937" y="9"/>
      <point x="892" y="35"/>
      <point x="888" y="77" type="curve" smooth="yes"/>
      <point x="837" y="669" type="line"/>
      <point x="834" y="713"/>
      <point x="868" y="740"/>
      <point x="911" y="740" type="curve"/>
    </contour>
  </outline>
</glyph>
<glyph name="O" format="2">
  <advance width="878"/>
  <unicode hex="004F"/>
  <outline>
    <contour>
      <point x="37" y="375" type="curve" smooth="yes"/>
      <point x="37" y="142"/>
      <point x="198" y="-14"/>
      <point x="439" y="-14" type="curve" smooth="yes"/>
      <point x="680" y="-14"/>
      <point x="841" y="142"/>
      <point x="841" y="375" type="curve" smooth="yes"/>
      <point x="841" y="608"/>
      <point x="680" y="764"/>
      <point x="439" y="764" type="curve" smooth="yes"/>
      <point x="198" y="764"/>
      <point x="37" y="608"/>
    </contour>
    <contour>
      <point x="207" y="376" type="curve" smooth="yes"/>
      <point x="207" y="601"/>
      <point x="300" y="751"/>
      <point x="439" y="751" type="curve" smooth="yes"/>
      <point x="578" y="751"/>
      <point x="671" y="601"/>
      <point x="671" y="376" type="curve" smooth="yes"/>
      <point x="671" y="151"/>
      <point x="578" y="2"/>
      <point x="439" y="2" type="curve" smooth="yes"/>
      <point x="300" y="2"/>
      <point x="207" y="151"/>
    </contour>
  </outline>
</glyph>
<glyph name="P" format="2">
  <advance width="608"/>
  <unicode hex="0050"/>
  <outline>
    <contour>
      <point x="234" y="737" type="line"/>
      <point x="292" y="737" type="line" smooth="yes"/>
      <point x="376" y="737"/>
      <point x="434" y="660"/>
      <point x="434" y="547" type="curve" smooth="yes"/>
      <point x="434" y="434"/>
      <point x="377" y="357"/>
      <point x="293" y="357" type="curve" smooth="yes"/>
      <point x="234" y="357" type="line"/>
    </contour>
    <contour>
      <point x="314" y="10" type="line" smooth="yes"/>
      <point x="266" y="10"/>
      <point x="234" y="42"/>
      <point x="234" y="90" type="curve" smooth="yes"/>
      <point x="234" y="344" type="line"/>
      <point x="326" y="344" type="line" smooth="yes"/>
      <point x="485" y="344"/>
      <point x="591" y="425"/>
      <point x="591" y="547" type="curve" smooth="yes"/>
      <point x="591" y="667"/>
      <point x="488" y="748"/>
      <point x="334" y="750" type="curve"/>
      <point x="0" y="750" type="line"/>
      <point x="0" y="740" type="line" name=".hr01"/>
      <point x="48" y="740"/>
      <point x="80" y="708"/>
      <point x="80" y="660" type="curve" smooth="yes"/>
      <point x="80" y="90" type="line" smooth="yes"/>
      <point x="80" y="42"/>
      <point x="48" y="10"/>
      <point x="0" y="10" type="curve"/>
      <point x="0" y="0" type="line"/>
      <point x="316" y="0" type="line"/>
      <point x="316" y="10" type="line"/>
    </contour>
  </outline>
</glyph>
<glyph name="Q" format="2">
  <advance width="872"/>
  <unicode hex="0051"/>
  <outline>
    <contour>
      <point x="206" y="378" type="curve" smooth="yes"/>
      <point x="206" y="602"/>
      <point x="298" y="751"/>
      <point x="436" y="751" type="curve" smooth="yes"/>
      <point x="574" y="751"/>
      <point x="667" y="602"/>
      <point x="667" y="378" type="curve" smooth="yes"/>
      <point x="667" y="156"/>
      <point x="574" y="8"/>
      <point x="436" y="8" type="curve" smooth="yes"/>
      <point x="298" y="8"/>
      <point x="206" y="156"/>
    </contour>
    <contour>
      <point x="37" y="378" type="curve" smooth="yes"/>
      <point x="37" y="188"/>
      <point x="145" y="50"/>
      <point x="316" y="6" type="curve"/>
      <point x="438" y="-101"/>
      <point x="596" y="-159"/>
      <point x="730" y="-159" type="curve" smooth="yes"/>
      <point x="816" y="-159"/>
      <point x="893" y="-135"/>
      <point x="943" y="-85" type="curve"/>
      <point x="944" y="-74" type="line"/>
      <point x="907" y="-94"/>
      <point x="864" y="-104"/>
      <point x="817" y="-104" type="curve" smooth="yes"/>
      <point x="727" y="-104"/>
      <point x="626" y="-67"/>
      <point x="537" y="2" type="curve"/>
      <point x="719" y="39"/>
      <point x="835" y="180"/>
      <point x="835" y="378" type="curve" smooth="yes"/>
      <point x="835" y="610"/>
      <point x="676" y="764"/>
      <point x="436" y="764" type="curve" smooth="yes"/>
      <point x="197" y="764"/>
      <point x="37" y="610"/>
    </contour>
  </outline>
</glyph>
<glyph name="T" format="2">
  <advance width="694"/>
  <unicode hex="0054"/>
  <outline>
    <contour>
      <point x="36" y="750" type="line"/>
      <point x="8" y="548" type="line"/>
      <point x="18" y="548" type="line"/>
      <point x="41" y="698"/>
      <point x="141" y="736"/>
      <point x="241" y="736" type="curve" smooth="yes"/>
      <point x="270" y="736" type="line"/>
      <point x="270" y="90" type="line" smooth="yes"/>
      <point x="270" y="42"/>
      <point x="238" y="10"/>
      <point x="190" y="10" type="curve"/>
      <point x="189" y="10" type="line"/>
      <point x="188" y="0" type="line"/>
      <point x="506" y="0" type="line"/>
      <point x="505" y="10" type="line"/>
      <point x="457" y="10"/>
      <point x="425" y="42"/>
      <point x="425" y="90" type="curve" smooth="yes"/>
      <point x="425" y="736" type="line"/>
      <point x="451" y="736" type="line" smooth="yes"/>
      <point x="553" y="736"/>
      <point x="655" y="697"/>
      <point x="678" y="548" type="curve"/>
      <point x="688" y="548" type="line"/>
      <point x="659" y="750" type="line"/>
    </contour>
  </outline>
</glyph>
<glyph name="W" format="2">
  <advance width="1003"/>
  <unicode hex="0057"/>
  <outline>
    <contour>
      <point x="939" y="648" type="line" smooth="yes"/>
      <point x="960" y="701"/>
      <point x="992" y="740"/>
      <point x="1028" y="740" type="curve"/>
      <point x="1028" y="750" type="line"/>
      <point x="845" y="750" type="line"/>
      <point x="845" y="740" type="line"/>
      <point x="912" y="737"/>
      <point x="943" y="695"/>
      <point x="920" y="636" type="curve" smooth="yes"/>
      <point x="749" y="186" type="line"/>
      <point x="596" y="637" type="line" smooth="yes"/>
      <point x="574" y="702"/>
      <point x="592" y="740"/>
      <point x="649" y="740" type="curve" smooth="yes"/>
      <point x="653" y="740" type="line"/>
      <point x="653" y="750" type="line"/>
      <point x="332" y="750" type="line"/>
      <point x="332" y="740" type="line"/>
      <point x="334" y="740" type="line" smooth="yes"/>
      <point x="387" y="740"/>
      <point x="421" y="702"/>
      <point x="446" y="631" type="curve" smooth="yes"/>
      <point x="512" y="446" type="line"/>
      <point x="407" y="186" type="line"/>
      <point x="230" y="637" type="line" smooth="yes"/>
      <point x="205" y="701"/>
      <point x="226" y="740"/>
      <point x="286" y="740" type="curve" smooth="yes"/>
      <point x="290" y="740" type="line"/>
      <point x="290" y="750" type="line"/>
      <point x="-27" y="750" type="line"/>
      <point x="-27" y="740" type="line"/>
      <point x="-24" y="740" type="line" smooth="yes"/>
      <point x="10" y="740"/>
      <point x="44" y="702"/>
      <point x="72" y="631" type="curve" smooth="yes"/>
      <point x="330" y="-15" type="line"/>
      <point x="339" y="-15" type="line"/>
      <point x="518" y="427" type="line"/>
      <point x="676" y="-15" type="line"/>
      <point x="684" y="-15" type="line"/>
    </contour>
  </outline>
</glyph>
<glyph name="backslash" format="2">
  <advance width="253"/>
  <unicode hex="005C"/>
  <outline>
    <contour>
      <point x="243" y="-200" type="line"/>
      <point x="24" y="751" type="line"/>
      <point x="11" y="750" type="line"/>
      <point x="230" y="-201" type="line"/>
    </contour>
  </outline>
</glyph>
<glyph name="asciicircum" format="2">
  <advance width="309"/>
  <unicode hex="005E"/>
  <outline>
    <contour>
      <point x="151" y="750" type="line"/>
      <point x="24" y="488" type="line"/>
      <point x="37" y="488" type="line"/>
      <point x="155" y="729" type="line"/>
      <point x="274" y="488" type="line"/>
      <point x="287" y="488" type="line"/>
      <point x="159" y="750" type="line"/>
    </contour>
  </outline>
</glyph>
<glyph name="underscore" format="2">
  <advance width="409"/>
  <unicode hex="005F"/>
  <outline>
    <contour>
      <point x="30" y="-55" type="line"/>
      <point x="380" y="-55" type="line"/>
      <point x="380" y="-45" type="line"/>
      <point x="30" y="-45" type="line"/>
    </contour>
  </outline>
</glyph>
<glyph name="grave" format="2">
  <advance width="269"/>
  <unicode hex="0060"/>
  <outline>
    <contour>
      <point x="31" y="721" type="line"/>
      <point x="231" y="581" type="line"/>
      <point x="238" y="591" type="line"/>
      <point x="101" y="784" type="line"/>
      <point x="96" y="784" type="line"/>
      <point x="31" y="726" type="line"/>
    </contour>
  </outline>
</glyph>
<glyph name="a" format="2">
  <advance width="551"/>
  <unicode hex="0061"/>
  <outline>
    <contour>
      <point x="330" y="95" type="line"/>
      <point x="296" y="62"/>
      <point x="270" y="48"/>
      <point x="241" y="48" type="curve" smooth="yes"/>
      <point x="197" y="48"/>
      <point x="165" y="89"/>
      <point x="165" y="146" type="curve" smooth="yes"/>
      <point x="165" y="204"/>
      <point x="186" y="243"/>
      <point x="291" y="283" type="curve" smooth="yes"/>
      <point x="331" y="298" type="line"/>
    </contour>
    <contour>
      <point x="283" y="523" type="curve" smooth="yes"/>
      <point x="182" y="523"/>
      <point x="90" y="468"/>
      <point x="55" y="386" type="curve"/>
      <point x="163" y="324" type="line"/>
      <point x="175" y="439"/>
      <point x="213" y="509"/>
      <point x="263" y="510" type="curve"/>
      <point x="305" y="510"/>
      <point x="331" y="462"/>
      <point x="331" y="386" type="curve" smooth="yes"/>
      <point x="331" y="311" type="line"/>
      <point x="238" y="277" type="line" smooth="yes"/>
      <point x="62" y="213"/>
      <point x="31" y="166"/>
      <point x="31" y="106" type="curve" smooth="yes"/>
      <point x="31" y="34"/>
      <point x="85" y="-14"/>
      <point x="166" y="-14" type="curve" smooth="yes"/>
      <point x="223" y="-14"/>
      <point x="266" y="11"/>
      <point x="332" y="81" type="curve"/>
      <point x="341" y="24"/>
      <point x="381" y="-14"/>
      <point x="432" y="-14" type="curve" smooth="yes"/>
      <point x="479" y="-14"/>
      <point x="533" y="18"/>
      <point x="567" y="65" type="curve"/>
      <point x="559" y="72" type="line"/>
      <point x="544" y="55"/>
      <point x="530" y="47"/>
      <point x="514" y="47" type="curve" smooth="yes"/>
      <point x="489" y="47"/>
      <point x="474" y="68"/>
      <point x="475" y="105" type="curve"/>
      <point x="475" y="346" type="line" smooth="yes"/>
      <point x="475" y="453"/>
      <point x="398" y="523"/>
    </contour>
  </outline>
</glyph>
<glyph name="d" format="2">
  <advance width="605"/>
  <unicode hex="0064"/>
  <outline>
    <contour>
      <point x="397" y="129" type="line"/>
      <point x="377" y="73"/>
      <point x="326" y="25"/>
      <point x="280" y="25" type="curve" smooth="yes"/>
      <point x="223" y="25"/>
      <point x="195" y="98"/>
      <point x="195" y="244" type="curve" smooth="yes"/>
      <point x="195" y="413"/>
      <point x="234" y="505"/>
      <point x="304" y="505" type="curve" smooth="yes"/>
      <point x="356" y="505"/>
      <point x="391" y="453"/>
      <point x="397" y="373" type="curve"/>
    </contour>
    <contour>
      <point x="541" y="788" type="line"/>
      <point x="531" y="788" type="line"/>
      <point x="517" y="766"/>
      <point x="492" y="750"/>
      <point x="418" y="750" type="curve" smooth="yes"/>
      <point x="316" y="750" type="line"/>
      <point x="316" y="740" type="line"/>
      <point x="364" y="740"/>
      <point x="397" y="708"/>
      <point x="397" y="660" type="curve" smooth="yes"/>
      <point x="397" y="467" type="line"/>
      <point x="369" y="507"/>
      <point x="337" y="522"/>
      <point x="283" y="522" type="curve" smooth="yes"/>
      <point x="135" y="522"/>
      <point x="35" y="414"/>
      <point x="35" y="247" type="curve" smooth="yes"/>
      <point x="35" y="96"/>
      <point x="118" y="-15"/>
      <point x="225" y="-15" type="curve" smooth="yes"/>
      <point x="297" y="-15"/>
      <point x="369" y="35"/>
      <point x="400" y="104" type="curve"/>
      <point x="401" y="-38" type="line"/>
      <point x="411" y="-38" type="line"/>
      <point x="429" y="-12"/>
      <point x="462" y="0" name=".hr01"/>
      <point x="520" y="0" type="curve" smooth="yes"/>
      <point x="622" y="0" type="line"/>
      <point x="622" y="10" type="line"/>
      <point x="573" y="10"/>
      <point x="541" y="42"/>
      <point x="541" y="90" type="curve" smooth="yes"/>
    </contour>
  </outline>
</glyph>
<glyph name="e" format="2">
  <advance width="537"/>
  <unicode hex="0065"/>
  <outline>
    <contour>
      <point x="170" y="330" type="line"/>
      <point x="175" y="437"/>
      <point x="218" y="507"/>
      <point x="276" y="507" type="curve"/>
      <point x="335" y="508"/>
      <point x="373" y="437"/>
      <point x="373" y="330" type="curve"/>
    </contour>
    <contour>
      <point x="33" y="255" type="curve" smooth="yes"/>
      <point x="33" y="97"/>
      <point x="130" y="-12"/>
      <point x="269" y="-12" type="curve" smooth="yes"/>
      <point x="379" y="-12"/>
      <point x="479" y="56"/>
      <point x="513" y="161" type="curve"/>
      <point x="504" y="164" type="line"/>
      <point x="468" y="111"/>
      <point x="405" y="77"/>
      <point x="342" y="77" type="curve" smooth="yes"/>
      <point x="237" y="77"/>
      <point x="168" y="170"/>
      <point x="169" y="310" type="curve"/>
      <point x="169" y="315" type="line"/>
      <point x="505" y="315" type="line"/>
      <point x="504" y="330" type="line"/>
      <point x="500" y="444"/>
      <point x="412" y="522"/>
      <point x="287" y="522" type="curve" smooth="yes"/>
      <point x="139" y="522"/>
      <point x="33" y="414"/>
    </contour>
  </outline>
</glyph>
<glyph name="f" format="2">
  <advance width="312"/>
  <unicode hex="0066"/>
  <outline>
    <contour>
      <point x="325" y="10" type="line"/>
      <point x="265" y="10"/>
      <point x="225" y="42"/>
      <point x="225" y="90" type="curve" smooth="yes"/>
      <point x="225" y="490" type="line"/>
      <point x="350" y="490" type="line"/>
      <point x="360" y="508" type="line"/>
      <point x="225" y="508" type="line"/>
      <point x="225" y="584" type="line" smooth="yes"/>
      <point x="225" y="697"/>
      <point x="250" y="767"/>
      <point x="291" y="767" type="curve" smooth="yes"/>
      <point x="332" y="767"/>
      <point x="361" y="702"/>
      <point x="362" y="607" type="curve"/>
      <point x="482" y="675" type="line"/>
      <point x="458" y="736"/>
      <point x="378" y="780"/>
      <point x="290" y="780" type="curve" smooth="yes"/>
      <point x="162" y="780"/>
      <point x="81" y="684"/>
      <point x="81" y="531" type="curve" smooth="yes"/>
      <point x="81" y="508" type="line"/>
      <point x="6" y="508" type="line"/>
      <point x="-4" y="490" type="line"/>
      <point x="81" y="490" type="line"/>
      <point x="81" y="90" type="line" smooth="yes"/>
      <point x="81" y="42"/>
      <point x="48" y="10"/>
      <point x="0" y="10" type="curve"/>
      <point x="0" y="0" type="line"/>
      <point x="326" y="0" type="line"/>
      <point x="326" y="10" type="line"/>
    </contour>
  </outline>
</glyph>
<glyph name="g" format="2">
  <advance width="540"/>
  <unicode hex="0067"/>
  <outline>
    <contour>
      <point x="188" y="339" type="curve" smooth="yes"/>
      <point x="188" y="444"/>
      <point x="214" y="509"/>
      <point x="256" y="509" type="curve" smooth="yes"/>
      <point x="297" y="509"/>
      <point x="324" y="444"/>
      <point x="324" y="339" type="curve" smooth="yes"/>
      <point x="324" y="234"/>
      <point x="297" y="167"/>
      <point x="255" y="167" type="curve" smooth="yes"/>
      <point x="214" y="167"/>
      <point x="188" y="233"/>
    </contour>
    <contour>
      <point x="290" y="-31" type="line"/>
      <point x="392" y="-34"/>
      <point x="438" y="-58"/>
      <point x="438" y="-105" type="curve" smooth="yes" name=".hr01"/>
      <point x="438" y="-165"/>
      <point x="362" y="-211"/>
      <point x="267" y="-211" type="curve" smooth="yes"/>
      <point x="172" y="-211"/>
      <point x="117" y="-166"/>
      <point x="117" y="-97" type="curve" smooth="yes"/>
      <point x="117" y="-59"/>
      <point x="130" y="-28"/>
      <point x="158" y="-19" type="curve"/>
      <point x="185" y="-25"/>
      <point x="217" y="-28"/>
      <point x="255" y="-29" type="curve"/>
    </contour>
    <contour>
      <point x="44" y="339" type="curve" smooth="yes"/>
      <point x="44" y="263" name=".hr02"/>
      <point x="83" y="205"/>
      <point x="149" y="176" type="curve"/>
      <point x="87" y="153"/>
      <point x="50" y="113"/>
      <point x="50" y="69" type="curve" smooth="yes" name=".hr03"/>
      <point x="50" y="28"/>
      <point x="82" y="0"/>
      <point x="144" y="-16" type="curve"/>
      <point x="67" y="-36" name=".hr04"/>
      <point x="19" y="-75"/>
      <point x="19" y="-121" type="curve" smooth="yes"/>
      <point x="19" y="-183"/>
      <point x="113" y="-224"/>
      <point x="256" y="-224" type="curve" smooth="yes"/>
      <point x="430" y="-224"/>
      <point x="535" y="-164"/>
      <point x="535" y="-62" type="curve" smooth="yes"/>
      <point x="535" y="30"/>
      <point x="448" y="86"/>
      <point x="295" y="91" type="curve"/>
      <point x="260" y="93" type="line"/>
      <point x="160" y="96"/>
      <point x="129" y="105"/>
      <point x="129" y="131" type="curve" smooth="yes" name=".hr05"/>
      <point x="129" y="147"/>
      <point x="140" y="160"/>
      <point x="161" y="171" type="curve"/>
      <point x="189" y="161"/>
      <point x="221" y="155"/>
      <point x="256" y="155" type="curve" smooth="yes"/>
      <point x="383" y="155"/>
      <point x="467" y="228"/>
      <point x="467" y="339" type="curve" smooth="yes"/>
      <point x="467" y="406"/>
      <point x="437" y="459"/>
      <point x="384" y="490" type="curve"/>
      <point x="520" y="490" type="line"/>
      <point x="530" y="508" type="line"/>
      <point x="346" y="508" type="line"/>
      <point x="319" y="517"/>
      <point x="289" y="522"/>
      <point x="256" y="522" type="curve" smooth="yes"/>
      <point x="128" y="522"/>
      <point x="44" y="449"/>
    </contour>
  </outline>
</glyph>
<glyph name="h" format="2">
  <advance width="631"/>
  <unicode hex="0068"/>
  <outline>
    <contour>
      <point x="415" y="522" type="curve" smooth="yes"/>
      <point x="337" y="522"/>
      <point x="261" y="478"/>
      <point x="225" y="408" type="curve"/>
      <point x="225" y="788" type="line"/>
      <point x="215" y="788" type="line"/>
      <point x="201" y="765"/>
      <point x="172" y="750"/>
      <point x="102" y="750" type="curve" smooth="yes"/>
      <point x="0" y="750" type="line"/>
      <point x="0" y="740" type="line"/>
      <point x="48" y="740"/>
      <point x="81" y="708"/>
      <point x="81" y="660" type="curve" smooth="yes"/>
      <point x="81" y="112" type="line"/>
      <point x="80" y="59"/>
      <point x="72" y="10"/>
      <point x="0" y="10" type="curve"/>
      <point x="0" y="0" type="line"/>
      <point x="306" y="0" type="line"/>
      <point x="306" y="10" type="line"/>
      <point x="234" y="10"/>
      <point x="226" y="59"/>
      <point x="225" y="112" type="curve"/>
      <point x="225" y="382" type="line"/>
      <point x="248" y="424"/>
      <point x="296" y="482"/>
      <point x="349" y="482" type="curve" smooth="yes"/>
      <point x="404" y="482"/>
      <point x="420" y="416"/>
      <point x="420" y="372" type="curve" smooth="yes"/>
      <point x="420" y="90" type="line" smooth="yes"/>
      <point x="420" y="41"/>
      <point x="387" y="10"/>
      <point x="339" y="10" type="curve"/>
      <point x="339" y="0" type="line"/>
      <point x="644" y="0" type="line"/>
      <point x="644" y="10" type="line"/>
      <point x="596" y="10"/>
      <point x="563" y="41"/>
      <point x="563" y="90" type="curve" smooth="yes"/>
      <point x="563" y="362" type="line" smooth="yes"/>
      <point x="563" y="452"/>
      <point x="509" y="522"/>
    </contour>
  </outline>
</glyph>
<glyph name="j" format="2">
  <advance width="282"/>
  <unicode hex="006A"/>
  <outline>
    <contour>
      <point x="57" y="697" type="curve" smooth="yes"/>
      <point x="57" y="650"/>
      <point x="92" y="614"/>
      <point x="139" y="614" type="curve" smooth="yes"/>
      <point x="186" y="614"/>
      <point x="222" y="650"/>
      <point x="222" y="697" type="curve" smooth="yes"/>
      <point x="222" y="745"/>
      <point x="186" y="780"/>
      <point x="139" y="780" type="curve" smooth="yes"/>
      <point x="92" y="780"/>
      <point x="57" y="745"/>
    </contour>
    <contour>
      <point x="217" y="536" type="line"/>
      <point x="212" y="536" type="line" name=".hr01"/>
      <point x="198" y="513"/>
      <point x="164" y="508"/>
      <point x="94" y="508" type="curve" smooth="yes"/>
      <point x="-8" y="508" type="line"/>
      <point x="-8" y="498" type="line"/>
      <point x="60" y="498"/>
      <point x="72" y="466"/>
      <point x="73" y="418" type="curve"/>
      <point x="73" y="-88" type="line" smooth="yes"/>
      <point x="73" y="-163"/>
      <point x="41" y="-213"/>
      <point x="-8" y="-213" type="curve"/>
      <point x="-8" y="-224" type="line"/>
      <point x="127" y="-224"/>
      <point x="217" y="-124"/>
      <point x="217" y="25" type="curve" smooth="yes"/>
    </contour>
  </outline>
</glyph>
<glyph name="l" format="2">
  <advance width="289"/>
  <unicode hex="006C"/>
  <outline>
    <contour>
      <point x="225" y="788" type="line"/>
      <point x="215" y="788" type="line"/>
      <point x="201" y="765"/>
      <point x="172" y="750"/>
      <point x="102" y="750" type="curve" smooth="yes"/>
      <point x="0" y="750" type="line"/>
      <point x="0" y="740" type="line"/>
      <point x="48" y="740"/>
      <point x="81" y="708"/>
      <point x="81" y="660" type="curve" smooth="yes"/>
      <point x="81" y="90" type="line" smooth="yes"/>
      <point x="81" y="41"/>
      <point x="48" y="10"/>
      <point x="0" y="10" type="curve"/>
      <point x="0" y="0" type="line"/>
      <point x="306" y="0" type="line"/>
      <point x="306" y="10" type="line"/>
      <point x="258" y="10"/>
      <point x="225" y="41"/>
      <point x="225" y="90" type="curve" smooth="yes"/>
    </contour>
  </outline>
</glyph>
<glyph name="o" format="2">
  <advance width="612"/>
  <unicode hex="006F"/>
  <outline>
    <contour>
      <point x="34" y="254" type="curve" smooth="yes"/>
      <point x="34" y="92"/>
      <point x="142" y="-14"/>
      <point x="307" y="-14" type="curve" smooth="yes"/>
      <point x="471" y="-14"/>
      <point x="579" y="92"/>
      <point x="579" y="254" type="curve" smooth="yes"/>
      <point x="579" y="416"/>
      <point x="471" y="522"/>
      <point x="307" y="522" type="curve" smooth="yes"/>
      <point x="142" y="522"/>
      <point x="34" y="416"/>
    </contour>
    <contour>
      <point x="194" y="255" type="curve" smooth="yes"/>
      <point x="194" y="403"/>
      <point x="241" y="510"/>
      <point x="307" y="510" type="curve" smooth="yes"/>
      <point x="372" y="510"/>
      <point x="419" y="403"/>
      <point x="419" y="255" type="curve" smooth="yes"/>
      <point x="419" y="107"/>
      <point x="372" y="-1"/>
      <point x="306" y="-1" type="curve" smooth="yes"/>
      <point x="241" y="-1"/>
      <point x="194" y="107"/>
    </contour>
  </outline>
</glyph>
<glyph name="p" format="2">
  <advance width="599"/>
  <unicode hex="0070"/>
  <outline>
    <contour>
      <point x="208" y="390" type="line"/>
      <point x="226" y="441"/>
      <point x="276" y="483"/>
      <point x="322" y="483" type="curve" smooth="yes"/>
      <point x="381" y="483"/>
      <point x="410" y="411"/>
      <point x="410" y="265" type="curve" smooth="yes"/>
      <point x="410" y="96"/>
      <point x="372" y="3"/>
      <point x="301" y="3" type="curve" smooth="yes"/>
      <point x="244" y="3"/>
      <point x="208" y="62"/>
      <point x="208" y="157" type="curve" smooth="yes"/>
    </contour>
    <contour>
      <point x="566" y="262" type="curve" smooth="yes"/>
      <point x="566" y="414"/>
      <point x="486" y="523"/>
      <point x="375" y="523" type="curve" smooth="yes"/>
      <point x="305" y="523"/>
      <point x="237" y="479"/>
      <point x="206" y="418" type="curve"/>
      <point x="205" y="546" type="line"/>
      <point x="195" y="546" type="line"/>
      <point x="182" y="525"/>
      <point x="158" y="508" name=".hr01"/>
      <point x="82" y="508" type="curve" smooth="yes"/>
      <point x="-17" y="508" type="line"/>
      <point x="-17" y="498" type="line"/>
      <point x="41" y="498"/>
      <point x="63" y="476"/>
      <point x="64" y="418" type="curve"/>
      <point x="64" y="-120" type="line" smooth="yes"/>
      <point x="64" y="-168"/>
      <point x="32" y="-200"/>
      <point x="-16" y="-200" type="curve"/>
      <point x="-17" y="-200" type="line"/>
      <point x="-17" y="-210" type="line"/>
      <point x="289" y="-210" type="line"/>
      <point x="289" y="-200" type="line"/>
      <point x="288" y="-200" type="line"/>
      <point x="240" y="-200"/>
      <point x="208" y="-168"/>
      <point x="208" y="-120" type="curve" smooth="yes"/>
      <point x="208" y="40" type="line"/>
      <point x="236" y="1"/>
      <point x="268" y="-14"/>
      <point x="322" y="-14" type="curve" smooth="yes"/>
      <point x="470" y="-14"/>
      <point x="566" y="94"/>
    </contour>
  </outline>
</glyph>
<glyph name="r" format="2">
  <advance width="453"/>
  <unicode hex="0072"/>
  <outline>
    <contour>
      <point x="311" y="10" type="line"/>
      <point x="263" y="10"/>
      <point x="231" y="42"/>
      <point x="231" y="90" type="curve" smooth="yes"/>
      <point x="231" y="357" type="line"/>
      <point x="247" y="395"/>
      <point x="264" y="428"/>
      <point x="310" y="428" type="curve" smooth="yes"/>
      <point x="336" y="428"/>
      <point x="371" y="418"/>
      <point x="419" y="392" type="curve"/>
      <point x="458" y="509" type="line"/>
      <point x="433" y="519"/>
      <point x="410" y="523"/>
      <point x="390" y="523" type="curve" smooth="yes"/>
      <point x="301" y="523"/>
      <point x="254" y="441"/>
      <point x="229" y="382" type="curve"/>
      <point x="228" y="546" type="line"/>
      <point x="223" y="546" type="line"/>
      <point x="209" y="523"/>
      <point x="175" y="508" name=".hr01"/>
      <point x="105" y="508" type="curve" smooth="yes"/>
      <point x="6" y="508" type="line"/>
      <point x="6" y="498" type="line"/>
      <point x="74" y="498"/>
      <point x="86" y="466"/>
      <point x="87" y="418" type="curve"/>
      <point x="87" y="90" type="line" smooth="yes"/>
      <point x="87" y="42"/>
      <point x="55" y="10"/>
      <point x="7" y="10" type="curve"/>
      <point x="6" y="10" type="line"/>
      <point x="6" y="0" type="line"/>
      <point x="312" y="0" type="line"/>
      <point x="312" y="10" type="line"/>
    </contour>
  </outline>
</glyph>
<glyph name="s" format="2">
  <advance width="416"/>
  <unicode hex="0073"/>
  <outline>
    <contour>
      <point x="226" y="508" type="curve" smooth="yes"/>
      <point x="284" y="508"/>
      <point x="345" y="441"/>
      <point x="358" y="347" type="curve"/>
      <point x="370" y="347" type="line"/>
      <point x="356" y="508" type="line"/>
      <point x="276" y="508"/>
      <point x="273" y="522" name=".hr01"/>
      <point x="219" y="522" type="curve"/>
      <point x="110" y="523"/>
      <point x="37" y="467"/>
      <point x="37" y="376" type="curve" smooth="yes"/>
      <point x="37" y="313"/>
      <point x="72" y="255"/>
      <point x="145" y="214" type="curve" smooth="yes"/>
      <point x="174" y="198" type="line" smooth="yes"/>
      <point x="268" y="146"/>
      <point x="301" y="122"/>
      <point x="301" y="77" type="curve" smooth="yes"/>
      <point x="301" y="29"/>
      <point x="264" y="-1"/>
      <point x="197" y="-1" type="curve" smooth="yes"/>
      <point x="134" y="-1"/>
      <point x="61" y="56"/>
      <point x="41" y="188" type="curve"/>
      <point x="28" y="188" type="line"/>
      <point x="52" y="0" type="line"/>
      <point x="153" y="0"/>
      <point x="140" y="-14"/>
      <point x="204" y="-14" type="curve"/>
      <point x="328" y="-13"/>
      <point x="392" y="42"/>
      <point x="392" y="144" type="curve" smooth="yes"/>
      <point x="392" y="225"/>
      <point x="351" y="271"/>
      <point x="258" y="319" type="curve" smooth="yes"/>
      <point x="228" y="334" type="line" smooth="yes"/>
      <point x="162" y="369"/>
      <point x="143" y="396"/>
      <point x="143" y="432" type="curve" smooth="yes"/>
      <point x="143" y="480"/>
      <point x="175" y="508"/>
    </contour>
  </outline>
</glyph>
<glyph name="t" format="2">
  <advance width="396"/>
  <unicode hex="0074"/>
  <outline>
    <contour>
      <point x="366" y="490" type="line"/>
      <point x="376" y="508" type="line"/>
      <point x="243" y="508" type="line"/>
      <point x="243" y="652" type="line"/>
      <point x="227" y="652" type="line"/>
      <point x="181" y="565"/>
      <point x="105" y="509"/>
      <point x="14" y="503" type="curve"/>
      <point x="14" y="490" type="line"/>
      <point x="99" y="490" type="line"/>
      <point x="99" y="105" type="line" smooth="yes"/>
      <point x="99" y="35"/>
      <point x="148" y="-14"/>
      <point x="217" y="-14" type="curve" smooth="yes"/>
      <point x="274" y="-14"/>
      <point x="339" y="22"/>
      <point x="383" y="77" type="curve"/>
      <point x="383" y="87" type="line"/>
      <point x="355" y="63"/>
      <point x="321" y="47"/>
      <point x="297" y="47" type="curve" smooth="yes"/>
      <point x="262" y="47"/>
      <point x="243" y="75"/>
      <point x="243" y="127" type="curve" smooth="yes"/>
      <point x="243" y="490" type="line"/>
    </contour>
  </outline>
</glyph>
<glyph name="u" format="2">
  <advance width="612"/>
  <unicode hex="0075"/>
  <outline>
    <contour>
      <point x="405" y="418" type="curve" smooth="yes"/>
      <point x="405" y="124" type="line"/>
      <point x="372" y="65"/>
      <point x="324" y="26"/>
      <point x="283" y="26" type="curve" smooth="yes"/>
      <point x="240" y="26"/>
      <point x="211" y="70"/>
      <point x="211" y="136" type="curve" smooth="yes"/>
      <point x="211" y="546" type="line"/>
      <point x="201" y="546" type="line"/>
      <point x="187" y="523"/>
      <point x="158" y="508"/>
      <point x="88" y="508" type="curve" smooth="yes"/>
      <point x="-13" y="508" type="line"/>
      <point x="-13" y="498" type="line"/>
      <point x="56" y="498"/>
      <point x="68" y="466"/>
      <point x="68" y="418" type="curve" smooth="yes"/>
      <point x="68" y="146" type="line" smooth="yes"/>
      <point x="68" y="50"/>
      <point x="127" y="-14"/>
      <point x="216" y="-14" type="curve" smooth="yes"/>
      <point x="295" y="-14"/>
      <point x="372" y="33"/>
      <point x="407" y="101" type="curve"/>
      <point x="408" y="-28" type="line"/>
      <point x="413" y="-28" type="line"/>
      <point x="427" y="-6"/>
      <point x="460" y="0" name=".hr01"/>
      <point x="530" y="0" type="curve" smooth="yes"/>
      <point x="629" y="0" type="line"/>
      <point x="629" y="9" type="line"/>
      <point x="581" y="9"/>
      <point x="549" y="42"/>
      <point x="549" y="90" type="curve"/>
      <point x="550" y="546" type="line"/>
      <point x="540" y="546" type="line"/>
      <point x="526" y="523"/>
      <point x="496" y="508"/>
      <point x="426" y="508" type="curve" smooth="yes"/>
      <point x="325" y="508" type="line"/>
      <point x="325" y="498" type="line"/>
      <point x="383" y="498"/>
      <point x="405" y="466"/>
    </contour>
  </outline>
</glyph>
<glyph name="v" format="2">
  <advance width="475"/>
  <unicode hex="0076"/>
  <outline>
    <contour>
      <point x="422" y="402" type="line" smooth="yes"/>
      <point x="447" y="458"/>
      <point x="481" y="490"/>
      <point x="515" y="498" type="curve"/>
      <point x="515" y="508" type="line"/>
      <point x="357" y="508" type="line"/>
      <point x="357" y="498" type="line"/>
      <point x="393" y="494"/>
      <point x="414" y="471"/>
      <point x="414" y="438" type="curve" smooth="yes"/>
      <point x="414" y="425"/>
      <point x="411" y="410"/>
      <point x="404" y="393" type="curve" smooth="yes"/>
      <point x="302" y="158" type="line"/>
      <point x="199" y="399" type="line" smooth="yes"/>
      <point x="176" y="453"/>
      <point x="191" y="493"/>
      <point x="238" y="498" type="curve"/>
      <point x="238" y="508" type="line"/>
      <point x="-42" y="508" type="line"/>
      <point x="-42" y="498" type="line"/>
      <point x="-4" y="497"/>
      <point x="17" y="475"/>
      <point x="30" y="444" type="curve" smooth="yes"/>
      <point x="229" y="-16" type="line"/>
      <point x="238" y="-16" type="line"/>
    </contour>
  </outline>
</glyph>
<glyph name="x" format="2">
  <advance width="496"/>
  <unicode hex="0078"/>
  <outline>
    <contour>
      <point x="508" y="0" type="line"/>
      <point x="508" y="10" type="line"/>
      <point x="483" y="13"/>
      <point x="469" y="25"/>
      <point x="447" y="61" type="curve" smooth="yes"/>
      <point x="393" y="150"/>
      <point x="348" y="224"/>
      <point x="301" y="303" type="curve"/>
      <point x="382" y="415" type="line" smooth="yes"/>
      <point x="426" y="476"/>
      <point x="457" y="494"/>
      <point x="494" y="498" type="curve"/>
      <point x="494" y="508" type="line"/>
      <point x="349" y="508" type="line"/>
      <point x="349" y="498" type="line"/>
      <point x="389" y="496"/>
      <point x="394" y="456"/>
      <point x="361" y="409" type="curve" smooth="yes"/>
      <point x="294" y="315" type="line"/>
      <point x="275" y="346"/>
      <point x="257" y="378"/>
      <point x="237" y="412" type="curve" smooth="yes"/>
      <point x="214" y="451"/>
      <point x="211" y="496"/>
      <point x="255" y="498" type="curve"/>
      <point x="255" y="508" type="line"/>
      <point x="-5" y="508" type="line"/>
      <point x="-5" y="498" type="line"/>
      <point x="22" y="495"/>
      <point x="35" y="482"/>
      <point x="64" y="436" type="curve" smooth="yes"/>
      <point x="111" y="359"/>
      <point x="151" y="293"/>
      <point x="192" y="224" type="curve"/>
      <point x="97" y="93" type="line" smooth="yes"/>
      <point x="53" y="32"/>
      <point x="22" y="14"/>
      <point x="-5" y="10" type="curve"/>
      <point x="-5" y="0" type="line"/>
      <point x="140" y="0" type="line"/>
      <point x="140" y="10" type="line"/>
      <point x="94" y="12"/>
      <point x="81" y="47"/>
      <point x="111" y="89" type="curve" smooth="yes"/>
      <point x="199" y="213" type="line"/>
      <point x="221" y="176"/>
      <point x="244" y="138"/>
      <point x="267" y="97" type="curve" smooth="yes"/>
      <point x="296" y="48"/>
      <point x="289" y="12"/>
      <point x="248" y="10" type="curve"/>
      <point x="248" y="0" type="line"/>
    </contour>
  </outline>
</glyph>
<glyph name="bar" format="2">
  <advance width="71"/>
  <unicode hex="007C"/>
  <outline>
    <contour>
      <point x="30" y="-70" type="line"/>
      <point x="40" y="-70" type="line"/>
      <point x="40" y="820" type="line"/>
      <point x="30" y="820" type="line"/>
    </contour>
  </outline>
</glyph>
<glyph name="asciitilde" format="2">
  <advance width="512"/>
  <unicode hex="007E"/>
  <outline>
    <contour>
      <point x="451" y="399" type="line"/>
      <point x="434" y="364"/>
      <point x="405" y="339"/>
      <point x="376" y="339" type="curve" smooth="yes"/>
      <point x="310" y="339"/>
      <point x="251" y="407"/>
      <point x="178" y="407" type="curve" smooth="yes"/>
      <point x="129" y="407"/>
      <point x="84" y="348"/>
      <point x="51" y="282" type="curve"/>
      <point x="62" y="282" type="line"/>
      <point x="76" y="313"/>
      <point x="117" y="341"/>
      <point x="147" y="341" type="curve" smooth="yes"/>
      <point x="212" y="341"/>
      <point x="271" y="273"/>
      <point x="345" y="273" type="curve" smooth="yes"/>
      <point x="400" y="273"/>
      <point x="439" y="333"/>
      <point x="461" y="399" type="curve"/>
    </contour>
  </outline>
</glyph>
<glyph name="exclamdown" format="2">
  <advance width="269"/>
  <unicode hex="00A1"/>
  <outline>
    <contour>
      <point x="52" y="-128" type="curve" smooth="yes"/>
      <point x="52" y="-180"/>
      <point x="86" y="-214"/>
      <point x="137" y="-214" type="curve" smooth="yes"/>
      <point x="188" y="-214"/>
      <point x="222" y="-180"/>
      <point x="222" y="-128" type="curve" smooth="yes"/>
      <point x="222" y="-47"/>
      <point x="141" y="22"/>
      <point x="143" y="269" type="curve"/>
      <point x="133" y="269" type="line"/>
      <point x="136" y="22"/>
      <point x="52" y="-47"/>
    </contour>
    <contour>
      <point x="224" y="436" type="curve" smooth="yes"/>
      <point x="224" y="390"/>
      <point x="186" y="352"/>
      <point x="139" y="352" type="curve" smooth="yes"/>
      <point x="93" y="352"/>
      <point x="54" y="390"/>
      <point x="54" y="436" type="curve" smooth="yes"/>
      <point x="54" y="483"/>
      <point x="93" y="522"/>
      <point x="139" y="522" type="curve" smooth="yes"/>
      <point x="185" y="522"/>
      <point x="224" y="483"/>
    </contour>
  </outline>
</glyph>
<glyph name="brokenbar" format="2">
  <advance width="71"/>
  <unicode hex="00A6"/>
  <outline>
    <contour>
      <point x="40" y="410" type="line"/>
      <point x="40" y="820" type="line"/>
      <point x="30" y="820" type="line"/>
      <point x="30" y="410" type="line"/>
    </contour>
    <contour>
      <point x="30" y="290" type="line"/>
      <point x="30" y="-70" type="line"/>
      <point x="40" y="-70" type="line"/>
      <point x="40" y="290" type="line"/>
    </contour>
  </outline>
</glyph>
<glyph name="section" format="2">
  <advance width="513"/>
  <unicode hex="00A7"/>
  <outline>
    <contour>
      <point x="307" y="153" type="curve"/>
      <point x="293" y="163"/>
      <point x="279" y="172"/>
      <point x="264" y="181" type="curve"/>
      <point x="177" y="230"/>
      <point x="126" y="288"/>
      <point x="126" y="337" type="curve" smooth="yes"/>
      <point x="126" y="371"/>
      <point x="150" y="407"/>
      <point x="183" y="425" type="curve"/>
      <point x="190" y="421"/>
      <point x="196" y="418"/>
      <point x="203" y="414" type="curve" smooth="yes"/>
      <point x="294" y="364"/>
      <point x="355" y="291"/>
      <point x="355" y="235" type="curve" smooth="yes"/>
      <point x="355" y="203"/>
      <point x="336" y="171"/>
    </contour>
    <contour>
      <point x="59" y="-171" type="line"/>
      <point x="170" y="-171"/>
      <point x="156" y="-186"/>
      <point x="218" y="-186" type="curve" smooth="yes"/>
      <point x="344" y="-186"/>
      <point x="433" y="-123"/>
      <point x="433" y="-34" type="curve" smooth="yes"/>
      <point x="433" y="27"/>
      <point x="391" y="91"/>
      <point x="317" y="146" type="curve"/>
      <point x="385" y="171"/>
      <point x="433" y="241"/>
      <point x="433" y="318" type="curve" smooth="yes"/>
      <point x="433" y="400"/>
      <point x="378" y="473"/>
      <point x="274" y="531" type="curve"/>
      <point x="196" y="573"/>
      <point x="159" y="618"/>
      <point x="159" y="668" type="curve" smooth="yes" name=".hr01"/>
      <point x="159" y="716"/>
      <point x="194" y="749"/>
      <point x="245" y="749" type="curve" smooth="yes"/>
      <point x="320" y="749"/>
      <point x="381" y="678"/>
      <point x="396" y="572" type="curve"/>
      <point x="406" y="572" type="line"/>
      <point x="397" y="749" type="line"/>
      <point x="309" y="749"/>
      <point x="302" y="764"/>
      <point x="242" y="764" type="curve" smooth="yes"/>
      <point x="125" y="764"/>
      <point x="43" y="705"/>
      <point x="43" y="621" type="curve" smooth="yes"/>
      <point x="43" y="557"/>
      <point x="90" y="488"/>
      <point x="168" y="435" type="curve"/>
      <point x="94" y="411"/>
      <point x="43" y="344"/>
      <point x="43" y="271" type="curve" smooth="yes"/>
      <point x="43" y="195"/>
      <point x="97" y="121"/>
      <point x="196" y="62" type="curve" smooth="yes"/>
      <point x="280" y="12"/>
      <point x="333" y="-48"/>
      <point x="333" y="-94" type="curve" smooth="yes"/>
      <point x="333" y="-138"/>
      <point x="287" y="-171"/>
      <point x="228" y="-171" type="curve" smooth="yes"/>
      <point x="136" y="-171"/>
      <point x="62" y="-90"/>
      <point x="43" y="36" type="curve"/>
      <point x="33" y="36" type="line"/>
    </contour>
  </outline>
</glyph>
<glyph name="copyright" format="2">
  <advance width="860"/>
  <unicode hex="00A9"/>
  <outline>
    <contour>
      <point x="798" y="375" type="curve"/>
      <point x="801" y="182"/>
      <point x="622" y="3"/>
      <point x="430" y="7" type="curve"/>
      <point x="238" y="3"/>
      <point x="59" y="182"/>
      <point x="62" y="375" type="curve"/>
      <point x="59" y="568"/>
      <point x="238" y="746"/>
      <point x="430" y="743" type="curve"/>
      <point x="622" y="746"/>
      <point x="801" y="568"/>
    </contour>
    <contour>
      <point x="597" y="612" type="line"/>
      <point x="533" y="612"/>
      <point x="518" y="622"/>
      <point x="462" y="622" type="curve" smooth="yes"/>
      <point x="287" y="622"/>
      <point x="173" y="525"/>
      <point x="173" y="376" type="curve" smooth="yes"/>
      <point x="173" y="227"/>
      <point x="286" y="128"/>
      <point x="454" y="128" type="curve" smooth="yes"/>
      <point x="512" y="128"/>
      <point x="541" y="139"/>
      <point x="603" y="139" type="curve"/>
      <point x="626" y="286" type="line"/>
      <point x="616" y="286" type="line"/>
      <point x="596" y="192"/>
      <point x="534" y="141"/>
      <point x="456" y="141" type="curve" smooth="yes"/>
      <point x="352" y="141"/>
      <point x="283" y="231"/>
      <point x="283" y="371" type="curve" smooth="yes"/>
      <point x="283" y="513"/>
      <point x="353" y="610"/>
      <point x="453" y="610" type="curve" smooth="yes"/>
      <point x="532" y="610"/>
      <point x="594" y="550"/>
      <point x="611" y="464" type="curve"/>
      <point x="621" y="464" type="line"/>
    </contour>
    <contour>
      <point x="38" y="375" type="curve"/>
      <point x="33" y="166"/>
      <point x="216" y="-18"/>
      <point x="430" y="-14" type="curve"/>
      <point x="644" y="-18"/>
      <point x="827" y="166"/>
      <point x="822" y="375" type="curve"/>
      <point x="827" y="585"/>
      <point x="643" y="767"/>
      <point x="430" y="764" type="curve"/>
      <point x="216" y="767"/>
      <point x="33" y="585"/>
    </contour>
  </outline>
</glyph>
<glyph name="guillemotleft" format="2">
  <advance width="349"/>
  <unicode hex="00AB"/>
  <outline>
    <contour>
      <point x="170" y="261" type="line"/>
      <point x="166" y="257"/>
      <point x="166" y="251"/>
      <point x="170" y="247" type="curve"/>
      <point x="312" y="96" type="line"/>
      <point x="319" y="103" type="line"/>
      <point x="240" y="254" type="line"/>
      <point x="319" y="405" type="line"/>
      <point x="312" y="412" type="line"/>
    </contour>
    <contour>
      <point x="33" y="261" type="line"/>
      <point x="29" y="257"/>
      <point x="29" y="251"/>
      <point x="33" y="247" type="curve"/>
      <point x="175" y="96" type="line"/>
      <point x="182" y="103" type="line"/>
      <point x="103" y="254" type="line"/>
      <point x="182" y="405" type="line"/>
      <point x="175" y="412" type="line"/>
    </contour>
  </outline>
</glyph>
<glyph name="registered" format="2">
  <advance width="414"/>
  <unicode hex="00AE"/>
  <outline>
    <contour>
      <point x="33" y="565" type="curve" smooth="yes"/>
      <point x="33" y="673"/>
      <point x="101" y="743"/>
      <point x="207" y="743" type="curve" smooth="yes"/>
      <point x="313" y="743"/>
      <point x="381" y="673"/>
      <point x="381" y="565" type="curve" smooth="yes"/>
      <point x="381" y="458"/>
      <point x="313" y="389"/>
      <point x="207" y="389" type="curve" smooth="yes"/>
      <point x="101" y="389"/>
      <point x="33" y="458"/>
    </contour>
    <contour>
      <point x="180" y="677" type="line"/>
      <point x="197" y="677" type="line" smooth="yes" name=".hr01"/>
      <point x="222" y="677"/>
      <point x="238" y="657"/>
      <point x="238" y="623" type="curve" smooth="yes"/>
      <point x="238" y="589"/>
      <point x="221" y="569"/>
      <point x="195" y="569" type="curve" smooth="yes"/>
      <point x="180" y="569" type="line"/>
    </contour>
    <contour>
      <point x="13" y="565" type="curve" smooth="yes"/>
      <point x="13" y="449"/>
      <point x="90" y="372"/>
      <point x="207" y="372" type="curve" smooth="yes"/>
      <point x="323" y="372"/>
      <point x="401" y="449"/>
      <point x="401" y="565" type="curve" smooth="yes"/>
      <point x="401" y="682"/>
      <point x="323" y="760"/>
      <point x="207" y="760" type="curve" smooth="yes"/>
      <point x="90" y="760"/>
      <point x="13" y="682"/>
    </contour>
    <contour>
      <point x="180" y="563" type="line"/>
      <point x="183" y="563" type="line" smooth="yes"/>
      <point x="194" y="563"/>
      <point x="198" y="559"/>
      <point x="209" y="537" type="curve"/>
      <point x="239" y="481" type="line"/>
      <point x="243" y="471"/>
      <point x="250" y="459"/>
      <point x="256" y="450" type="curve"/>
      <point x="318" y="450" type="line"/>
      <point x="318" y="457" type="line"/>
      <point x="308" y="457"/>
      <point x="297" y="466"/>
      <point x="289" y="479" type="curve"/>
      <point x="257" y="535" type="line"/>
      <point x="249" y="551"/>
      <point x="238" y="562"/>
      <point x="231" y="564" type="curve"/>
      <point x="261" y="568"/>
      <point x="281" y="592"/>
      <point x="281" y="622" type="curve" smooth="yes"/>
      <point x="281" y="659"/>
      <point x="253" y="683"/>
      <point x="210" y="683" type="curve" smooth="yes"/>
      <point x="110" y="683" type="line" name=".hr02"/>
      <point x="110" y="676" type="line"/>
      <point x="124" y="676"/>
      <point x="134" y="666"/>
      <point x="134" y="652" type="curve" smooth="yes"/>
      <point x="134" y="478" type="line" smooth="yes"/>
      <point x="134" y="465"/>
      <point x="124" y="457"/>
      <point x="110" y="457" type="curve"/>
      <point x="110" y="450" type="line"/>
      <point x="205" y="450" type="line"/>
      <point x="205" y="457" type="line"/>
      <point x="190" y="457"/>
      <point x="180" y="465"/>
      <point x="180" y="478" type="curve" smooth="yes"/>
    </contour>
  </outline>
</glyph>
<glyph name="degree" format="2">
  <advance width="304"/>
  <unicode hex="00B0"/>
  <outline>
    <contour>
      <point x="59" y="671" type="curve" smooth="yes"/>
      <point x="59" y="723"/>
      <point x="101" y="766"/>
      <point x="152" y="766" type="curve" smooth="yes"/>
      <point x="203" y="766"/>
      <point x="246" y="723"/>
      <point x="246" y="671" type="curve" smooth="yes"/>
      <point x="246" y="621"/>
      <point x="203" y="577"/>
      <point x="152" y="577" type="curve" smooth="yes"/>
      <point x="101" y="577"/>
      <point x="59" y="621"/>
    </contour>
    <contour>
      <point x="34" y="671" type="curve" smooth="yes"/>
      <point x="34" y="608"/>
      <point x="88" y="558"/>
      <point x="152" y="558" type="curve" smooth="yes"/>
      <point x="216" y="558"/>
      <point x="270" y="608"/>
      <point x="270" y="671" type="curve" smooth="yes"/>
      <point x="270" y="737"/>
      <point x="216" y="785"/>
      <point x="152" y="785" type="curve" smooth="yes"/>
      <point x="88" y="785"/>
      <point x="34" y="737"/>
    </contour>
  </outline>
</glyph>
<glyph name="plusminus" format="2">
  <advance width="421"/>
  <unicode hex="00B1"/>
  <outline>
    <contour>
      <point x="45" y="134" type="line"/>
      <point x="375" y="134" type="line"/>
      <point x="375" y="144" type="line"/>
      <point x="45" y="144" type="line"/>
    </contour>
    <contour>
      <point x="216" y="384" type="line"/>
      <point x="216" y="544" type="line"/>
      <point x="206" y="544" type="line"/>
      <point x="206" y="384" type="line"/>
      <point x="46" y="384" type="line"/>
      <point x="46" y="374" type="line"/>
      <point x="206" y="374" type="line"/>
      <point x="206" y="214" type="line"/>
      <point x="216" y="214" type="line"/>
      <point x="216" y="374" type="line"/>
      <point x="376" y="374" type="line"/>
      <point x="376" y="384" type="line"/>
    </contour>
  </outline>
</glyph>
<glyph name="twosuperior" format="2">
  <advance width="351"/>
  <unicode hex="00B2"/>
  <outline>
    <contour>
      <point x="46" y="351" type="line"/>
      <point x="284" y="351" type="line"/>
      <point x="304" y="472" type="line"/>
      <point x="295" y="472" type="line"/>
      <point x="288" y="424"/>
      <point x="275" y="422"/>
      <point x="229" y="423" type="curve"/>
      <point x="111" y="423" type="line"/>
      <point x="227" y="510"/>
      <point x="304" y="611"/>
      <point x="304" y="675" type="curve" smooth="yes"/>
      <point x="304" y="728"/>
      <point x="249" y="764"/>
      <point x="174" y="764" type="curve" smooth="yes"/>
      <point x="142" y="764"/>
      <point x="110" y="756"/>
      <point x="81" y="756" type="curve"/>
      <point x="64" y="644" type="line"/>
      <point x="74" y="644" type="line"/>
      <point x="81" y="688"/>
      <point x="112" y="757"/>
      <point x="166" y="757" type="curve" smooth="yes"/>
      <point x="196" y="757"/>
      <point x="220" y="727"/>
      <point x="220" y="682" type="curve" smooth="yes"/>
      <point x="220" y="616"/>
      <point x="150" y="489"/>
      <point x="46" y="361" type="curve"/>
    </contour>
  </outline>
</glyph>
<glyph name="threesuperior" format="2">
  <advance width="343"/>
  <unicode hex="00B3"/>
  <outline>
    <contour>
      <point x="300" y="483" type="curve" smooth="yes"/>
      <point x="300" y="564"/>
      <point x="254" y="615"/>
      <point x="185" y="609" type="curve"/>
      <point x="236" y="628"/>
      <point x="268" y="663" name=".hr01"/>
      <point x="268" y="697" type="curve" smooth="yes"/>
      <point x="268" y="737"/>
      <point x="226" y="764"/>
      <point x="165" y="764" type="curve" smooth="yes"/>
      <point x="130" y="764"/>
      <point x="109" y="756"/>
      <point x="73" y="756" type="curve"/>
      <point x="56" y="643" type="line"/>
      <point x="65" y="643" type="line"/>
      <point x="75" y="713"/>
      <point x="110" y="752"/>
      <point x="155" y="752" type="curve" smooth="yes"/>
      <point x="177" y="752"/>
      <point x="187" y="742"/>
      <point x="187" y="707" type="curve" smooth="yes"/>
      <point x="187" y="656"/>
      <point x="164" y="617"/>
      <point x="110" y="577" type="curve"/>
      <point x="110" y="567" type="line"/>
      <point x="126" y="576"/>
      <point x="142" y="580"/>
      <point x="156" y="580" type="curve" smooth="yes"/>
      <point x="195" y="580"/>
      <point x="222" y="544" name=".hr02"/>
      <point x="222" y="479" type="curve" smooth="yes"/>
      <point x="222" y="403"/>
      <point x="186" y="356"/>
      <point x="143" y="356" type="curve" smooth="yes"/>
      <point x="100" y="356"/>
      <point x="64" y="399"/>
      <point x="55" y="472" type="curve"/>
      <point x="46" y="472" type="line"/>
      <point x="63" y="351" type="line"/>
      <point x="97" y="351"/>
      <point x="117" y="344"/>
      <point x="151" y="344" type="curve" smooth="yes"/>
      <point x="237" y="344"/>
      <point x="300" y="399"/>
    </contour>
  </outline>
</glyph>
<glyph name="periodcentered" format="2">
  <advance width="231"/>
  <unicode hex="00B7"/>
  <outline>
    <contour>
      <point x="31" y="254" type="curve" smooth="yes"/>
      <point x="31" y="208"/>
      <point x="70" y="169"/>
      <point x="116" y="169" type="curve" smooth="yes"/>
      <point x="162" y="169"/>
      <point x="201" y="208"/>
      <point x="201" y="254" type="curve" smooth="yes"/>
      <point x="201" y="301"/>
      <point x="162" y="339"/>
      <point x="116" y="339" type="curve" smooth="yes"/>
      <point x="70" y="339"/>
      <point x="31" y="301"/>
    </contour>
  </outline>
</glyph>
<glyph name="onesuperior" format="2">
  <advance width="279"/>
  <unicode hex="00B9"/>
  <outline>
    <contour>
      <point x="193" y="400" type="curve" smooth="yes"/>
      <point x="193" y="764" type="line"/>
      <point x="183" y="764" type="line"/>
      <point x="176" y="731"/>
      <point x="130" y="683"/>
      <point x="59" y="683" type="curve" smooth="yes"/>
      <point x="46" y="683" type="line"/>
      <point x="46" y="673" type="line"/>
      <point x="98" y="670"/>
      <point x="103" y="650"/>
      <point x="103" y="604" type="curve" smooth="yes"/>
      <point x="103" y="400" type="line" smooth="yes"/>
      <point x="103" y="374"/>
      <point x="85" y="361"/>
      <point x="59" y="361" type="curve"/>
      <point x="59" y="351" type="line"/>
      <point x="237" y="351" type="line"/>
      <point x="237" y="361" type="line"/>
      <point x="211" y="361"/>
      <point x="193" y="374"/>
    </contour>
  </outline>
</glyph>
<glyph name="guillemotright" format="2">
  <advance width="350"/>
  <unicode hex="00BB"/>
  <outline>
    <contour>
      <point x="317" y="247" type="line"/>
      <point x="321" y="251"/>
      <point x="321" y="257"/>
      <point x="317" y="261" type="curve"/>
      <point x="175" y="412" type="line"/>
      <point x="168" y="405" type="line"/>
      <point x="247" y="254" type="line"/>
      <point x="168" y="103" type="line"/>
      <point x="175" y="96" type="line"/>
    </contour>
    <contour>
      <point x="179" y="247" type="line"/>
      <point x="183" y="251"/>
      <point x="183" y="257"/>
      <point x="179" y="261" type="curve"/>
      <point x="38" y="412" type="line"/>
      <point x="31" y="405" type="line"/>
      <point x="110" y="254" type="line"/>
      <point x="31" y="103" type="line"/>
      <point x="38" y="96" type="line"/>
    </contour>
  </outline>
</glyph>
<glyph name="onequarter" format="2">
  <advance width="697"/>
  <unicode hex="00BC"/>
  <outline>
    <contour>
      <point x="475" y="160" type="line"/>
      <point x="371" y="160" type="line"/>
      <point x="475" y="303" type="line"/>
    </contour>
    <contour>
      <point x="315" y="97" type="line"/>
      <point x="315" y="92" type="line" name=".hr01"/>
      <point x="319" y="92" type="line"/>
      <point x="475" y="92" type="line"/>
      <point x="475" y="47" type="line"/>
      <point x="474" y="22"/>
      <point x="456" y="6"/>
      <point x="431" y="6" type="curve"/>
      <point x="430" y="0" type="line" name=".hr02"/>
      <point x="603" y="0" type="line"/>
      <point x="602" y="6" type="line"/>
      <point x="575" y="6"/>
      <point x="558" y="23"/>
      <point x="558" y="50" type="curve" smooth="yes"/>
      <point x="558" y="92" type="line" name=".hr03"/>
      <point x="621" y="92" type="line"/>
      <point x="621" y="160" type="line"/>
      <point x="558" y="160" type="line"/>
      <point x="558" y="424" type="line"/>
      <point x="552" y="424" type="line"/>
    </contour>
    <contour>
      <point x="194" y="764" type="line"/>
      <point x="186" y="731"/>
      <point x="140" y="683"/>
      <point x="69" y="683" type="curve" smooth="yes"/>
      <point x="55" y="683" type="line"/>
      <point x="55" y="673" type="line"/>
      <point x="108" y="670"/>
      <point x="113" y="649"/>
      <point x="113" y="604" type="curve" smooth="yes"/>
      <point x="113" y="400" type="line" smooth="yes"/>
      <point x="113" y="374"/>
      <point x="95" y="361"/>
      <point x="69" y="361" type="curve"/>
      <point x="69" y="351" type="line"/>
      <point x="247" y="351" type="line"/>
      <point x="247" y="361" type="line"/>
      <point x="221" y="361"/>
      <point x="203" y="374"/>
      <point x="203" y="400" type="curve" smooth="yes"/>
      <point x="203" y="764" type="line"/>
    </contour>
    <contour>
      <point x="628" y="750" type="line"/>
      <point x="613" y="750" type="line"/>
      <point x="89" y="0" type="line" name=".hr04"/>
      <point x="104" y="0" type="line"/>
    </contour>
  </outline>
</glyph>
<glyph name="onehalf" format="2">
  <advance width="735"/>
  <unicode hex="00BD"/>
  <outline>
    <contour>
      <point x="203" y="764" type="line"/>
      <point x="193" y="764" type="line"/>
      <point x="184" y="720"/>
      <point x="127" y="683"/>
      <point x="69" y="683" type="curve" smooth="yes"/>
      <point x="56" y="683" type="line"/>
      <point x="56" y="673" type="line"/>
      <point x="102" y="671"/>
      <point x="113" y="657"/>
      <point x="113" y="604" type="curve" smooth="yes"/>
      <point x="113" y="400" type="line" smooth="yes"/>
      <point x="113" y="375"/>
      <point x="96" y="361"/>
      <point x="69" y="361" type="curve"/>
      <point x="69" y="351" type="line"/>
      <point x="247" y="351" type="line"/>
      <point x="247" y="361" type="line"/>
      <point x="219" y="361"/>
      <point x="203" y="375"/>
      <point x="203" y="400" type="curve" smooth="yes"/>
    </contour>
    <contour>
      <point x="89" y="0" type="line"/>
      <point x="104" y="0" type="line"/>
      <point x="628" y="750" type="line"/>
      <point x="613" y="750" type="line"/>
    </contour>
    <contour>
      <point x="687" y="143" type="line"/>
      <point x="679" y="143" type="line"/>
      <point x="672" y="91"/>
      <point x="664" y="84"/>
      <point x="605" y="84" type="curve" smooth="yes"/>
      <point x="472" y="84" type="line"/>
      <point x="633" y="187"/>
      <point x="682" y="237"/>
      <point x="682" y="300" type="curve" smooth="yes"/>
      <point x="682" y="366"/>
      <point x="628" y="412"/>
      <point x="548" y="412" type="curve" smooth="yes"/>
      <point x="512" y="412"/>
      <point x="474" y="402"/>
      <point x="442" y="402" type="curve"/>
      <point x="422" y="270" type="line"/>
      <point x="430" y="270" type="line"/>
      <point x="441" y="341"/>
      <point x="490" y="404"/>
      <point x="535" y="404" type="curve" smooth="yes"/>
      <point x="567" y="404"/>
      <point x="588" y="371"/>
      <point x="588" y="322" type="curve" smooth="yes"/>
      <point x="588" y="229"/>
      <point x="513" y="156"/>
      <point x="397" y="6" type="curve"/>
      <point x="397" y="0" type="line"/>
      <point x="665" y="0" type="line"/>
    </contour>
  </outline>
</glyph>
<glyph name="Agrave" format="2">
  <advance width="684"/>
  <unicode hex="00C0"/>
  <outline>
    <contour>
      <point x="386" y="276" type="line"/>
      <point x="155" y="276" type="line"/>
      <point x="272" y="564" type="line"/>
    </contour>
    <contour>
      <point x="77" y="119" type="line" smooth="yes"/>
      <point x="55" y="66"/>
      <point x="13" y="13"/>
      <point x="-24" y="10" type="curve"/>
      <point x="-24" y="0" type="line"/>
      <point x="171" y="0" type="line"/>
      <point x="171" y="10" type="line"/>
      <point x="105" y="13"/>
      <point x="70" y="66"/>
      <point x="94" y="124" type="curve" smooth="yes"/>
      <point x="150" y="263" type="line"/>
      <point x="391" y="263" type="line"/>
      <point x="451" y="114" type="line" smooth="yes"/>
      <point x="477" y="49"/>
      <point x="455" y="10"/>
      <point x="395" y="10" type="curve" smooth="yes"/>
      <point x="391" y="10" type="line"/>
      <point x="391" y="0" type="line"/>
      <point x="711" y="0" type="line"/>
      <point x="711" y="10" type="line"/>
      <point x="708" y="10" type="line" smooth="yes"/>
      <point x="673" y="10"/>
      <point x="639" y="48"/>
      <point x="610" y="119" type="curve" smooth="yes"/>
      <point x="350" y="765" type="line"/>
      <point x="341" y="765" type="line"/>
    </contour>
    <contour>
      <point x="396" y="773" type="line"/>
      <point x="403" y="783" type="line"/>
      <point x="265" y="976" type="line"/>
      <point x="260" y="976" type="line"/>
      <point x="196" y="918" type="line"/>
      <point x="196" y="913" type="line"/>
    </contour>
  </outline>
</glyph>
<glyph name="Acircumflex" format="2">
  <advance width="684"/>
  <unicode hex="00C2"/>
  <outline>
    <contour>
      <point x="386" y="276" type="line"/>
      <point x="155" y="276" type="line"/>
      <point x="272" y="564" type="line"/>
    </contour>
    <contour>
      <point x="77" y="119" type="line" smooth="yes"/>
      <point x="55" y="66"/>
      <point x="13" y="13"/>
      <point x="-24" y="10" type="curve"/>
      <point x="-24" y="0" type="line"/>
      <point x="171" y="0" type="line"/>
      <point x="171" y="10" type="line"/>
      <point x="105" y="13"/>
      <point x="70" y="66"/>
      <point x="94" y="124" type="curve" smooth="yes"/>
      <point x="150" y="263" type="line"/>
      <point x="391" y="263" type="line"/>
      <point x="451" y="114" type="line" smooth="yes"/>
      <point x="477" y="49"/>
      <point x="455" y="10"/>
      <point x="395" y="10" type="curve" smooth="yes"/>
      <point x="391" y="10" type="line"/>
      <point x="391" y="0" type="line"/>
      <point x="711" y="0" type="line"/>
      <point x="711" y="10" type="line"/>
      <point x="708" y="10" type="line" smooth="yes"/>
      <point x="673" y="10"/>
      <point x="639" y="48"/>
      <point x="610" y="119" type="curve" smooth="yes"/>
      <point x="350" y="765" type="line"/>
      <point x="341" y="765" type="line"/>
    </contour>
    <contour>
      <point x="321" y="976" type="line"/>
      <point x="193" y="780" type="line"/>
      <point x="200" y="773" type="line"/>
      <point x="346" y="906" type="line"/>
      <point x="492" y="773" type="line"/>
      <point x="499" y="780" type="line"/>
      <point x="372" y="976" type="line"/>
    </contour>
  </outline>
</glyph>
<glyph name="Atilde" format="2">
  <advance width="684"/>
  <unicode hex="00C3"/>
  <outline>
    <contour>
      <point x="386" y="276" type="line"/>
      <point x="155" y="276" type="line"/>
      <point x="272" y="564" type="line"/>
    </contour>
    <contour>
      <point x="77" y="119" type="line" smooth="yes"/>
      <point x="55" y="66"/>
      <point x="13" y="13"/>
      <point x="-24" y="10" type="curve"/>
      <point x="-24" y="0" type="line"/>
      <point x="171" y="0" type="line"/>
      <point x="171" y="10" type="line"/>
      <point x="105" y="13"/>
      <point x="70" y="66"/>
      <point x="94" y="124" type="curve" smooth="yes"/>
      <point x="150" y="263" type="line"/>
      <point x="391" y="263" type="line"/>
      <point x="451" y="114" type="line" smooth="yes"/>
      <point x="477" y="49"/>
      <point x="455" y="10"/>
      <point x="395" y="10" type="curve" smooth="yes"/>
      <point x="391" y="10" type="line"/>
      <point x="391" y="0" type="line"/>
      <point x="711" y="0" type="line"/>
      <point x="711" y="10" type="line"/>
      <point x="708" y="10" type="line" smooth="yes"/>
      <point x="673" y="10"/>
      <point x="639" y="48"/>
      <point x="610" y="119" type="curve" smooth="yes"/>
      <point x="350" y="765" type="line"/>
      <point x="341" y="765" type="line"/>
    </contour>
    <contour>
      <point x="484" y="919" type="line"/>
      <point x="465" y="885"/>
      <point x="444" y="875"/>
      <point x="424" y="875" type="curve" smooth="yes"/>
      <point x="377" y="875"/>
      <point x="349" y="932" name=".hr01"/>
      <point x="297" y="932" type="curve" smooth="yes"/>
      <point x="262" y="932"/>
      <point x="223" y="888"/>
      <point x="199" y="822" type="curve"/>
      <point x="209" y="818" type="line"/>
      <point x="226" y="849"/>
      <point x="253" y="862"/>
      <point x="275" y="862" type="curve" smooth="yes"/>
      <point x="321" y="862"/>
      <point x="349" y="805" name=".hr02"/>
      <point x="402" y="805" type="curve" smooth="yes"/>
      <point x="441" y="805"/>
      <point x="478" y="849"/>
      <point x="494" y="915" type="curve"/>
    </contour>
  </outline>
</glyph>
<glyph name="AE" format="2">
  <advance width="896"/>
  <unicode hex="00C6"/>
  <outline>
    <contour>
      <point x="380" y="655" type="line"/>
      <point x="380" y="276" type="line"/>
      <point x="178" y="276" type="line"/>
    </contour>
    <contour>
      <point x="618" y="737" type="line" smooth="yes"/>
      <point x="756" y="737"/>
      <point x="835" y="674"/>
      <point x="855" y="549" type="curve"/>
      <point x="865" y="549" type="line"/>
      <point x="835" y="750" type="line"/>
      <point x="299" y="750" type="line"/>
      <point x="300" y="740" type="line" name=".hr01"/>
      <point x="339" y="740"/>
      <point x="367" y="719"/>
      <point x="377" y="685" type="curve"/>
      <point x="80" y="126" type="line" smooth="yes"/>
      <point x="45" y="59"/>
      <point x="-1" y="13"/>
      <point x="-35" y="10" type="curve"/>
      <point x="-35" y="0" type="line"/>
      <point x="160" y="0" type="line"/>
      <point x="160" y="10" type="line"/>
      <point x="87" y="14"/>
      <point x="60" y="57"/>
      <point x="93" y="117" type="curve" smooth="yes"/>
      <point x="171" y="263" type="line"/>
      <point x="380" y="263" type="line"/>
      <point x="380" y="90" type="line" smooth="yes"/>
      <point x="380" y="42"/>
      <point x="348" y="10"/>
      <point x="300" y="10" type="curve"/>
      <point x="299" y="10" type="line"/>
      <point x="298" y="0" type="line"/>
      <point x="853" y="0" type="line"/>
      <point x="883" y="220" type="line"/>
      <point x="873" y="220" type="line"/>
      <point x="853" y="82"/>
      <point x="777" y="13"/>
      <point x="646" y="13" type="curve" smooth="yes"/>
      <point x="598" y="13" type="line" smooth="yes"/>
      <point x="560" y="13"/>
      <point x="534" y="39"/>
      <point x="534" y="77" type="curve" smooth="yes"/>
      <point x="534" y="435" type="line"/>
      <point x="613" y="435" type="line" smooth="yes"/>
      <point x="684" y="435"/>
      <point x="733" y="386"/>
      <point x="734" y="313" type="curve"/>
      <point x="744" y="313" type="line"/>
      <point x="744" y="559" type="line"/>
      <point x="734" y="559" type="line"/>
      <point x="734" y="493"/>
      <point x="690" y="448"/>
      <point x="624" y="448" type="curve" smooth="yes"/>
      <point x="534" y="448" type="line"/>
      <point x="534" y="737" type="line" name=".hr02"/>
    </contour>
  </outline>
</glyph>
<glyph name="Ccedilla" format="2">
  <advance width="742"/>
  <unicode hex="00C7"/>
  <outline>
    <contour>
      <point x="684" y="748" type="line"/>
      <point x="585" y="748"/>
      <point x="570" y="764"/>
      <point x="463" y="764" type="curve" smooth="yes"/>
      <point x="208" y="764"/>
      <point x="37" y="608"/>
      <point x="37" y="375" type="curve" smooth="yes"/>
      <point x="37" y="154"/>
      <point x="193" y="1"/>
      <point x="427" y="-13" type="curve"/>
      <point x="410" y="-57" type="line"/>
      <point x="410" y="-63" type="line"/>
      <point x="442" y="-69"/>
      <point x="467" y="-106"/>
      <point x="467" y="-150" type="curve" smooth="yes"/>
      <point x="467" y="-186"/>
      <point x="450" y="-208"/>
      <point x="424" y="-208" type="curve" smooth="yes"/>
      <point x="393" y="-208"/>
      <point x="369" y="-177"/>
      <point x="357" y="-119" type="curve"/>
      <point x="346" y="-119" type="line"/>
      <point x="365" y="-218" type="line" name=".hr01"/>
      <point x="399" y="-218"/>
      <point x="407" y="-225" name=".hr02"/>
      <point x="438" y="-225" type="curve" smooth="yes"/>
      <point x="504" y="-225"/>
      <point x="547" y="-193"/>
      <point x="547" y="-145" type="curve" smooth="yes"/>
      <point x="547" y="-92"/>
      <point x="498" y="-57"/>
      <point x="424" y="-56" type="curve"/>
      <point x="441" y="-14" type="line"/>
      <point x="449" y="-14"/>
      <point x="456" y="-14"/>
      <point x="464" y="-14" type="curve" smooth="yes"/>
      <point x="560" y="-14"/>
      <point x="603" y="4"/>
      <point x="700" y="4" type="curve"/>
      <point x="729" y="220" type="line"/>
      <point x="719" y="220" type="line"/>
      <point x="698" y="80"/>
      <point x="606" y="2"/>
      <point x="461" y="2" type="curve" smooth="yes"/>
      <point x="311" y="2"/>
      <point x="207" y="151"/>
      <point x="207" y="367" type="curve" smooth="yes"/>
      <point x="207" y="591"/>
      <point x="314" y="751"/>
      <point x="463" y="751" type="curve" smooth="yes"/>
      <point x="589" y="751"/>
      <point x="685" y="663"/>
      <point x="704" y="530" type="curve"/>
      <point x="714" y="530" type="line"/>
    </contour>
  </outline>
</glyph>
<glyph name="Edieresis" format="2">
  <advance width="606"/>
  <unicode hex="00CB"/>
  <outline>
    <contour>
      <point x="314" y="13" type="line" smooth="yes"/>
      <point x="267" y="13"/>
      <point x="244" y="37"/>
      <point x="244" y="84" type="curve" smooth="yes"/>
      <point x="244" y="435" type="line"/>
      <point x="323" y="435" type="line" smooth="yes"/>
      <point x="395" y="435"/>
      <point x="443" y="385"/>
      <point x="444" y="313" type="curve"/>
      <point x="454" y="313" type="line"/>
      <point x="454" y="559" type="line"/>
      <point x="444" y="559" type="line"/>
      <point x="444" y="493"/>
      <point x="400" y="448"/>
      <point x="334" y="448" type="curve" smooth="yes"/>
      <point x="244" y="448" type="line"/>
      <point x="244" y="737" type="line"/>
      <point x="328" y="737" type="line" smooth="yes"/>
      <point x="466" y="737"/>
      <point x="545" y="674"/>
      <point x="565" y="549" type="curve"/>
      <point x="575" y="549" type="line"/>
      <point x="545" y="750" type="line"/>
      <point x="9" y="750" type="line"/>
      <point x="10" y="740" type="line" name=".hr01"/>
      <point x="58" y="740"/>
      <point x="90" y="708"/>
      <point x="90" y="660" type="curve" smooth="yes"/>
      <point x="90" y="84" type="line" smooth="yes"/>
      <point x="90" y="36"/>
      <point x="58" y="10"/>
      <point x="10" y="10" type="curve"/>
      <point x="9" y="10" type="line"/>
      <point x="8" y="0" type="line"/>
      <point x="563" y="0" type="line"/>
      <point x="593" y="220" type="line"/>
      <point x="583" y="220" type="line"/>
      <point x="562" y="78"/>
      <point x="484" y="13" name=".hr02"/>
      <point x="356" y="13" type="curve" smooth="yes"/>
    </contour>
    <contour>
      <point x="123" y="881" type="curve" smooth="yes"/>
      <point x="123" y="840"/>
      <point x="157" y="806"/>
      <point x="198" y="806" type="curve" smooth="yes"/>
      <point x="238" y="806"/>
      <point x="273" y="840"/>
      <point x="273" y="881" type="curve" smooth="yes"/>
      <point x="273" y="922"/>
      <point x="238" y="956"/>
      <point x="198" y="956" type="curve" smooth="yes"/>
      <point x="157" y="956"/>
      <point x="123" y="922"/>
    </contour>
    <contour>
      <point x="321" y="881" type="curve" smooth="yes"/>
      <point x="321" y="840"/>
      <point x="355" y="806"/>
      <point x="396" y="806" type="curve" smooth="yes"/>
      <point x="436" y="806"/>
      <point x="471" y="840"/>
      <point x="471" y="881" type="curve" smooth="yes"/>
      <point x="471" y="922"/>
      <point x="436" y="956"/>
      <point x="396" y="956" type="curve" smooth="yes"/>
      <point x="355" y="956"/>
      <point x="321" y="922"/>
    </contour>
  </outline>
  <guideline angle="0" x="0" y="881"/>
</glyph>
<glyph name="Igrave" format="2">
  <advance width="317"/>
  <unicode hex="00CC"/>
  <outline>
    <contour>
      <point x="316" y="10" type="line"/>
      <point x="268" y="10"/>
      <point x="236" y="42"/>
      <point x="236" y="90" type="curve" smooth="yes"/>
      <point x="236" y="660" type="line" smooth="yes"/>
      <point x="236" y="708"/>
      <point x="268" y="740"/>
      <point x="316" y="740" type="curve"/>
      <point x="317" y="740" type="line"/>
      <point x="317" y="750" type="line"/>
      <point x="0" y="750" type="line"/>
      <point x="0" y="740" type="line"/>
      <point x="1" y="740" type="line"/>
      <point x="49" y="740"/>
      <point x="81" y="708"/>
      <point x="81" y="660" type="curve" smooth="yes"/>
      <point x="81" y="90" type="line" smooth="yes"/>
      <point x="81" y="42"/>
      <point x="49" y="10"/>
      <point x="1" y="10" type="curve"/>
      <point x="0" y="10" type="line"/>
      <point x="0" y="0" type="line"/>
      <point x="317" y="0" type="line"/>
      <point x="317" y="10" type="line"/>
    </contour>
    <contour>
      <point x="56" y="923" type="line"/>
      <point x="256" y="783" type="line"/>
      <point x="263" y="793" type="line"/>
      <point x="125" y="986" type="line"/>
      <point x="120" y="986" type="line"/>
      <point x="56" y="928" type="line"/>
    </contour>
  </outline>
</glyph>
<glyph name="Ntilde" format="2">
  <advance width="749"/>
  <unicode hex="00D1"/>
  <outline>
    <contour>
      <point x="663" y="-14" type="line"/>
      <point x="663" y="635" type="line" smooth="yes"/>
      <point x="663" y="692"/>
      <point x="701" y="740"/>
      <point x="758" y="740" type="curve"/>
      <point x="758" y="750" type="line"/>
      <point x="551" y="750" type="line"/>
      <point x="551" y="740" type="line"/>
      <point x="608" y="740"/>
      <point x="646" y="692"/>
      <point x="646" y="635" type="curve" smooth="yes"/>
      <point x="646" y="243" type="line"/>
      <point x="253" y="750" type="line"/>
      <point x="-4" y="750" type="line"/>
      <point x="-4" y="740" type="line"/>
      <point x="28" y="737"/>
      <point x="62" y="723"/>
      <point x="91" y="701" type="curve"/>
      <point x="91" y="116" type="line" smooth="yes"/>
      <point x="91" y="58"/>
      <point x="53" y="10"/>
      <point x="-5" y="10" type="curve"/>
      <point x="-5" y="0" type="line"/>
      <point x="203" y="0" type="line"/>
      <point x="203" y="10" type="line"/>
      <point x="146" y="10"/>
      <point x="108" y="58"/>
      <point x="108" y="115" type="curve" smooth="yes"/>
      <point x="108" y="687" type="line"/>
      <point x="117" y="679"/>
      <point x="130" y="666"/>
      <point x="139" y="654" type="curve" smooth="yes"/>
    </contour>
    <contour>
      <point x="515" y="929" type="line"/>
      <point x="496" y="895"/>
      <point x="475" y="885"/>
      <point x="455" y="885" type="curve" smooth="yes"/>
      <point x="407" y="885"/>
      <point x="380" y="942" name=".hr01"/>
      <point x="328" y="942" type="curve" smooth="yes"/>
      <point x="292" y="942"/>
      <point x="253" y="898"/>
      <point x="230" y="832" type="curve"/>
      <point x="240" y="828" type="line"/>
      <point x="257" y="859"/>
      <point x="283" y="872"/>
      <point x="306" y="872" type="curve" smooth="yes"/>
      <point x="352" y="872"/>
      <point x="380" y="815" name=".hr02"/>
      <point x="432" y="815" type="curve" smooth="yes"/>
      <point x="471" y="815"/>
      <point x="508" y="859"/>
      <point x="525" y="925" type="curve"/>
    </contour>
  </outline>
</glyph>
<glyph name="Ograve" format="2">
  <advance width="878"/>
  <unicode hex="00D2"/>
  <outline>
    <contour>
      <point x="207" y="376" type="curve" smooth="yes"/>
      <point x="207" y="601"/>
      <point x="300" y="751"/>
      <point x="439" y="751" type="curve" smooth="yes"/>
      <point x="578" y="751"/>
      <point x="671" y="601"/>
      <point x="671" y="376" type="curve" smooth="yes"/>
      <point x="671" y="151"/>
      <point x="578" y="2"/>
      <point x="439" y="2" type="curve" smooth="yes"/>
      <point x="300" y="2"/>
      <point x="207" y="151"/>
    </contour>
    <contour>
      <point x="37" y="375" type="curve" smooth="yes"/>
      <point x="37" y="142"/>
      <point x="198" y="-14"/>
      <point x="439" y="-14" type="curve" smooth="yes"/>
      <point x="680" y="-14"/>
      <point x="841" y="142"/>
      <point x="841" y="375" type="curve" smooth="yes"/>
      <point x="841" y="608"/>
      <point x="680" y="764"/>
      <point x="439" y="764" type="curve" smooth="yes"/>
      <point x="198" y="764"/>
      <point x="37" y="608"/>
    </contour>
    <contour>
      <point x="485" y="783" type="line"/>
      <point x="492" y="793" type="line"/>
      <point x="355" y="986" type="line"/>
      <point x="350" y="986" type="line"/>
      <point x="285" y="928" type="line"/>
      <point x="285" y="923" type="line"/>
    </contour>
  </outline>
</glyph>
<glyph name="Oacute" format="2">
  <advance width="878"/>
  <unicode hex="00D3"/>
  <outline>
    <contour>
      <point x="207" y="376" type="curve" smooth="yes"/>
      <point x="207" y="601"/>
      <point x="300" y="751"/>
      <point x="439" y="751" type="curve" smooth="yes"/>
      <point x="578" y="751"/>
      <point x="671" y="601"/>
      <point x="671" y="376" type="curve" smooth="yes"/>
      <point x="671" y="151"/>
      <point x="578" y="2"/>
      <point x="439" y="2" type="curve" smooth="yes"/>
      <point x="300" y="2"/>
      <point x="207" y="151"/>
    </contour>
    <contour>
      <point x="37" y="375" type="curve" smooth="yes"/>
      <point x="37" y="142"/>
      <point x="198" y="-14"/>
      <point x="439" y="-14" type="curve" smooth="yes"/>
      <point x="680" y="-14"/>
      <point x="841" y="142"/>
      <point x="841" y="375" type="curve" smooth="yes"/>
      <point x="841" y="608"/>
      <point x="680" y="764"/>
      <point x="439" y="764" type="curve" smooth="yes"/>
      <point x="198" y="764"/>
      <point x="37" y="608"/>
    </contour>
    <contour>
      <point x="593" y="928" type="line"/>
      <point x="529" y="986" type="line"/>
      <point x="524" y="986" type="line"/>
      <point x="386" y="793" type="line"/>
      <point x="393" y="783" type="line"/>
      <point x="593" y="923" type="line"/>
    </contour>
  </outline>
</glyph>
<glyph name="Oslash" format="2">
  <advance width="878"/>
  <unicode hex="00D8"/>
  <outline>
    <contour>
      <point x="207" y="376" type="curve" smooth="yes"/>
      <point x="207" y="601"/>
      <point x="300" y="751"/>
      <point x="439" y="751" type="curve" smooth="yes"/>
      <point x="520" y="751"/>
      <point x="586" y="700"/>
      <point x="626" y="612" type="curve"/>
      <point x="247" y="152" type="line"/>
      <point x="221" y="212"/>
      <point x="207" y="288"/>
    </contour>
    <contour>
      <point x="632" y="600" type="line"/>
      <point x="657" y="539"/>
      <point x="671" y="463"/>
      <point x="671" y="376" type="curve" smooth="yes"/>
      <point x="671" y="151"/>
      <point x="578" y="2"/>
      <point x="439" y="2" type="curve" smooth="yes"/>
      <point x="358" y="2"/>
      <point x="293" y="53"/>
      <point x="252" y="139" type="curve"/>
    </contour>
    <contour>
      <point x="37" y="375" type="curve" smooth="yes"/>
      <point x="37" y="243"/>
      <point x="89" y="136"/>
      <point x="177" y="68" type="curve"/>
      <point x="121" y="0" type="line"/>
      <point x="137" y="0" type="line" name=".hr01"/>
      <point x="187" y="60" type="line"/>
      <point x="253" y="13"/>
      <point x="339" y="-14"/>
      <point x="439" y="-14" type="curve" smooth="yes" name=".hr02"/>
      <point x="680" y="-14"/>
      <point x="841" y="142"/>
      <point x="841" y="375" type="curve" smooth="yes"/>
      <point x="841" y="507"/>
      <point x="789" y="615"/>
      <point x="700" y="683" type="curve"/>
      <point x="756" y="750" type="line"/>
      <point x="740" y="750" type="line"/>
      <point x="690" y="690" type="line"/>
      <point x="624" y="738"/>
      <point x="538" y="764"/>
      <point x="439" y="764" type="curve" smooth="yes"/>
      <point x="198" y="764"/>
      <point x="37" y="608"/>
    </contour>
  </outline>
</glyph>
<glyph name="Uacute" format="2">
  <advance width="745"/>
  <unicode hex="00DA"/>
  <outline>
    <contour>
      <point x="79" y="263" type="line" smooth="yes"/>
      <point x="79" y="94"/>
      <point x="192" y="-14"/>
      <point x="368" y="-14" type="curve" smooth="yes"/>
      <point x="543" y="-14"/>
      <point x="656" y="94"/>
      <point x="655" y="263" type="curve"/>
      <point x="655" y="645" type="line" smooth="yes"/>
      <point x="655" y="702"/>
      <point x="693" y="737"/>
      <point x="750" y="740" type="curve"/>
      <point x="750" y="750" type="line"/>
      <point x="543" y="750" type="line"/>
      <point x="543" y="740" type="line"/>
      <point x="600" y="737"/>
      <point x="638" y="702"/>
      <point x="638" y="645" type="curve" smooth="yes"/>
      <point x="638" y="263" type="line" smooth="yes"/>
      <point x="638" y="123"/>
      <point x="560" y="34"/>
      <point x="436" y="34" type="curve" smooth="yes"/>
      <point x="311" y="34"/>
      <point x="234" y="123"/>
      <point x="234" y="263" type="curve" smooth="yes"/>
      <point x="234" y="660" type="line" smooth="yes"/>
      <point x="234" y="708"/>
      <point x="266" y="740"/>
      <point x="314" y="740" type="curve" smooth="yes"/>
      <point x="317" y="740" type="line"/>
      <point x="317" y="750" type="line"/>
      <point x="-5" y="750" type="line"/>
      <point x="-5" y="740" type="line"/>
      <point x="-1" y="740" type="line" smooth="yes"/>
      <point x="47" y="740"/>
      <point x="79" y="708"/>
      <point x="79" y="660" type="curve" smooth="yes"/>
    </contour>
    <contour>
      <point x="507" y="923" type="line"/>
      <point x="507" y="928" type="line"/>
      <point x="443" y="986" type="line"/>
      <point x="438" y="986" type="line"/>
      <point x="300" y="793" type="line"/>
      <point x="307" y="783" type="line"/>
    </contour>
  </outline>
</glyph>
<glyph name="Ucircumflex" format="2">
  <advance width="745"/>
  <unicode hex="00DB"/>
  <outline>
    <contour>
      <point x="79" y="263" type="line" smooth="yes"/>
      <point x="79" y="94"/>
      <point x="192" y="-14"/>
      <point x="368" y="-14" type="curve" smooth="yes"/>
      <point x="543" y="-14"/>
      <point x="656" y="94"/>
      <point x="655" y="263" type="curve"/>
      <point x="655" y="645" type="line" smooth="yes"/>
      <point x="655" y="702"/>
      <point x="693" y="737"/>
      <point x="750" y="740" type="curve"/>
      <point x="750" y="750" type="line"/>
      <point x="543" y="750" type="line"/>
      <point x="543" y="740" type="line"/>
      <point x="600" y="737"/>
      <point x="638" y="702"/>
      <point x="638" y="645" type="curve" smooth="yes"/>
      <point x="638" y="263" type="line" smooth="yes"/>
      <point x="638" y="123"/>
      <point x="560" y="34"/>
      <point x="436" y="34" type="curve" smooth="yes"/>
      <point x="311" y="34"/>
      <point x="234" y="123"/>
      <point x="234" y="263" type="curve" smooth="yes"/>
      <point x="234" y="660" type="line" smooth="yes"/>
      <point x="234" y="708"/>
      <point x="266" y="740"/>
      <point x="314" y="740" type="curve" smooth="yes"/>
      <point x="317" y="740" type="line"/>
      <point x="317" y="750" type="line"/>
      <point x="-5" y="750" type="line"/>
      <point x="-5" y="740" type="line"/>
      <point x="-1" y="740" type="line" smooth="yes"/>
      <point x="47" y="740"/>
      <point x="79" y="708"/>
      <point x="79" y="660" type="curve" smooth="yes"/>
    </contour>
    <contour>
      <point x="428" y="986" type="line"/>
      <point x="377" y="986" type="line"/>
      <point x="250" y="790" type="line"/>
      <point x="257" y="783" type="line"/>
      <point x="403" y="916" type="line"/>
      <point x="549" y="783" type="line"/>
      <point x="556" y="790" type="line"/>
    </contour>
  </outline>
  <guideline angle="90" x="373" y="0"/>
</glyph>
<glyph name="Udieresis" format="2">
  <advance width="745"/>
  <unicode hex="00DC"/>
  <outline>
    <contour>
      <point x="79" y="263" type="line" smooth="yes"/>
      <point x="79" y="94"/>
      <point x="192" y="-14"/>
      <point x="368" y="-14" type="curve" smooth="yes"/>
      <point x="543" y="-14"/>
      <point x="656" y="94"/>
      <point x="655" y="263" type="curve"/>
      <point x="655" y="645" type="line" smooth="yes"/>
      <point x="655" y="702"/>
      <point x="693" y="737"/>
      <point x="750" y="740" type="curve"/>
      <point x="750" y="750" type="line"/>
      <point x="543" y="750" type="line"/>
      <point x="543" y="740" type="line"/>
      <point x="600" y="737"/>
      <point x="638" y="702"/>
      <point x="638" y="645" type="curve" smooth="yes"/>
      <point x="638" y="263" type="line" smooth="yes"/>
      <point x="638" y="123"/>
      <point x="560" y="34"/>
      <point x="436" y="34" type="curve" smooth="yes"/>
      <point x="311" y="34"/>
      <point x="234" y="123"/>
      <point x="234" y="263" type="curve" smooth="yes"/>
      <point x="234" y="660" type="line" smooth="yes"/>
      <point x="234" y="708"/>
      <point x="266" y="740"/>
      <point x="314" y="740" type="curve" smooth="yes"/>
      <point x="317" y="740" type="line"/>
      <point x="317" y="750" type="line"/>
      <point x="-5" y="750" type="line"/>
      <point x="-5" y="740" type="line"/>
      <point x="-1" y="740" type="line" smooth="yes"/>
      <point x="47" y="740"/>
      <point x="79" y="708"/>
      <point x="79" y="660" type="curve" smooth="yes"/>
    </contour>
    <contour>
      <point x="229" y="881" type="curve" smooth="yes"/>
      <point x="229" y="840"/>
      <point x="263" y="806"/>
      <point x="304" y="806" type="curve" smooth="yes"/>
      <point x="345" y="806"/>
      <point x="379" y="840"/>
      <point x="379" y="881" type="curve" smooth="yes"/>
      <point x="379" y="922"/>
      <point x="345" y="956"/>
      <point x="304" y="956" type="curve" smooth="yes"/>
      <point x="263" y="956"/>
      <point x="229" y="922"/>
    </contour>
    <contour>
      <point x="427" y="881" type="curve" smooth="yes"/>
      <point x="427" y="840"/>
      <point x="461" y="806"/>
      <point x="502" y="806" type="curve" smooth="yes"/>
      <point x="543" y="806"/>
      <point x="577" y="840"/>
      <point x="577" y="881" type="curve" smooth="yes"/>
      <point x="577" y="922"/>
      <point x="543" y="956"/>
      <point x="502" y="956" type="curve" smooth="yes"/>
      <point x="461" y="956"/>
      <point x="427" y="922"/>
    </contour>
  </outline>
</glyph>
<glyph name="Thorn" format="2">
  <advance width="591"/>
  <unicode hex="00DE"/>
  <outline>
    <contour>
      <point x="225" y="592" type="line"/>
      <point x="265" y="592" type="line" smooth="yes"/>
      <point x="350" y="592"/>
      <point x="407" y="505"/>
      <point x="407" y="375" type="curve" smooth="yes"/>
      <point x="407" y="246"/>
      <point x="350" y="159"/>
      <point x="264" y="158" type="curve" smooth="yes"/>
      <point x="225" y="157" type="line"/>
    </contour>
    <contour>
      <point x="295" y="147" type="line" smooth="yes"/>
      <point x="459" y="147"/>
      <point x="567" y="238"/>
      <point x="567" y="375" type="curve" smooth="yes"/>
      <point x="567" y="512"/>
      <point x="459" y="603"/>
      <point x="295" y="603" type="curve" smooth="yes"/>
      <point x="225" y="603" type="line"/>
      <point x="225" y="660" type="line" smooth="yes"/>
      <point x="225" y="708"/>
      <point x="257" y="740"/>
      <point x="305" y="740" type="curve"/>
      <point x="306" y="740" type="line"/>
      <point x="306" y="750" type="line"/>
      <point x="0" y="750" type="line"/>
      <point x="0" y="740" type="line"/>
      <point x="1" y="740" type="line"/>
      <point x="49" y="740"/>
      <point x="81" y="708"/>
      <point x="81" y="660" type="curve" smooth="yes"/>
      <point x="81" y="90" type="line" smooth="yes"/>
      <point x="81" y="42"/>
      <point x="49" y="10"/>
      <point x="1" y="10" type="curve"/>
      <point x="0" y="10" type="line"/>
      <point x="0" y="0" type="line"/>
      <point x="306" y="0" type="line"/>
      <point x="306" y="10" type="line"/>
      <point x="305" y="10" type="line"/>
      <point x="257" y="10"/>
      <point x="225" y="42"/>
      <point x="225" y="90" type="curve" smooth="yes"/>
      <point x="225" y="147" type="line"/>
    </contour>
  </outline>
</glyph>
<glyph name="adieresis" format="2">
  <advance width="551"/>
  <unicode hex="00E4"/>
  <outline>
    <contour>
      <point x="330" y="95" type="line"/>
      <point x="296" y="62"/>
      <point x="270" y="48"/>
      <point x="241" y="48" type="curve" smooth="yes"/>
      <point x="197" y="48"/>
      <point x="165" y="89"/>
      <point x="165" y="146" type="curve" smooth="yes"/>
      <point x="165" y="204"/>
      <point x="186" y="243"/>
      <point x="291" y="283" type="curve" smooth="yes"/>
      <point x="331" y="298" type="line"/>
    </contour>
    <contour>
      <point x="283" y="523" type="curve" smooth="yes"/>
      <point x="182" y="523"/>
      <point x="90" y="468"/>
      <point x="55" y="386" type="curve"/>
      <point x="163" y="324" type="line"/>
      <point x="175" y="439"/>
      <point x="213" y="509"/>
      <point x="263" y="510" type="curve"/>
      <point x="305" y="510"/>
      <point x="331" y="462"/>
      <point x="331" y="386" type="curve" smooth="yes"/>
      <point x="331" y="311" type="line"/>
      <point x="238" y="277" type="line" smooth="yes"/>
      <point x="62" y="213"/>
      <point x="31" y="166"/>
      <point x="31" y="106" type="curve" smooth="yes"/>
      <point x="31" y="34"/>
      <point x="85" y="-14"/>
      <point x="166" y="-14" type="curve" smooth="yes"/>
      <point x="223" y="-14"/>
      <point x="266" y="11"/>
      <point x="332" y="81" type="curve"/>
      <point x="341" y="24"/>
      <point x="381" y="-14"/>
      <point x="432" y="-14" type="curve" smooth="yes"/>
      <point x="479" y="-14"/>
      <point x="533" y="18"/>
      <point x="567" y="65" type="curve"/>
      <point x="559" y="72" type="line"/>
      <point x="544" y="55"/>
      <point x="530" y="47"/>
      <point x="514" y="47" type="curve" smooth="yes"/>
      <point x="489" y="47"/>
      <point x="474" y="68"/>
      <point x="475" y="105" type="curve"/>
      <point x="475" y="346" type="line" smooth="yes"/>
      <point x="475" y="453"/>
      <point x="398" y="523"/>
    </contour>
    <contour>
      <point x="86" y="679" type="curve" smooth="yes"/>
      <point x="86" y="638" name=".hr01"/>
      <point x="120" y="604"/>
      <point x="161" y="604" type="curve" smooth="yes"/>
      <point x="202" y="604"/>
      <point x="236" y="638"/>
      <point x="236" y="679" type="curve" smooth="yes"/>
      <point x="236" y="720"/>
      <point x="202" y="754"/>
      <point x="161" y="754" type="curve" smooth="yes"/>
      <point x="120" y="754"/>
      <point x="86" y="720"/>
    </contour>
    <contour>
      <point x="284" y="679" type="curve" smooth="yes"/>
      <point x="284" y="638"/>
      <point x="318" y="604"/>
      <point x="359" y="604" type="curve" smooth="yes"/>
      <point x="400" y="604"/>
      <point x="434" y="638"/>
      <point x="434" y="679" type="curve" smooth="yes"/>
      <point x="434" y="720"/>
      <point x="400" y="754"/>
      <point x="359" y="754" type="curve" smooth="yes"/>
      <point x="318" y="754"/>
      <point x="284" y="720"/>
    </contour>
  </outline>
  <guideline angle="0" x="0" y="679"/>
</glyph>
<glyph name="ae" format="2">
  <advance width="826"/>
  <unicode hex="00E6"/>
  <outline>
    <contour>
      <point x="344" y="255" type="line" smooth="yes"/>
      <point x="344" y="210"/>
      <point x="351" y="168"/>
      <point x="366" y="130" type="curve"/>
      <point x="335" y="80"/>
      <point x="285" y="46"/>
      <point x="243" y="46" type="curve" smooth="yes"/>
      <point x="195" y="46"/>
      <point x="163" y="86"/>
      <point x="163" y="148" type="curve" smooth="yes"/>
      <point x="163" y="208"/>
      <point x="198" y="245"/>
      <point x="290" y="284" type="curve" smooth="yes"/>
      <point x="344" y="307" type="line"/>
    </contour>
    <contour>
      <point x="459" y="330" type="line"/>
      <point x="464" y="437"/>
      <point x="507" y="507"/>
      <point x="565" y="507" type="curve" smooth="yes"/>
      <point x="624" y="507"/>
      <point x="662" y="437"/>
      <point x="662" y="330" type="curve"/>
    </contour>
    <contour>
      <point x="275" y="522" type="curve" smooth="yes"/>
      <point x="171" y="522"/>
      <point x="93" y="473"/>
      <point x="55" y="384" type="curve"/>
      <point x="163" y="324" type="line"/>
      <point x="175" y="437"/>
      <point x="218" y="509"/>
      <point x="274" y="509" type="curve" smooth="yes"/>
      <point x="319" y="509"/>
      <point x="344" y="465"/>
      <point x="344" y="386" type="curve" smooth="yes"/>
      <point x="344" y="321" type="line"/>
      <point x="235" y="277" type="line" smooth="yes"/>
      <point x="77" y="213"/>
      <point x="31" y="175"/>
      <point x="31" y="106" type="curve" smooth="yes"/>
      <point x="31" y="35"/>
      <point x="85" y="-14"/>
      <point x="162" y="-14" type="curve" smooth="yes"/>
      <point x="242" y="-14"/>
      <point x="329" y="41"/>
      <point x="371" y="119" type="curve"/>
      <point x="400" y="37"/>
      <point x="474" y="-12" name=".hr01"/>
      <point x="568" y="-12" type="curve" smooth="yes"/>
      <point x="677" y="-12"/>
      <point x="767" y="54"/>
      <point x="802" y="161" type="curve"/>
      <point x="793" y="164" type="line"/>
      <point x="755" y="108"/>
      <point x="691" y="72"/>
      <point x="629" y="72" type="curve" smooth="yes"/>
      <point x="527" y="72"/>
      <point x="457" y="169"/>
      <point x="458" y="310" type="curve"/>
      <point x="458" y="315" type="line"/>
      <point x="793" y="315" type="line"/>
      <point x="793" y="330" type="line"/>
      <point x="789" y="444"/>
      <point x="701" y="522"/>
      <point x="576" y="522" type="curve" smooth="yes"/>
      <point x="518" y="522"/>
      <point x="467" y="505"/>
      <point x="427" y="474" type="curve"/>
      <point x="392" y="505"/>
      <point x="338" y="522"/>
    </contour>
  </outline>
</glyph>
<glyph name="egrave" format="2">
  <advance width="537"/>
  <unicode hex="00E8"/>
  <outline>
    <contour>
      <point x="169" y="330" type="line"/>
      <point x="175" y="437"/>
      <point x="218" y="507"/>
      <point x="276" y="507" type="curve" smooth="yes"/>
      <point x="335" y="507"/>
      <point x="373" y="437"/>
      <point x="373" y="330" type="curve"/>
    </contour>
    <contour>
      <point x="33" y="255" type="curve" smooth="yes"/>
      <point x="33" y="97"/>
      <point x="130" y="-12"/>
      <point x="269" y="-12" type="curve" smooth="yes"/>
      <point x="379" y="-12"/>
      <point x="479" y="56"/>
      <point x="513" y="161" type="curve"/>
      <point x="504" y="164" type="line"/>
      <point x="468" y="111"/>
      <point x="405" y="77"/>
      <point x="342" y="77" type="curve" smooth="yes"/>
      <point x="237" y="77"/>
      <point x="168" y="170"/>
      <point x="169" y="310" type="curve"/>
      <point x="169" y="315" type="line"/>
      <point x="504" y="315" type="line"/>
      <point x="504" y="330" type="line"/>
      <point x="500" y="444"/>
      <point x="412" y="522"/>
      <point x="287" y="522" type="curve" smooth="yes"/>
      <point x="139" y="522"/>
      <point x="33" y="414"/>
    </contour>
    <contour>
      <point x="364" y="581" type="line"/>
      <point x="371" y="591" type="line"/>
      <point x="233" y="784" type="line"/>
      <point x="228" y="784" type="line"/>
      <point x="164" y="726" type="line"/>
      <point x="164" y="721" type="line"/>
    </contour>
  </outline>
</glyph>
<glyph name="edieresis" format="2">
  <advance width="537"/>
  <unicode hex="00EB"/>
  <outline>
    <contour>
      <point x="169" y="330" type="line"/>
      <point x="175" y="437"/>
      <point x="218" y="507"/>
      <point x="276" y="507" type="curve" smooth="yes"/>
      <point x="335" y="507"/>
      <point x="373" y="437"/>
      <point x="373" y="330" type="curve"/>
    </contour>
    <contour>
      <point x="33" y="255" type="curve" smooth="yes"/>
      <point x="33" y="97"/>
      <point x="130" y="-12"/>
      <point x="269" y="-12" type="curve" smooth="yes"/>
      <point x="379" y="-12"/>
      <point x="479" y="56"/>
      <point x="513" y="161" type="curve"/>
      <point x="504" y="164" type="line"/>
      <point x="468" y="111"/>
      <point x="405" y="77"/>
      <point x="342" y="77" type="curve" smooth="yes"/>
      <point x="237" y="77"/>
      <point x="168" y="170"/>
      <point x="169" y="310" type="curve"/>
      <point x="169" y="315" type="line"/>
      <point x="504" y="315" type="line"/>
      <point x="504" y="330" type="line"/>
      <point x="500" y="444"/>
      <point x="412" y="522"/>
      <point x="287" y="522" type="curve" smooth="yes"/>
      <point x="139" y="522"/>
      <point x="33" y="414"/>
    </contour>
    <contour>
      <point x="111" y="678" type="curve" smooth="yes"/>
      <point x="111" y="637" name=".hr01"/>
      <point x="145" y="603"/>
      <point x="186" y="603" type="curve" smooth="yes"/>
      <point x="226" y="603"/>
      <point x="261" y="637"/>
      <point x="261" y="678" type="curve" smooth="yes"/>
      <point x="261" y="719"/>
      <point x="226" y="753"/>
      <point x="186" y="753" type="curve" smooth="yes"/>
      <point x="145" y="753"/>
      <point x="111" y="719"/>
    </contour>
    <contour>
      <point x="309" y="678" type="curve" smooth="yes"/>
      <point x="309" y="637"/>
      <point x="343" y="603"/>
      <point x="384" y="603" type="curve" smooth="yes"/>
      <point x="424" y="603"/>
      <point x="459" y="637"/>
      <point x="459" y="678" type="curve" smooth="yes"/>
      <point x="459" y="719"/>
      <point x="424" y="753"/>
      <point x="384" y="753" type="curve" smooth="yes"/>
      <point x="343" y="753"/>
      <point x="309" y="719"/>
    </contour>
  </outline>
</glyph>
<glyph name="iacute" format="2">
  <advance width="297"/>
  <unicode hex="00ED"/>
  <outline>
    <contour>
      <point x="312" y="10" type="line"/>
      <point x="264" y="10"/>
      <point x="232" y="42"/>
      <point x="232" y="90" type="curve" smooth="yes"/>
      <point x="232" y="546" type="line"/>
      <point x="222" y="546" type="line"/>
      <point x="208" y="523"/>
      <point x="179" y="508"/>
      <point x="109" y="508" type="curve" smooth="yes"/>
      <point x="7" y="508" type="line"/>
      <point x="7" y="498" type="line"/>
      <point x="75" y="498"/>
      <point x="87" y="466"/>
      <point x="88" y="418" type="curve"/>
      <point x="88" y="90" type="line" smooth="yes"/>
      <point x="88" y="42"/>
      <point x="56" y="10"/>
      <point x="8" y="10" type="curve"/>
      <point x="7" y="10" type="line"/>
      <point x="7" y="0" type="line"/>
      <point x="313" y="0" type="line"/>
      <point x="313" y="10" type="line"/>
    </contour>
    <contour>
      <point x="298" y="721" type="line"/>
      <point x="298" y="726" type="line"/>
      <point x="234" y="784" type="line"/>
      <point x="229" y="784" type="line"/>
      <point x="92" y="591" type="line"/>
      <point x="99" y="581" type="line"/>
    </contour>
  </outline>
</glyph>
<glyph name="eth" format="2">
  <advance width="612"/>
  <unicode hex="00F0"/>
  <outline>
    <contour>
      <point x="193" y="244" type="curve" smooth="yes"/>
      <point x="193" y="387"/>
      <point x="240" y="489"/>
      <point x="306" y="489" type="curve" smooth="yes"/>
      <point x="371" y="489"/>
      <point x="418" y="387"/>
      <point x="418" y="244" type="curve" smooth="yes"/>
      <point x="418" y="101"/>
      <point x="371" y="-2"/>
      <point x="305" y="-2" type="curve" smooth="yes"/>
      <point x="240" y="-2"/>
      <point x="193" y="101"/>
    </contour>
    <contour>
      <point x="33" y="243" type="curve" smooth="yes"/>
      <point x="33" y="88"/>
      <point x="141" y="-14"/>
      <point x="304" y="-14" type="curve" smooth="yes"/>
      <point x="470" y="-14"/>
      <point x="573" y="91"/>
      <point x="573" y="260" type="curve" smooth="yes"/>
      <point x="573" y="398"/>
      <point x="509" y="551"/>
      <point x="411" y="646" type="curve"/>
      <point x="516" y="681" type="line"/>
      <point x="513" y="690" type="line"/>
      <point x="404" y="653" type="line"/>
      <point x="342" y="710"/>
      <point x="240" y="768"/>
      <point x="150" y="796" type="curve"/>
      <point x="146" y="787" type="line"/>
      <point x="211" y="755"/>
      <point x="287" y="688"/>
      <point x="327" y="627" type="curve"/>
      <point x="176" y="576" type="line"/>
      <point x="179" y="567" type="line"/>
      <point x="332" y="619" type="line"/>
      <point x="361" y="573"/>
      <point x="387" y="512"/>
      <point x="401" y="457" type="curve"/>
      <point x="382" y="483"/>
      <point x="337" y="500"/>
      <point x="290" y="500" type="curve" smooth="yes"/>
      <point x="136" y="500"/>
      <point x="33" y="397"/>
    </contour>
  </outline>
</glyph>
<glyph name="oacute" format="2">
  <advance width="612"/>
  <unicode hex="00F3"/>
  <outline>
    <contour>
      <point x="194" y="255" type="curve" smooth="yes"/>
      <point x="194" y="403"/>
      <point x="241" y="510"/>
      <point x="307" y="510" type="curve" smooth="yes"/>
      <point x="372" y="510"/>
      <point x="419" y="403"/>
      <point x="419" y="255" type="curve" smooth="yes"/>
      <point x="419" y="107"/>
      <point x="372" y="-1"/>
      <point x="306" y="-1" type="curve" smooth="yes"/>
      <point x="241" y="-1"/>
      <point x="194" y="107"/>
    </contour>
    <contour>
      <point x="34" y="254" type="curve" smooth="yes"/>
      <point x="34" y="92"/>
      <point x="142" y="-14"/>
      <point x="307" y="-14" type="curve" smooth="yes"/>
      <point x="471" y="-14"/>
      <point x="579" y="92"/>
      <point x="579" y="254" type="curve" smooth="yes"/>
      <point x="579" y="416"/>
      <point x="471" y="522"/>
      <point x="307" y="522" type="curve" smooth="yes"/>
      <point x="142" y="522"/>
      <point x="34" y="416"/>
    </contour>
    <contour>
      <point x="450" y="726" type="line"/>
      <point x="385" y="784" type="line"/>
      <point x="380" y="784" type="line"/>
      <point x="243" y="591" type="line"/>
      <point x="250" y="581" type="line"/>
      <point x="450" y="721" type="line"/>
    </contour>
  </outline>
</glyph>
<glyph name="ocircumflex" format="2">
  <advance width="612"/>
  <unicode hex="00F4"/>
  <outline>
    <contour>
      <point x="194" y="255" type="curve" smooth="yes"/>
      <point x="194" y="403"/>
      <point x="241" y="510"/>
      <point x="307" y="510" type="curve" smooth="yes"/>
      <point x="372" y="510"/>
      <point x="419" y="403"/>
      <point x="419" y="255" type="curve" smooth="yes"/>
      <point x="419" y="107"/>
      <point x="372" y="-1"/>
      <point x="306" y="-1" type="curve" smooth="yes"/>
      <point x="241" y="-1"/>
      <point x="194" y="107"/>
    </contour>
    <contour>
      <point x="34" y="254" type="curve" smooth="yes"/>
      <point x="34" y="92"/>
      <point x="142" y="-14"/>
      <point x="307" y="-14" type="curve" smooth="yes"/>
      <point x="471" y="-14"/>
      <point x="579" y="92"/>
      <point x="579" y="254" type="curve" smooth="yes"/>
      <point x="579" y="416"/>
      <point x="471" y="522"/>
      <point x="307" y="522" type="curve" smooth="yes"/>
      <point x="142" y="522"/>
      <point x="34" y="416"/>
    </contour>
    <contour>
      <point x="280" y="784" type="line"/>
      <point x="153" y="588" type="line"/>
      <point x="160" y="581" type="line"/>
      <point x="306" y="714" type="line"/>
      <point x="452" y="581" type="line"/>
      <point x="459" y="588" type="line"/>
      <point x="331" y="784" type="line"/>
    </contour>
  </outline>
</glyph>
<glyph name="oslash" format="2">
  <advance width="611"/>
  <unicode hex="00F8"/>
  <outline>
    <contour>
      <point x="193" y="255" type="curve" smooth="yes"/>
      <point x="193" y="403"/>
      <point x="240" y="510"/>
      <point x="306" y="510" type="curve" smooth="yes"/>
      <point x="349" y="510"/>
      <point x="384" y="464"/>
      <point x="403" y="389" type="curve"/>
      <point x="204" y="137" type="line"/>
      <point x="197" y="171"/>
      <point x="193" y="211"/>
    </contour>
    <contour>
      <point x="406" y="374" type="line"/>
      <point x="414" y="339"/>
      <point x="418" y="299"/>
      <point x="418" y="255" type="curve" smooth="yes"/>
      <point x="418" y="107"/>
      <point x="371" y="-1"/>
      <point x="305" y="-1" type="curve" smooth="yes"/>
      <point x="262" y="-1"/>
      <point x="227" y="46"/>
      <point x="208" y="121" type="curve"/>
    </contour>
    <contour>
      <point x="33" y="254" type="curve" smooth="yes"/>
      <point x="33" y="162"/>
      <point x="68" y="88"/>
      <point x="129" y="41" type="curve"/>
      <point x="97" y="0" type="line"/>
      <point x="113" y="0" type="line"/>
      <point x="139" y="33" type="line"/>
      <point x="184" y="3"/>
      <point x="240" y="-14"/>
      <point x="306" y="-14" type="curve" smooth="yes"/>
      <point x="470" y="-14"/>
      <point x="578" y="92"/>
      <point x="578" y="254" type="curve" smooth="yes"/>
      <point x="578" y="347"/>
      <point x="542" y="422"/>
      <point x="481" y="468" type="curve"/>
      <point x="512" y="508" type="line"/>
      <point x="496" y="508" type="line"/>
      <point x="470" y="476" type="line"/>
      <point x="426" y="505"/>
      <point x="371" y="522"/>
      <point x="306" y="522" type="curve" smooth="yes"/>
      <point x="141" y="522"/>
      <point x="33" y="416"/>
    </contour>
  </outline>
</glyph>
<glyph name="ucircumflex" format="2">
  <advance width="612"/>
  <unicode hex="00FB"/>
  <outline>
    <contour>
      <point x="405" y="418" type="curve" smooth="yes"/>
      <point x="405" y="124" type="line"/>
      <point x="372" y="65"/>
      <point x="324" y="26"/>
      <point x="283" y="26" type="curve" smooth="yes"/>
      <point x="240" y="26"/>
      <point x="211" y="70"/>
      <point x="211" y="136" type="curve" smooth="yes"/>
      <point x="211" y="546" type="line"/>
      <point x="201" y="546" type="line"/>
      <point x="187" y="523"/>
      <point x="158" y="508"/>
      <point x="87" y="508" type="curve" smooth="yes"/>
      <point x="-13" y="508" type="line"/>
      <point x="-13" y="498" type="line"/>
      <point x="55" y="498"/>
      <point x="68" y="466"/>
      <point x="68" y="418" type="curve" smooth="yes"/>
      <point x="68" y="146" type="line" smooth="yes"/>
      <point x="68" y="50"/>
      <point x="127" y="-14"/>
      <point x="216" y="-14" type="curve" smooth="yes"/>
      <point x="295" y="-14"/>
      <point x="372" y="33"/>
      <point x="407" y="101" type="curve"/>
      <point x="408" y="-28" type="line"/>
      <point x="413" y="-28" type="line"/>
      <point x="427" y="-6"/>
      <point x="460" y="0" name=".hr01"/>
      <point x="530" y="0" type="curve" smooth="yes"/>
      <point x="629" y="0" type="line"/>
      <point x="629" y="9" type="line"/>
      <point x="581" y="9"/>
      <point x="549" y="42"/>
      <point x="549" y="90" type="curve"/>
      <point x="550" y="546" type="line"/>
      <point x="540" y="546" type="line"/>
      <point x="526" y="523"/>
      <point x="496" y="508"/>
      <point x="426" y="508" type="curve" smooth="yes"/>
      <point x="325" y="508" type="line"/>
      <point x="325" y="498" type="line"/>
      <point x="382" y="498"/>
      <point x="405" y="466"/>
    </contour>
    <contour>
      <point x="330" y="784" type="line"/>
      <point x="279" y="784" type="line"/>
      <point x="152" y="588" type="line"/>
      <point x="159" y="581" type="line"/>
      <point x="305" y="714" type="line"/>
      <point x="451" y="581" type="line"/>
      <point x="458" y="588" type="line"/>
    </contour>
  </outline>
</glyph>
<glyph name="udieresis" format="2">
  <advance width="612"/>
  <unicode hex="00FC"/>
  <outline>
    <contour>
      <point x="405" y="418" type="curve" smooth="yes"/>
      <point x="405" y="124" type="line"/>
      <point x="372" y="65"/>
      <point x="324" y="26"/>
      <point x="283" y="26" type="curve" smooth="yes"/>
      <point x="240" y="26"/>
      <point x="211" y="70"/>
      <point x="211" y="136" type="curve" smooth="yes"/>
      <point x="211" y="546" type="line"/>
      <point x="201" y="546" type="line"/>
      <point x="187" y="523"/>
      <point x="158" y="508"/>
      <point x="87" y="508" type="curve" smooth="yes"/>
      <point x="-13" y="508" type="line"/>
      <point x="-13" y="498" type="line"/>
      <point x="55" y="498"/>
      <point x="68" y="466"/>
      <point x="68" y="418" type="curve" smooth="yes"/>
      <point x="68" y="146" type="line" smooth="yes"/>
      <point x="68" y="50"/>
      <point x="127" y="-14"/>
      <point x="216" y="-14" type="curve" smooth="yes"/>
      <point x="295" y="-14"/>
      <point x="372" y="33"/>
      <point x="407" y="101" type="curve"/>
      <point x="408" y="-28" type="line"/>
      <point x="413" y="-28" type="line"/>
      <point x="427" y="-6"/>
      <point x="460" y="0" name=".hr01"/>
      <point x="530" y="0" type="curve" smooth="yes"/>
      <point x="629" y="0" type="line"/>
      <point x="629" y="9" type="line"/>
      <point x="581" y="9"/>
      <point x="549" y="42"/>
      <point x="549" y="90" type="curve"/>
      <point x="550" y="546" type="line"/>
      <point x="540" y="546" type="line"/>
      <point x="526" y="523"/>
      <point x="496" y="508"/>
      <point x="426" y="508" type="curve" smooth="yes"/>
      <point x="325" y="508" type="line"/>
      <point x="325" y="498" type="line"/>
      <point x="382" y="498"/>
      <point x="405" y="466"/>
    </contour>
    <contour>
      <point x="131" y="679" type="curve" smooth="yes"/>
      <point x="131" y="638"/>
      <point x="165" y="604"/>
      <point x="206" y="604" type="curve" smooth="yes"/>
      <point x="246" y="604"/>
      <point x="281" y="638"/>
      <point x="281" y="679" type="curve" smooth="yes"/>
      <point x="281" y="720"/>
      <point x="246" y="754"/>
      <point x="206" y="754" type="curve" smooth="yes"/>
      <point x="165" y="754"/>
      <point x="131" y="720"/>
    </contour>
    <contour>
      <point x="329" y="679" type="curve" smooth="yes"/>
      <point x="329" y="638"/>
      <point x="363" y="604" name=".hr02"/>
      <point x="404" y="604" type="curve" smooth="yes"/>
      <point x="444" y="604"/>
      <point x="479" y="638"/>
      <point x="479" y="679" type="curve" smooth="yes"/>
      <point x="479" y="720"/>
      <point x="444" y="754"/>
      <point x="404" y="754" type="curve" smooth="yes"/>
      <point x="363" y="754"/>
      <point x="329" y="720"/>
    </contour>
  </outline>
</glyph>
<glyph name="yacute" format="2">
  <advance width="446"/>
  <unicode hex="00FD"/>
  <outline>
    <contour>
      <point x="412" y="402" type="line"/>
      <point x="437" y="458"/>
      <point x="455" y="491"/>
      <point x="485" y="498" type="curve"/>
      <point x="485" y="508" type="line"/>
      <point x="347" y="508" type="line"/>
      <point x="347" y="498" type="line"/>
      <point x="383" y="494"/>
      <point x="404" y="471" name=".hr01"/>
      <point x="404" y="438" type="curve" smooth="yes"/>
      <point x="404" y="425"/>
      <point x="401" y="409"/>
      <point x="394" y="393" type="curve" smooth="yes"/>
      <point x="293" y="156" type="line"/>
      <point x="192" y="393" type="line" smooth="yes"/>
      <point x="185" y="410"/>
      <point x="182" y="425"/>
      <point x="182" y="438" type="curve" smooth="yes"/>
      <point x="182" y="471"/>
      <point x="202" y="494"/>
      <point x="238" y="498" type="curve"/>
      <point x="238" y="508" type="line"/>
      <point x="-51" y="508" type="line"/>
      <point x="-51" y="498" type="line"/>
      <point x="-13" y="497"/>
      <point x="7" y="475"/>
      <point x="21" y="444" type="curve" smooth="yes"/>
      <point x="219" y="-15" type="line"/>
      <point x="208" y="-42" type="line" smooth="yes"/>
      <point x="184" y="-97"/>
      <point x="136" y="-115"/>
      <point x="86" y="-115" type="curve" smooth="yes"/>
      <point x="46" y="-115"/>
      <point x="5" y="-104"/>
      <point x="-28" y="-91" type="curve"/>
      <point x="-67" y="-208" type="line" name=".hr02"/>
      <point x="-40" y="-219"/>
      <point x="-13" y="-224"/>
      <point x="12" y="-224" type="curve" smooth="yes"/>
      <point x="94" y="-224"/>
      <point x="166" y="-170"/>
      <point x="208" y="-72" type="curve" smooth="yes"/>
    </contour>
    <contour>
      <point x="421" y="721" type="line"/>
      <point x="421" y="726" type="line"/>
      <point x="357" y="784" type="line"/>
      <point x="352" y="784" type="line"/>
      <point x="214" y="591" type="line"/>
      <point x="221" y="581" type="line"/>
    </contour>
  </outline>
</glyph>
<glyph name="Aogonek" format="2">
  <advance width="684"/>
  <unicode hex="0104"/>
  <outline>
    <contour>
      <point x="77" y="119" type="line" smooth="yes"/>
      <point x="55" y="66"/>
      <point x="13" y="13"/>
      <point x="-24" y="10" type="curve"/>
      <point x="-24" y="0" type="line"/>
      <point x="171" y="0" type="line"/>
      <point x="171" y="10" type="line"/>
      <point x="105" y="13"/>
      <point x="70" y="66"/>
      <point x="94" y="124" type="curve" smooth="yes"/>
      <point x="150" y="263" type="line"/>
      <point x="391" y="263" type="line"/>
      <point x="451" y="114" type="line" smooth="yes"/>
      <point x="477" y="49"/>
      <point x="455" y="10"/>
      <point x="395" y="10" type="curve" smooth="yes"/>
      <point x="391" y="10" type="line"/>
      <point x="391" y="0" type="line"/>
      <point x="603.601" y="0" type="line"/>
      <point x="539.507" y="-16.5028"/>
      <point x="499" y="-65.9242"/>
      <point x="499" y="-133" type="curve" smooth="yes"/>
      <point x="499" y="-191"/>
      <point x="539" y="-225"/>
      <point x="608" y="-225" type="curve" smooth="yes"/>
      <point x="640" y="-225"/>
      <point x="657" y="-218"/>
      <point x="692" y="-218" type="curve"/>
      <point x="711" y="-119" type="line"/>
      <point x="700" y="-119" type="line"/>
      <point x="688" y="-171"/>
      <point x="656" y="-208"/>
      <point x="623" y="-208" type="curve" smooth="yes"/>
      <point x="595" y="-208"/>
      <point x="579" y="-183"/>
      <point x="579" y="-140" type="curve" smooth="yes"/>
      <point x="579" y="-74"/>
      <point x="616" y="-15"/>
      <point x="667" y="0" type="curve"/>
      <point x="711" y="0" type="line"/>
      <point x="711" y="10" type="line"/>
      <point x="708" y="10" type="line" smooth="yes"/>
      <point x="673" y="10"/>
      <point x="639" y="48"/>
      <point x="610" y="119" type="curve" smooth="yes"/>
      <point x="350" y="765" type="line"/>
      <point x="341" y="765" type="line"/>
    </contour>
    <contour>
      <point x="386" y="276" type="line"/>
      <point x="155" y="276" type="line"/>
      <point x="272" y="564" type="line"/>
    </contour>
  </outline>
</glyph>
<glyph name="aogonek" format="2">
  <advance width="551"/>
  <unicode hex="0105"/>
  <outline>
    <contour>
      <point x="283" y="523" type="curve" smooth="yes"/>
      <point x="182" y="523"/>
      <point x="90" y="468"/>
      <point x="55" y="386" type="curve"/>
      <point x="163" y="324" type="line"/>
      <point x="175" y="439"/>
      <point x="213" y="509"/>
      <point x="263" y="510" type="curve"/>
      <point x="305" y="510"/>
      <point x="331" y="462"/>
      <point x="331" y="386" type="curve" smooth="yes"/>
      <point x="331" y="311" type="line"/>
      <point x="238" y="277" type="line" smooth="yes"/>
      <point x="62" y="213"/>
      <point x="31" y="166"/>
      <point x="31" y="106" type="curve" smooth="yes"/>
      <point x="31" y="34"/>
      <point x="85" y="-14"/>
      <point x="166" y="-14" type="curve" smooth="yes"/>
      <point x="223" y="-14"/>
      <point x="266" y="11"/>
      <point x="332" y="81" type="curve"/>
      <point x="339.261" y="35.0118"/>
      <point x="366.69" y="1.42475"/>
      <point x="403.806" y="-9.84907" type="curve"/>
      <point x="356" y="-32"/>
      <point x="327" y="-77"/>
      <point x="327" y="-129" type="curve" smooth="yes"/>
      <point x="327" y="-190"/>
      <point x="366" y="-225"/>
      <point x="436" y="-225" type="curve" smooth="yes"/>
      <point x="468" y="-225"/>
      <point x="485" y="-218"/>
      <point x="520" y="-218" type="curve"/>
      <point x="539" y="-119" type="line"/>
      <point x="528" y="-119" type="line"/>
      <point x="516" y="-171"/>
      <point x="484" y="-208"/>
      <point x="451" y="-208" type="curve" smooth="yes"/>
      <point x="423" y="-208"/>
      <point x="407" y="-183"/>
      <point x="407" y="-140" type="curve" smooth="yes"/>
      <point x="407" y="-80"/>
      <point x="438" y="-29"/>
      <point x="492" y="0" type="curve" smooth="yes"/>
      <point x="518" y="14"/>
      <point x="546.532" y="36.7064"/>
      <point x="567" y="65" type="curve"/>
      <point x="559" y="72" type="line"/>
      <point x="544" y="55"/>
      <point x="530" y="47"/>
      <point x="514" y="47" type="curve" smooth="yes"/>
      <point x="489" y="47"/>
      <point x="474" y="68"/>
      <point x="475" y="105" type="curve"/>
      <point x="475" y="346" type="line" smooth="yes"/>
      <point x="475" y="453"/>
      <point x="398" y="523"/>
    </contour>
    <contour>
      <point x="330" y="95" type="line"/>
      <point x="296" y="62"/>
      <point x="270" y="48"/>
      <point x="241" y="48" type="curve" smooth="yes"/>
      <point x="197" y="48"/>
      <point x="165" y="89"/>
      <point x="165" y="146" type="curve" smooth="yes"/>
      <point x="165" y="204"/>
      <point x="186" y="243"/>
      <point x="291" y="283" type="curve" smooth="yes"/>
      <point x="331" y="298" type="line"/>
    </contour>
  </outline>
</glyph>
<glyph name="Dcroat" format="2">
  <advance width="827"/>
  <unicode hex="0110"/>
  <outline>
    <contour>
      <point x="305" y="13" type="line" smooth="yes"/>
      <point x="253" y="13"/>
      <point x="235" y="42"/>
      <point x="235" y="84" type="curve" smooth="yes"/>
      <point x="235" y="369" type="line"/>
      <point x="426" y="369" type="line"/>
      <point x="426" y="382" type="line"/>
      <point x="235" y="382" type="line"/>
      <point x="235" y="736" type="line"/>
      <point x="323" y="736" type="line" smooth="yes"/>
      <point x="502" y="736"/>
      <point x="620" y="612"/>
      <point x="620" y="376" type="curve" smooth="yes"/>
      <point x="620" y="139"/>
      <point x="502" y="13"/>
      <point x="323" y="13" type="curve" smooth="yes"/>
    </contour>
    <contour>
      <point x="323" y="0" type="line" smooth="yes"/>
      <point x="605" y="0"/>
      <point x="790" y="130"/>
      <point x="790" y="374" type="curve" smooth="yes"/>
      <point x="790" y="620"/>
      <point x="605" y="750"/>
      <point x="323" y="750" type="curve" smooth="yes"/>
      <point x="1" y="750" type="line"/>
      <point x="1" y="740" type="line" name=".hr01"/>
      <point x="47" y="740"/>
      <point x="81" y="710"/>
      <point x="81" y="665" type="curve" smooth="yes"/>
      <point x="81" y="381" type="line"/>
      <point x="0" y="381" type="line"/>
      <point x="0" y="368" type="line"/>
      <point x="81" y="368" type="line"/>
      <point x="81" y="84" type="line" smooth="yes"/>
      <point x="81" y="39"/>
      <point x="49" y="10"/>
      <point x="0" y="10" type="curve"/>
      <point x="0" y="0" type="line"/>
    </contour>
  </outline>
</glyph>
<glyph name="Eogonek" format="2">
  <advance width="606"/>
  <unicode hex="0118"/>
  <outline>
    <contour>
      <point x="314" y="13" type="line" smooth="yes"/>
      <point x="267" y="13"/>
      <point x="244" y="37"/>
      <point x="244" y="84" type="curve" smooth="yes"/>
      <point x="244" y="435" type="line"/>
      <point x="323" y="435" type="line" smooth="yes"/>
      <point x="395" y="435"/>
      <point x="443" y="385"/>
      <point x="444" y="313" type="curve"/>
      <point x="454" y="313" type="line"/>
      <point x="454" y="559" type="line"/>
      <point x="444" y="559" type="line"/>
      <point x="444" y="493"/>
      <point x="400" y="448"/>
      <point x="334" y="448" type="curve" smooth="yes"/>
      <point x="244" y="448" type="line"/>
      <point x="244" y="737" type="line"/>
      <point x="328" y="737" type="line" smooth="yes"/>
      <point x="466" y="737"/>
      <point x="545" y="674"/>
      <point x="565" y="549" type="curve"/>
      <point x="575" y="549" type="line"/>
      <point x="545" y="750" type="line"/>
      <point x="9" y="750" type="line"/>
      <point x="10" y="740" type="line" name=".hr01"/>
      <point x="58" y="740"/>
      <point x="90" y="708"/>
      <point x="90" y="660" type="curve" smooth="yes"/>
      <point x="90" y="84" type="line" smooth="yes"/>
      <point x="90" y="36"/>
      <point x="58" y="10"/>
      <point x="10" y="10" type="curve" smooth="yes"/>
      <point x="9" y="10" type="line"/>
      <point x="8" y="0" type="line"/>
      <point x="475.601" y="0" type="line"/>
      <point x="411.507" y="-16.5028"/>
      <point x="371" y="-65.9242"/>
      <point x="371" y="-133" type="curve" smooth="yes"/>
      <point x="371" y="-191"/>
      <point x="411" y="-225"/>
      <point x="480" y="-225" type="curve" smooth="yes"/>
      <point x="512" y="-225"/>
      <point x="529" y="-218"/>
      <point x="564" y="-218" type="curve"/>
      <point x="583" y="-119" type="line"/>
      <point x="572" y="-119" type="line"/>
      <point x="560" y="-171"/>
      <point x="528" y="-208"/>
      <point x="495" y="-208" type="curve" smooth="yes"/>
      <point x="467" y="-208"/>
      <point x="451" y="-183"/>
      <point x="451" y="-140" type="curve" smooth="yes"/>
      <point x="451" y="-74"/>
      <point x="488" y="-15"/>
      <point x="539" y="0" type="curve"/>
      <point x="563" y="0" type="line"/>
      <point x="593" y="220" type="line"/>
      <point x="583" y="220" type="line"/>
      <point x="562" y="78"/>
      <point x="484" y="13" name=".hr02"/>
      <point x="356" y="13" type="curve" smooth="yes"/>
    </contour>
  </outline>
</glyph>
<glyph name="eogonek" format="2">
  <advance width="537"/>
  <unicode hex="0119"/>
  <outline>
    <contour>
      <point x="33" y="255" type="curve" smooth="yes"/>
      <point x="33" y="102.995"/>
      <point x="122.763" y="-3.63757"/>
      <point x="253.346" y="-11.5125" type="curve"/>
      <point x="207.62" y="-34.2315"/>
      <point x="180" y="-77.6016"/>
      <point x="180" y="-133" type="curve" smooth="yes"/>
      <point x="180" y="-191"/>
      <point x="220" y="-225"/>
      <point x="289" y="-225" type="curve" smooth="yes"/>
      <point x="321" y="-225"/>
      <point x="338" y="-218"/>
      <point x="373" y="-218" type="curve"/>
      <point x="392" y="-119" type="line"/>
      <point x="381" y="-119" type="line"/>
      <point x="369" y="-171"/>
      <point x="337" y="-208"/>
      <point x="304" y="-208" type="curve" smooth="yes"/>
      <point x="276" y="-208"/>
      <point x="260" y="-183"/>
      <point x="260" y="-140" type="curve" smooth="yes"/>
      <point x="260" y="-74"/>
      <point x="297" y="-15"/>
      <point x="348" y="0.0411892" type="curve" smooth="yes"/>
      <point x="424.462" y="23.9444"/>
      <point x="487.417" y="81.9929"/>
      <point x="513" y="161" type="curve"/>
      <point x="504" y="164" type="line"/>
      <point x="468" y="111"/>
      <point x="405" y="77"/>
      <point x="342" y="77" type="curve" smooth="yes"/>
      <point x="237" y="77"/>
      <point x="168" y="170"/>
      <point x="169" y="310" type="curve"/>
      <point x="169" y="315" type="line"/>
      <point x="505" y="315" type="line"/>
      <point x="504" y="330" type="line"/>
      <point x="500" y="444"/>
      <point x="412" y="522"/>
      <point x="287" y="522" type="curve" smooth="yes"/>
      <point x="139" y="522"/>
      <point x="33" y="414"/>
    </contour>
    <contour>
      <point x="170" y="330" type="line"/>
      <point x="175" y="437"/>
      <point x="218" y="507"/>
      <point x="276" y="507" type="curve" smooth="yes"/>
      <point x="335" y="508"/>
      <point x="373" y="437"/>
      <point x="373" y="330" type="curve"/>
    </contour>
  </outline>
</glyph>
<glyph name="Gdotaccent" format="2">
  <advance width="825"/>
  <unicode hex="0120"/>
  <outline>
    <component base="G"/>
    <contour>
      <point x="358" y="881" type="curve" smooth="yes"/>
      <point x="358" y="840"/>
      <point x="392" y="806"/>
      <point x="433" y="806" type="curve" smooth="yes"/>
      <point x="473" y="806"/>
      <point x="508" y="840"/>
      <point x="508" y="881" type="curve" smooth="yes"/>
      <point x="508" y="922"/>
      <point x="473" y="956"/>
      <point x="433" y="956" type="curve" smooth="yes"/>
      <point x="392" y="956"/>
      <point x="358" y="922"/>
    </contour>
  </outline>
</glyph>
<glyph name="Hbar" format="2">
  <advance width="805"/>
  <unicode hex="0126"/>
  <outline>
    <contour>
      <point x="238" y="428" type="line"/>
      <point x="238" y="660" type="line" smooth="yes"/>
      <point x="238" y="708"/>
      <point x="270" y="740"/>
      <point x="318" y="740" type="curve" smooth="yes"/>
      <point x="320" y="740" type="line"/>
      <point x="320" y="750" type="line"/>
      <point x="0" y="750" type="line"/>
      <point x="0" y="740" type="line"/>
      <point x="4" y="740" type="line" smooth="yes"/>
      <point x="52" y="740"/>
      <point x="84" y="708"/>
      <point x="84" y="660" type="curve" smooth="yes"/>
      <point x="84" y="90" type="line" smooth="yes"/>
      <point x="84" y="42"/>
      <point x="52" y="10"/>
      <point x="4" y="10" type="curve" smooth="yes"/>
      <point x="0" y="10" type="line"/>
      <point x="0" y="0" type="line"/>
      <point x="320" y="0" type="line"/>
      <point x="320" y="10" type="line"/>
      <point x="318" y="10" type="line" smooth="yes"/>
      <point x="270" y="10"/>
      <point x="238" y="42"/>
      <point x="238" y="90" type="curve" smooth="yes"/>
      <point x="238" y="414" type="line"/>
      <point x="568" y="414" type="line"/>
      <point x="568" y="90" type="line" smooth="yes"/>
      <point x="568" y="42"/>
      <point x="536" y="10"/>
      <point x="488" y="10" type="curve" smooth="yes"/>
      <point x="485" y="10" type="line"/>
      <point x="485" y="0" type="line"/>
      <point x="805" y="0" type="line"/>
      <point x="805" y="10" type="line"/>
      <point x="802" y="10" type="line" smooth="yes"/>
      <point x="754" y="10"/>
      <point x="722" y="42"/>
      <point x="722" y="90" type="curve" smooth="yes"/>
      <point x="722" y="660" type="line" smooth="yes"/>
      <point x="722" y="708"/>
      <point x="754" y="740"/>
      <point x="802" y="740" type="curve" smooth="yes"/>
      <point x="805" y="740" type="line"/>
      <point x="805" y="750" type="line"/>
      <point x="485" y="750" type="line"/>
      <point x="485" y="740" type="line"/>
      <point x="488" y="740" type="line" smooth="yes"/>
      <point x="536" y="740"/>
      <point x="568" y="708"/>
      <point x="568" y="660" type="curve" smooth="yes"/>
      <point x="568" y="428" type="line"/>
    </contour>
    <contour>
      <point x="7" y="542" type="line"/>
      <point x="799" y="542" type="line"/>
      <point x="799" y="556" type="line"/>
      <point x="7" y="556" type="line"/>
    </contour>
  </outline>
</glyph>
<glyph name="hbar" format="2">
  <advance width="631"/>
  <unicode hex="0127"/>
  <outline>
    <contour>
      <point x="1" y="604" type="line"/>
      <point x="1" y="619" type="line"/>
      <point x="81" y="619" type="line"/>
      <point x="81" y="660" type="line" smooth="yes"/>
      <point x="81" y="708"/>
      <point x="48" y="740"/>
      <point x="0" y="740" type="curve"/>
      <point x="0" y="750" type="line"/>
      <point x="102" y="750" type="line" smooth="yes"/>
      <point x="172" y="750"/>
      <point x="201" y="765"/>
      <point x="215" y="788" type="curve"/>
      <point x="225" y="788" type="line"/>
      <point x="225" y="619" type="line"/>
      <point x="360" y="619" type="line"/>
      <point x="360" y="604" type="line"/>
      <point x="225" y="604" type="line"/>
      <point x="225" y="408" type="line"/>
      <point x="261" y="478"/>
      <point x="337" y="522"/>
      <point x="415" y="522" type="curve" smooth="yes"/>
      <point x="509" y="522"/>
      <point x="563" y="452"/>
      <point x="563" y="362" type="curve" smooth="yes"/>
      <point x="563" y="90" type="line" smooth="yes"/>
      <point x="563" y="41"/>
      <point x="596" y="10"/>
      <point x="644" y="10" type="curve"/>
      <point x="644" y="0" type="line"/>
      <point x="339" y="0" type="line"/>
      <point x="339" y="10" type="line"/>
      <point x="387" y="10"/>
      <point x="420" y="41"/>
      <point x="420" y="90" type="curve" smooth="yes"/>
      <point x="420" y="372" type="line" smooth="yes"/>
      <point x="420" y="416"/>
      <point x="404" y="482"/>
      <point x="349" y="482" type="curve" smooth="yes"/>
      <point x="296" y="482"/>
      <point x="248" y="424"/>
      <point x="225" y="382" type="curve"/>
      <point x="225" y="112" type="line"/>
      <point x="226" y="59" name=".hr01"/>
      <point x="234" y="10"/>
      <point x="306" y="10" type="curve"/>
      <point x="306" y="0" type="line"/>
      <point x="0" y="0" type="line"/>
      <point x="0" y="10" type="line"/>
      <point x="72" y="10"/>
      <point x="80" y="59"/>
      <point x="81" y="112" type="curve" name=".hr02"/>
      <point x="81" y="604" type="line"/>
    </contour>
  </outline>
</glyph>
<glyph name="Iogonek" format="2">
  <advance width="317"/>
  <unicode hex="012E"/>
  <outline>
    <contour>
      <point x="316" y="10" type="line" smooth="yes"/>
      <point x="268" y="10"/>
      <point x="236" y="42"/>
      <point x="236" y="90" type="curve" smooth="yes"/>
      <point x="236" y="660" type="line" smooth="yes"/>
      <point x="236" y="708"/>
      <point x="268" y="740"/>
      <point x="316" y="740" type="curve" smooth="yes"/>
      <point x="317" y="740" type="line"/>
      <point x="317" y="750" type="line"/>
      <point x="0" y="750" type="line"/>
      <point x="0" y="740" type="line"/>
      <point x="1" y="740" type="line" smooth="yes"/>
      <point x="49" y="740"/>
      <point x="81" y="708"/>
      <point x="81" y="660" type="curve" smooth="yes"/>
      <point x="81" y="90" type="line" smooth="yes"/>
      <point x="81" y="42"/>
      <point x="49" y="10"/>
      <point x="1" y="10" type="curve" smooth="yes"/>
      <point x="0" y="10" type="line"/>
      <point x="0" y="0" type="line"/>
      <point x="159.601" y="0" type="line"/>
      <point x="95.5066" y="-16.5028"/>
      <point x="55" y="-65.9242"/>
      <point x="55" y="-133" type="curve" smooth="yes"/>
      <point x="55" y="-191"/>
      <point x="95" y="-225"/>
      <point x="164" y="-225" type="curve" smooth="yes"/>
      <point x="196" y="-225"/>
      <point x="213" y="-218"/>
      <point x="248" y="-218" type="curve"/>
      <point x="267" y="-119" type="line"/>
      <point x="256" y="-119" type="line"/>
      <point x="244" y="-171"/>
      <point x="212" y="-208"/>
      <point x="179" y="-208" type="curve" smooth="yes"/>
      <point x="151" y="-208"/>
      <point x="135" y="-183"/>
      <point x="135" y="-140" type="curve" smooth="yes"/>
      <point x="135" y="-74"/>
      <point x="172" y="-15"/>
      <point x="223" y="0" type="curve"/>
      <point x="317" y="0" type="line"/>
      <point x="317" y="10" type="line"/>
    </contour>
  </outline>
</glyph>
<glyph name="iogonek" format="2">
  <advance width="297"/>
  <unicode hex="012F"/>
  <outline>
    <contour>
      <point x="72" y="697" type="curve" smooth="yes"/>
      <point x="72" y="649"/>
      <point x="107" y="614"/>
      <point x="155" y="614" type="curve" smooth="yes"/>
      <point x="202" y="614"/>
      <point x="237" y="651"/>
      <point x="237" y="697" type="curve" smooth="yes"/>
      <point x="237" y="744"/>
      <point x="202" y="780"/>
      <point x="155" y="780" type="curve" smooth="yes"/>
      <point x="107" y="780"/>
      <point x="72" y="745"/>
    </contour>
    <contour>
      <point x="312" y="10" type="line" smooth="yes"/>
      <point x="264" y="10"/>
      <point x="232" y="42"/>
      <point x="232" y="90" type="curve" smooth="yes" name=".hr01"/>
      <point x="232" y="546" type="line"/>
      <point x="222" y="546" type="line"/>
      <point x="208" y="523"/>
      <point x="179" y="508"/>
      <point x="109" y="508" type="curve" smooth="yes"/>
      <point x="7" y="508" type="line"/>
      <point x="7" y="498" type="line"/>
      <point x="75" y="498"/>
      <point x="87" y="466"/>
      <point x="88" y="418" type="curve"/>
      <point x="88" y="90" type="line" smooth="yes"/>
      <point x="88" y="42"/>
      <point x="56" y="10"/>
      <point x="8" y="10" type="curve" smooth="yes"/>
      <point x="7" y="10" type="line"/>
      <point x="7" y="0" type="line"/>
      <point x="207.601" y="0" type="line"/>
      <point x="143.507" y="-16.5028"/>
      <point x="103" y="-65.9242"/>
      <point x="103" y="-133" type="curve" smooth="yes"/>
      <point x="103" y="-191"/>
      <point x="143" y="-225"/>
      <point x="212" y="-225" type="curve" smooth="yes"/>
      <point x="244" y="-225"/>
      <point x="261" y="-218"/>
      <point x="296" y="-218" type="curve"/>
      <point x="315" y="-119" type="line"/>
      <point x="304" y="-119" type="line"/>
      <point x="292" y="-171"/>
      <point x="260" y="-208"/>
      <point x="227" y="-208" type="curve" smooth="yes"/>
      <point x="199" y="-208"/>
      <point x="183" y="-183"/>
      <point x="183" y="-140" type="curve" smooth="yes"/>
      <point x="183" y="-74"/>
      <point x="220" y="-15"/>
      <point x="271" y="0" type="curve"/>
      <point x="313" y="0" type="line"/>
      <point x="313" y="10" type="line"/>
    </contour>
  </outline>
</glyph>
<glyph name="Idotaccent" format="2">
  <advance width="317"/>
  <unicode hex="0130"/>
  <outline>
    <component base="I"/>
    <contour>
      <point x="84" y="881" type="curve" smooth="yes"/>
      <point x="84" y="840"/>
      <point x="118" y="806"/>
      <point x="159" y="806" type="curve" smooth="yes"/>
      <point x="199" y="806"/>
      <point x="234" y="840"/>
      <point x="234" y="881" type="curve" smooth="yes"/>
      <point x="234" y="922"/>
      <point x="199" y="956"/>
      <point x="159" y="956" type="curve" smooth="yes"/>
      <point x="118" y="956"/>
      <point x="84" y="922"/>
    </contour>
  </outline>
</glyph>
<glyph name="dotlessi" format="2">
  <advance width="297"/>
  <unicode hex="0131"/>
  <outline>
    <contour>
      <point x="312" y="10" type="line"/>
      <point x="264" y="10"/>
      <point x="232" y="42"/>
      <point x="232" y="90" type="curve" smooth="yes"/>
      <point x="232" y="546" type="line"/>
      <point x="222" y="546" type="line"/>
      <point x="208" y="523"/>
      <point x="179" y="508"/>
      <point x="109" y="508" type="curve" smooth="yes"/>
      <point x="7" y="508" type="line"/>
      <point x="7" y="498" type="line"/>
      <point x="75" y="498"/>
      <point x="87" y="466"/>
      <point x="88" y="418" type="curve"/>
      <point x="88" y="90" type="line" smooth="yes"/>
      <point x="88" y="42"/>
      <point x="56" y="10"/>
      <point x="8" y="10" type="curve"/>
      <point x="7" y="10" type="line"/>
      <point x="7" y="0" type="line"/>
      <point x="313" y="0" type="line"/>
      <point x="313" y="10" type="line"/>
    </contour>
  </outline>
</glyph>
<glyph name="Eng" format="2">
  <advance width="749"/>
  <unicode hex="014A"/>
  <outline>
    <contour>
      <point x="677" y="660" type="line" smooth="yes"/>
      <point x="677" y="708"/>
      <point x="709" y="740"/>
      <point x="757" y="740" type="curve" smooth="yes"/>
      <point x="758" y="740" type="line"/>
      <point x="758" y="750" type="line"/>
      <point x="444" y="750" type="line"/>
      <point x="444" y="740" type="line"/>
      <point x="446" y="740" type="line" smooth="yes"/>
      <point x="494" y="740"/>
      <point x="526" y="708"/>
      <point x="526" y="660" type="curve" smooth="yes"/>
      <point x="526" y="397.809" type="line"/>
      <point x="253" y="750" type="line"/>
      <point x="-4" y="750" type="line"/>
      <point x="-4" y="740" type="line"/>
      <point x="28" y="737"/>
      <point x="62" y="723"/>
      <point x="91" y="701" type="curve"/>
      <point x="91" y="116" type="line" smooth="yes"/>
      <point x="91" y="58"/>
      <point x="53" y="10"/>
      <point x="-5" y="10" type="curve"/>
      <point x="-5" y="0" type="line"/>
      <point x="203" y="0" type="line"/>
      <point x="203" y="10" type="line"/>
      <point x="146" y="10"/>
      <point x="108" y="58"/>
      <point x="108" y="115" type="curve" smooth="yes"/>
      <point x="108" y="687" type="line"/>
      <point x="117" y="679"/>
      <point x="130" y="666"/>
      <point x="139" y="654" type="curve"/>
      <point x="526" y="160.649" type="line"/>
      <point x="526" y="62" type="line" smooth="yes"/>
      <point x="526" y="-77"/>
      <point x="489" y="-173"/>
      <point x="434" y="-178" type="curve"/>
      <point x="435" y="-187" type="line"/>
      <point x="580" y="-174"/>
      <point x="677" y="-74"/>
      <point x="677" y="62" type="curve" smooth="yes"/>
    </contour>
  </outline>
</glyph>
<glyph name="eng" format="2">
  <advance width="636"/>
  <unicode hex="014B"/>
  <outline>
    <contour>
      <point x="568" y="362" type="line" smooth="yes"/>
      <point x="568" y="458"/>
      <point x="509" y="522"/>
      <point x="420" y="522" type="curve" smooth="yes"/>
      <point x="341" y="522"/>
      <point x="264" y="475"/>
      <point x="229" y="406" type="curve"/>
      <point x="228" y="546" type="line"/>
      <point x="218" y="546" type="line"/>
      <point x="204" y="523"/>
      <point x="175" y="508" name=".hr01"/>
      <point x="105" y="508" type="curve" smooth="yes"/>
      <point x="6" y="508" type="line"/>
      <point x="6" y="498" type="line"/>
      <point x="74" y="498"/>
      <point x="86" y="466"/>
      <point x="87" y="418" type="curve"/>
      <point x="87" y="90" type="line" smooth="yes"/>
      <point x="87" y="42"/>
      <point x="55" y="10"/>
      <point x="7" y="10" type="curve" smooth="yes"/>
      <point x="6" y="10" type="line"/>
      <point x="6" y="0" type="line"/>
      <point x="312" y="0" type="line"/>
      <point x="312" y="10" type="line"/>
      <point x="311" y="10" type="line" smooth="yes"/>
      <point x="263" y="10"/>
      <point x="231" y="42"/>
      <point x="231" y="90" type="curve" smooth="yes"/>
      <point x="231" y="384" type="line"/>
      <point x="264" y="443"/>
      <point x="313" y="482" name=".hr02"/>
      <point x="354" y="482" type="curve" smooth="yes"/>
      <point x="396" y="482"/>
      <point x="425" y="438" name=".hr03"/>
      <point x="425" y="372" type="curve" smooth="yes"/>
      <point x="424" y="-88" type="line" smooth="yes"/>
      <point x="424" y="-163"/>
      <point x="392" y="-213"/>
      <point x="343" y="-213" type="curve"/>
      <point x="343" y="-224" type="line"/>
      <point x="478" y="-224"/>
      <point x="568" y="-124"/>
      <point x="568" y="25" type="curve" smooth="yes"/>
    </contour>
  </outline>
</glyph>
<glyph name="Scedilla" format="2">
  <advance width="510"/>
  <unicode hex="015E"/>
  <outline>
    <contour>
      <point x="264" y="749" type="curve" smooth="yes"/>
      <point x="350" y="749"/>
      <point x="416" y="671"/>
      <point x="435" y="548" type="curve"/>
      <point x="445" y="548" type="line"/>
      <point x="435" y="750" type="line" name=".hr01"/>
      <point x="354" y="750"/>
      <point x="333" y="764" name=".hr02"/>
      <point x="270" y="764" type="curve" smooth="yes"/>
      <point x="126" y="764"/>
      <point x="35" y="691"/>
      <point x="35" y="575" type="curve" smooth="yes"/>
      <point x="35" y="503"/>
      <point x="70" y="450"/>
      <point x="168" y="375" type="curve" smooth="yes"/>
      <point x="209" y="344" type="line" smooth="yes"/>
      <point x="340" y="244"/>
      <point x="381" y="193"/>
      <point x="381" y="130" type="curve" smooth="yes"/>
      <point x="381" y="56"/>
      <point x="323" y="4"/>
      <point x="241" y="4" type="curve" smooth="yes"/>
      <point x="130" y="4"/>
      <point x="55" y="97"/>
      <point x="35" y="260" type="curve"/>
      <point x="23" y="260" type="line"/>
      <point x="58" y="0" type="line" name=".hr03"/>
      <point x="159" y="0"/>
      <point x="173" y="-14" name=".hr04"/>
      <point x="236.362" y="-13.9727" type="curve"/>
      <point x="219" y="-57" type="line"/>
      <point x="219" y="-63" type="line"/>
      <point x="251" y="-69"/>
      <point x="276" y="-106"/>
      <point x="276" y="-150" type="curve" smooth="yes"/>
      <point x="276" y="-186"/>
      <point x="259" y="-208"/>
      <point x="233" y="-208" type="curve" smooth="yes"/>
      <point x="202" y="-208"/>
      <point x="178" y="-177"/>
      <point x="165" y="-119" type="curve"/>
      <point x="154" y="-119" type="line"/>
      <point x="173" y="-218" type="line" name=".hr05"/>
      <point x="208" y="-218"/>
      <point x="215" y="-225" name=".hr06"/>
      <point x="247" y="-225" type="curve" smooth="yes"/>
      <point x="313" y="-225"/>
      <point x="356" y="-193"/>
      <point x="356" y="-145" type="curve" smooth="yes"/>
      <point x="356" y="-92"/>
      <point x="307" y="-57"/>
      <point x="233" y="-56" type="curve"/>
      <point x="250.458" y="-13.4944" type="line"/>
      <point x="397.958" y="-5.86369"/>
      <point x="497" y="83.476"/>
      <point x="497" y="213" type="curve" smooth="yes"/>
      <point x="497" y="299"/>
      <point x="453" y="361"/>
      <point x="320" y="461" type="curve" smooth="yes"/>
      <point x="277" y="493" type="line" smooth="yes"/>
      <point x="193" y="556"/>
      <point x="163" y="598"/>
      <point x="163" y="650" type="curve" smooth="yes"/>
      <point x="163" y="710"/>
      <point x="203" y="749"/>
    </contour>
  </outline>
</glyph>
<glyph name="scedilla" format="2">
  <advance width="416"/>
  <unicode hex="015F"/>
  <outline>
    <contour>
      <point x="226" y="508" type="curve" smooth="yes"/>
      <point x="284" y="508"/>
      <point x="345" y="441"/>
      <point x="358" y="347" type="curve"/>
      <point x="370" y="347" type="line"/>
      <point x="356" y="508" type="line"/>
      <point x="276" y="508"/>
      <point x="273" y="522" name=".hr01"/>
      <point x="219" y="522" type="curve" smooth="yes"/>
      <point x="110" y="523"/>
      <point x="37" y="467"/>
      <point x="37" y="376" type="curve" smooth="yes"/>
      <point x="37" y="313"/>
      <point x="72" y="255"/>
      <point x="145" y="214" type="curve" smooth="yes"/>
      <point x="174" y="198" type="line" smooth="yes"/>
      <point x="268" y="146"/>
      <point x="301" y="122"/>
      <point x="301" y="77" type="curve" smooth="yes"/>
      <point x="301" y="29"/>
      <point x="264" y="-1"/>
      <point x="197" y="-1" type="curve" smooth="yes"/>
      <point x="134" y="-1"/>
      <point x="61" y="56"/>
      <point x="41" y="188" type="curve"/>
      <point x="28" y="188" type="line"/>
      <point x="52" y="0" type="line"/>
      <point x="144.41" y="0"/>
      <point x="141.484" y="-11.7014"/>
      <point x="189.322" y="-13.6949" type="curve"/>
      <point x="172" y="-57" type="line"/>
      <point x="172" y="-63" type="line"/>
      <point x="204" y="-69"/>
      <point x="229" y="-106" name=".hr02"/>
      <point x="229" y="-150" type="curve" smooth="yes"/>
      <point x="229" y="-186"/>
      <point x="212" y="-208"/>
      <point x="186" y="-208" type="curve" smooth="yes"/>
      <point x="155" y="-208"/>
      <point x="131" y="-177"/>
      <point x="118" y="-119" type="curve"/>
      <point x="107" y="-119" type="line"/>
      <point x="126" y="-218" type="line" name=".hr03"/>
      <point x="161" y="-218"/>
      <point x="168" y="-225" name=".hr04"/>
      <point x="200" y="-225" type="curve" smooth="yes"/>
      <point x="266" y="-225"/>
      <point x="309" y="-193"/>
      <point x="309" y="-145" type="curve" smooth="yes"/>
      <point x="309" y="-92"/>
      <point x="260" y="-57"/>
      <point x="186" y="-56" type="curve"/>
      <point x="203.115" y="-13.9901" type="line"/>
      <point x="328" y="-13"/>
      <point x="392" y="42" name=".hr05"/>
      <point x="392" y="144" type="curve" smooth="yes"/>
      <point x="392" y="225"/>
      <point x="351" y="271"/>
      <point x="258" y="319" type="curve" smooth="yes"/>
      <point x="228" y="334" type="line"/>
      <point x="162" y="369"/>
      <point x="143" y="396"/>
      <point x="143" y="432" type="curve" smooth="yes"/>
      <point x="143" y="480"/>
      <point x="175" y="508"/>
    </contour>
  </outline>
</glyph>
<glyph name="Uogonek" format="2">
  <advance width="745"/>
  <unicode hex="0172"/>
  <outline>
    <contour>
      <point x="79" y="263" type="line" smooth="yes"/>
      <point x="79" y="94"/>
      <point x="192" y="-14"/>
      <point x="369.615" y="-13.972" type="curve"/>
      <point x="326.722" y="-37.2803"/>
      <point x="301" y="-79.5394"/>
      <point x="301" y="-133" type="curve" smooth="yes"/>
      <point x="301" y="-191"/>
      <point x="341" y="-225"/>
      <point x="410" y="-225" type="curve" smooth="yes"/>
      <point x="442" y="-225"/>
      <point x="459" y="-218"/>
      <point x="494" y="-218" type="curve"/>
      <point x="513" y="-119" type="line"/>
      <point x="502" y="-119" type="line"/>
      <point x="490" y="-171"/>
      <point x="458" y="-208"/>
      <point x="425" y="-208" type="curve" smooth="yes"/>
      <point x="397" y="-208"/>
      <point x="381" y="-183"/>
      <point x="381" y="-140" type="curve" smooth="yes"/>
      <point x="381" y="-76.5337"/>
      <point x="414" y="-18"/>
      <point x="463" y="-3" type="curve" smooth="yes"/>
      <point x="582" y="33"/>
      <point x="655.804" y="127.064"/>
      <point x="655" y="263" type="curve"/>
      <point x="655" y="645" type="line" smooth="yes"/>
      <point x="655" y="702"/>
      <point x="693" y="737"/>
      <point x="750" y="740" type="curve"/>
      <point x="750" y="750" type="line"/>
      <point x="543" y="750" type="line"/>
      <point x="543" y="740" type="line"/>
      <point x="600" y="737"/>
      <point x="638" y="702"/>
      <point x="638" y="645" type="curve" smooth="yes"/>
      <point x="638" y="263" type="line" smooth="yes"/>
      <point x="638" y="123"/>
      <point x="560" y="34"/>
      <point x="436" y="34" type="curve" smooth="yes"/>
      <point x="311" y="34"/>
      <point x="234" y="123"/>
      <point x="234" y="263" type="curve" smooth="yes"/>
      <point x="234" y="660" type="line" smooth="yes"/>
      <point x="234" y="708"/>
      <point x="266" y="740"/>
      <point x="314" y="740" type="curve" smooth="yes"/>
      <point x="317" y="740" type="line"/>
      <point x="317" y="750" type="line"/>
      <point x="-5" y="750" type="line"/>
      <point x="-5" y="740" type="line"/>
      <point x="-1" y="740" type="line" smooth="yes"/>
      <point x="47" y="740"/>
      <point x="79" y="708"/>
      <point x="79" y="660" type="curve" smooth="yes"/>
    </contour>
  </outline>
</glyph>
<glyph name="uogonek" format="2">
  <advance width="612"/>
  <unicode hex="0173"/>
  <outline>
    <contour>
      <point x="405" y="418" type="curve" smooth="yes"/>
      <point x="405" y="124" type="line"/>
      <point x="372" y="65"/>
      <point x="324" y="26"/>
      <point x="283" y="26" type="curve" smooth="yes"/>
      <point x="240" y="26"/>
      <point x="211" y="70"/>
      <point x="211" y="136" type="curve" smooth="yes"/>
      <point x="211" y="546" type="line"/>
      <point x="201" y="546" type="line"/>
      <point x="187" y="523"/>
      <point x="158" y="508"/>
      <point x="88" y="508" type="curve" smooth="yes"/>
      <point x="-13" y="508" type="line"/>
      <point x="-13" y="498" type="line"/>
      <point x="56" y="498"/>
      <point x="68" y="466"/>
      <point x="68" y="418" type="curve" smooth="yes"/>
      <point x="68" y="146" type="line" smooth="yes"/>
      <point x="68" y="50"/>
      <point x="127" y="-14"/>
      <point x="216" y="-14" type="curve" smooth="yes"/>
      <point x="295" y="-14"/>
      <point x="372" y="33"/>
      <point x="407" y="101" type="curve"/>
      <point x="408" y="-28" type="line"/>
      <point x="413" y="-28" type="line"/>
      <point x="427" y="-6"/>
      <point x="460" y="0" name=".hr01"/>
      <point x="530" y="0" type="curve" smooth="yes"/>
      <point x="541.601" y="0" type="line"/>
      <point x="477.507" y="-16.5028"/>
      <point x="437" y="-65.9242"/>
      <point x="437" y="-133" type="curve" smooth="yes"/>
      <point x="437" y="-191"/>
      <point x="477" y="-225"/>
      <point x="546" y="-225" type="curve" smooth="yes"/>
      <point x="578" y="-225"/>
      <point x="595" y="-218"/>
      <point x="630" y="-218" type="curve"/>
      <point x="649" y="-119" type="line"/>
      <point x="638" y="-119" type="line"/>
      <point x="626" y="-171"/>
      <point x="594" y="-208"/>
      <point x="561" y="-208" type="curve" smooth="yes"/>
      <point x="533" y="-208"/>
      <point x="517" y="-183"/>
      <point x="517" y="-140" type="curve" smooth="yes"/>
      <point x="517" y="-74"/>
      <point x="554" y="-15"/>
      <point x="605" y="0" type="curve"/>
      <point x="629" y="0" type="line"/>
      <point x="629" y="9" type="line"/>
      <point x="581" y="9"/>
      <point x="549" y="42"/>
      <point x="549" y="90" type="curve" smooth="yes"/>
      <point x="550" y="546" type="line"/>
      <point x="540" y="546" type="line"/>
      <point x="526" y="523"/>
      <point x="496" y="508"/>
      <point x="426" y="508" type="curve" smooth="yes"/>
      <point x="325" y="508" type="line"/>
      <point x="325" y="498" type="line"/>
      <point x="383" y="498"/>
      <point x="405" y="466"/>
    </contour>
  </outline>
</glyph>
<glyph name="dotlessj" format="2">
  <advance width="282"/>
  <unicode hex="0237"/>
  <outline>
    <contour>
      <point x="217" y="536" type="line"/>
      <point x="212" y="536" type="line"/>
      <point x="198" y="513"/>
      <point x="164" y="508"/>
      <point x="94" y="508" type="curve" smooth="yes"/>
      <point x="-8" y="508" type="line"/>
      <point x="-8" y="498" type="line"/>
      <point x="60" y="498"/>
      <point x="72" y="466"/>
      <point x="73" y="418" type="curve"/>
      <point x="73" y="-88" type="line" smooth="yes"/>
      <point x="73" y="-163"/>
      <point x="41" y="-213"/>
      <point x="-8" y="-213" type="curve"/>
      <point x="-8" y="-224" type="line"/>
      <point x="127" y="-224"/>
      <point x="217" y="-124"/>
      <point x="217" y="25" type="curve" smooth="yes"/>
    </contour>
  </outline>
</glyph>
<glyph name="circumflex" format="2">
  <advance width="349"/>
  <unicode hex="02C6"/>
  <outline>
    <contour>
      <point x="200" y="784" type="line"/>
      <point x="149" y="784" type="line"/>
      <point x="22" y="588" type="line"/>
      <point x="29" y="581" type="line"/>
      <point x="175" y="714" type="line"/>
      <point x="321" y="581" type="line"/>
      <point x="328" y="588" type="line"/>
    </contour>
  </outline>
</glyph>
<glyph name="breve" format="2">
  <advance width="308"/>
  <unicode hex="02D8"/>
  <outline>
    <contour>
      <point x="154" y="618" type="curve" smooth="yes"/>
      <point x="236" y="618"/>
      <point x="276" y="677"/>
      <point x="277" y="764" type="curve"/>
      <point x="267" y="764" type="line"/>
      <point x="264" y="715"/>
      <point x="215" y="678"/>
      <point x="154" y="678" type="curve" smooth="yes"/>
      <point x="93" y="678"/>
      <point x="44" y="715"/>
      <point x="41" y="764" type="curve"/>
      <point x="31" y="764" type="line"/>
      <point x="32" y="677"/>
      <point x="71" y="618"/>
    </contour>
  </outline>
</glyph>
<glyph name="dotaccent" format="2">
  <advance width="208"/>
  <unicode hex="02D9"/>
  <outline>
    <contour>
      <point x="32" y="679" type="curve" smooth="yes"/>
      <point x="32" y="641"/>
      <point x="65" y="609"/>
      <point x="104" y="609" type="curve" smooth="yes"/>
      <point x="143" y="609"/>
      <point x="177" y="641"/>
      <point x="177" y="679" type="curve" smooth="yes"/>
      <point x="177" y="718"/>
      <point x="143" y="749"/>
      <point x="104" y="749" type="curve" smooth="yes"/>
      <point x="65" y="749"/>
      <point x="32" y="718"/>
    </contour>
  </outline>
</glyph>
<glyph name="ring" format="2">
  <advance width="218"/>
  <unicode hex="02DA"/>
  <outline>
    <contour>
      <point x="32" y="689" type="curve" smooth="yes"/>
      <point x="32" y="648"/>
      <point x="67" y="614"/>
      <point x="109" y="614" type="curve" smooth="yes"/>
      <point x="151" y="614"/>
      <point x="187" y="648"/>
      <point x="187" y="689" type="curve" smooth="yes"/>
      <point x="187" y="730"/>
      <point x="151" y="764"/>
      <point x="109" y="764" type="curve" smooth="yes"/>
      <point x="67" y="764"/>
      <point x="32" y="730"/>
    </contour>
    <contour>
      <point x="54" y="689" type="curve" smooth="yes"/>
      <point x="54" y="719"/>
      <point x="79" y="745"/>
      <point x="109" y="745" type="curve" smooth="yes"/>
      <point x="140" y="745"/>
      <point x="165" y="719"/>
      <point x="165" y="689" type="curve" smooth="yes"/>
      <point x="165" y="659"/>
      <point x="140" y="633"/>
      <point x="109" y="633" type="curve" smooth="yes"/>
      <point x="79" y="633"/>
      <point x="54" y="659"/>
    </contour>
  </outline>
</glyph>
<glyph name="ogonek" format="2">
  <advance width="270"/>
  <unicode hex="02DB"/>
  <outline>
    <contour>
      <point x="185" y="6" type="line" smooth="yes"/>
      <point x="93" y="6"/>
      <point x="31" y="-50"/>
      <point x="31" y="-133" type="curve" smooth="yes"/>
      <point x="31" y="-191"/>
      <point x="71" y="-225"/>
      <point x="140" y="-225" type="curve" smooth="yes"/>
      <point x="172" y="-225"/>
      <point x="189" y="-218"/>
      <point x="224" y="-218" type="curve"/>
      <point x="243" y="-119" type="line"/>
      <point x="232" y="-119" type="line"/>
      <point x="220" y="-171"/>
      <point x="188" y="-208"/>
      <point x="155" y="-208" type="curve" smooth="yes"/>
      <point x="127" y="-208"/>
      <point x="111" y="-183"/>
      <point x="111" y="-140" type="curve" smooth="yes"/>
      <point x="111" y="-74"/>
      <point x="148" y="-15"/>
      <point x="199" y="0" type="curve"/>
      <point x="199" y="6" type="line"/>
    </contour>
  </outline>
</glyph>
<glyph name="hungarumlaut" format="2">
  <advance width="435"/>
  <unicode hex="02DD"/>
  <outline>
    <contour>
      <point x="238" y="721" type="line"/>
      <point x="238" y="726" type="line"/>
      <point x="173" y="784" type="line"/>
      <point x="168" y="784" type="line"/>
      <point x="31" y="591" type="line"/>
      <point x="38" y="581" type="line"/>
    </contour>
    <contour>
      <point x="404" y="721" type="line"/>
      <point x="404" y="726" type="line"/>
      <point x="340" y="784" type="line"/>
      <point x="335" y="784" type="line"/>
      <point x="197" y="591" type="line"/>
      <point x="204" y="581" type="line"/>
    </contour>
  </outline>
</glyph>
<glyph name="commaturnedabovecomb" format="2">
  <advance width="221"/>
  <unicode hex="0312"/>
  <outline>
    <contour>
      <point x="30" y="688" type="curve" smooth="yes"/>
      <point x="30" y="608"/>
      <point x="128" y="636"/>
      <point x="128" y="578" type="curve" smooth="yes"/>
      <point x="128" y="534"/>
      <point x="91" y="508"/>
      <point x="48" y="457" type="curve"/>
      <point x="57" y="453" type="line"/>
      <point x="126" y="529"/>
      <point x="190" y="578"/>
      <point x="190" y="673" type="curve" smooth="yes"/>
      <point x="190" y="728"/>
      <point x="158" y="764"/>
      <point x="109" y="764" type="curve" smooth="yes"/>
      <point x="62" y="764"/>
      <point x="30" y="734"/>
    </contour>
  </outline>
  <guideline angle="0" x="0" y="764"/>
</glyph>
<glyph name="Germandbls" format="2">
  <advance width="707"/>
  <unicode hex="1E9E"/>
  <outline>
    <contour>
      <point x="89" y="90" type="line" smooth="yes"/>
      <point x="89" y="42"/>
      <point x="57" y="10"/>
      <point x="9" y="10" type="curve"/>
      <point x="8" y="10" type="line"/>
      <point x="7" y="0" type="line"/>
      <point x="244" y="0" type="line"/>
      <point x="244" y="559" type="line" smooth="yes"/>
      <point x="244" y="674"/>
      <point x="284" y="750"/>
      <point x="345" y="750" type="curve" smooth="yes"/>
      <point x="404" y="750"/>
      <point x="444" y="676"/>
      <point x="444" y="564" type="curve"/>
      <point x="367" y="537"/>
      <point x="331" y="498"/>
      <point x="331" y="441" type="curve" smooth="yes"/>
      <point x="331" y="303"/>
      <point x="534" y="267" name=".hr01"/>
      <point x="534" y="107" type="curve" smooth="yes"/>
      <point x="534" y="42"/>
      <point x="501" y="0"/>
      <point x="450" y="0" type="curve" smooth="yes"/>
      <point x="371" y="0"/>
      <point x="339" y="42"/>
      <point x="319" y="202" type="curve"/>
      <point x="309" y="202" type="line"/>
      <point x="332" y="0" type="line"/>
      <point x="402" y="0"/>
      <point x="414" y="-14"/>
      <point x="482" y="-14" type="curve" smooth="yes"/>
      <point x="616" y="-14"/>
      <point x="691" y="43"/>
      <point x="691" y="134" type="curve" smooth="yes"/>
      <point x="691" y="316"/>
      <point x="358" y="342"/>
      <point x="358" y="461" type="curve" smooth="yes"/>
      <point x="358" y="522"/>
      <point x="442" y="564"/>
      <point x="565" y="564" type="curve" name=".hr02"/>
      <point x="565" y="683"/>
      <point x="471" y="764"/>
      <point x="333" y="764" type="curve" smooth="yes"/>
      <point x="187" y="764"/>
      <point x="91" y="673"/>
      <point x="91" y="534" type="curve"/>
      <point x="90" y="508" type="line"/>
      <point x="7" y="508" type="line"/>
      <point x="8" y="498" type="line"/>
      <point x="9" y="498" type="line"/>
      <point x="57" y="498"/>
      <point x="89" y="466"/>
      <point x="89" y="418" type="curve" smooth="yes"/>
    </contour>
  </outline>
</glyph>
<glyph name="emdash" format="2">
  <advance width="848"/>
  <unicode hex="2014"/>
  <outline>
    <contour>
      <point x="29" y="295" type="line"/>
      <point x="819" y="295" type="line"/>
      <point x="819" y="305" type="line"/>
      <point x="29" y="305" type="line"/>
    </contour>
  </outline>
</glyph>
<glyph name="quoteright" format="2">
  <advance width="221"/>
  <unicode hex="2019"/>
  <outline>
    <contour>
      <point x="31" y="738" type="curve" smooth="yes"/>
      <point x="31" y="658"/>
      <point x="129" y="686"/>
      <point x="129" y="629" type="curve" smooth="yes"/>
      <point x="129" y="603"/>
      <point x="109" y="581"/>
      <point x="52" y="544" type="curve"/>
      <point x="58" y="533" type="line"/>
      <point x="155" y="597"/>
      <point x="191" y="646"/>
      <point x="191" y="714" type="curve" smooth="yes"/>
      <point x="191" y="777"/>
      <point x="160" y="814"/>
      <point x="109" y="814" type="curve" smooth="yes"/>
      <point x="62" y="814"/>
      <point x="31" y="783"/>
    </contour>
  </outline>
</glyph>
<glyph name="quotedblleft" format="2">
  <advance width="416"/>
  <unicode hex="201C"/>
  <outline>
    <contour>
      <point x="386" y="579" type="curve" smooth="yes"/>
      <point x="386" y="659"/>
      <point x="288" y="631"/>
      <point x="288" y="689" type="curve" smooth="yes"/>
      <point x="288" y="733"/>
      <point x="325" y="759"/>
      <point x="368" y="810" type="curve"/>
      <point x="359" y="814" type="line"/>
      <point x="290" y="738"/>
      <point x="226" y="689"/>
      <point x="226" y="594" type="curve" smooth="yes"/>
      <point x="226" y="539"/>
      <point x="258" y="503"/>
      <point x="307" y="503" type="curve" smooth="yes"/>
      <point x="354" y="503"/>
      <point x="386" y="533"/>
    </contour>
    <contour>
      <point x="191" y="579" type="curve" smooth="yes"/>
      <point x="191" y="659"/>
      <point x="93" y="631"/>
      <point x="93" y="689" type="curve" smooth="yes"/>
      <point x="93" y="733"/>
      <point x="130" y="759"/>
      <point x="173" y="810" type="curve"/>
      <point x="164" y="814" type="line"/>
      <point x="95" y="738"/>
      <point x="31" y="689"/>
      <point x="31" y="594" type="curve" smooth="yes"/>
      <point x="31" y="539"/>
      <point x="63" y="503"/>
      <point x="112" y="503" type="curve" smooth="yes"/>
      <point x="159" y="503"/>
      <point x="191" y="533"/>
    </contour>
  </outline>
</glyph>
<glyph name="quotedblbase" format="2">
  <advance width="416"/>
  <unicode hex="201E"/>
  <outline>
    <contour>
      <point x="30" y="80" type="curve" smooth="yes"/>
      <point x="30" y="0"/>
      <point x="128" y="28"/>
      <point x="128" y="-30" type="curve" smooth="yes"/>
      <point x="128" y="-74"/>
      <point x="91" y="-100"/>
      <point x="48" y="-151" type="curve"/>
      <point x="57" y="-155" type="line"/>
      <point x="126" y="-79"/>
      <point x="190" y="-30"/>
      <point x="190" y="65" type="curve" smooth="yes"/>
      <point x="190" y="120"/>
      <point x="158" y="156"/>
      <point x="109" y="156" type="curve" smooth="yes"/>
      <point x="62" y="156"/>
      <point x="30" y="126"/>
    </contour>
    <contour>
      <point x="225" y="80" type="curve" smooth="yes"/>
      <point x="225" y="0"/>
      <point x="323" y="28"/>
      <point x="323" y="-30" type="curve" smooth="yes"/>
      <point x="323" y="-74"/>
      <point x="286" y="-100"/>
      <point x="243" y="-151" type="curve"/>
      <point x="252" y="-155" type="line"/>
      <point x="321" y="-79"/>
      <point x="385" y="-30"/>
      <point x="385" y="65" type="curve" smooth="yes"/>
      <point x="385" y="120"/>
      <point x="353" y="156"/>
      <point x="304" y="156" type="curve" smooth="yes"/>
      <point x="257" y="156"/>
      <point x="225" y="126"/>
    </contour>
  </outline>
</glyph>
